<svg width="20" height="20" viewBox="0 0 20 20" fill="none" xmlns="http://www.w3.org/2000/svg">
<path d="M10.0001 17.7379C14.2737 17.7379 17.7382 14.2734 17.7382 9.99981C17.7382 5.72618 14.2737 2.26172 10.0001 2.26172C5.72643 2.26172 2.26196 5.72618 2.26196 9.99981C2.26196 14.2734 5.72643 17.7379 10.0001 17.7379Z" stroke="#7A7D89" stroke-linecap="round" stroke-linejoin="round"/>
<path d="M7.91675 7.91536C7.91675 7.50331 8.03904 7.10052 8.26817 6.75792C8.4973 6.41532 8.82297 6.1483 9.20399 5.99062C9.58502 5.83293 10.0043 5.79168 10.4088 5.87206C10.8133 5.95245 11.1848 6.15087 11.4765 6.44222C11.7681 6.73358 11.9667 7.10479 12.0471 7.50892C12.1276 7.91305 12.0863 8.33193 11.9285 8.71261C11.7707 9.09329 11.5034 9.41866 11.1605 9.64758C10.8176 9.87649 10.4144 9.99868 10.002 9.99868V11.3876" stroke="#7A7D89" stroke-linecap="round" stroke-linejoin="round"/>
<path d="M10 14.1187C9.83564 14.1187 9.70239 13.9854 9.70239 13.8211C9.70239 13.6567 9.83564 13.5234 10 13.5234" stroke="#7A7D89" stroke-linecap="round" stroke-linejoin="round"/>
<path d="M10 14.1187C10.1644 14.1187 10.2976 13.9854 10.2976 13.8211C10.2976 13.6567 10.1644 13.5234 10 13.5234" stroke="#7A7D89" stroke-linecap="round" stroke-linejoin="round"/>
</svg>
