<svg width="24" height="24" viewBox="0 0 24 24" fill="none" xmlns="http://www.w3.org/2000/svg">
<rect width="24" height="24" rx="12" fill="#D7D9E5"/>
<path d="M8.78968 8.7857C9.73515 8.17132 10.8307 7.71484 12 7.71484C14.6571 7.71484 16.9333 10.072 17.9333 11.2827C18.0913 11.4796 18.1787 11.7354 18.1787 12.0006C18.1787 12.2658 18.0913 12.5216 17.9333 12.7185C17.3821 13.3859 16.4431 14.4016 15.2663 15.1788M13.4286 16.067C12.9692 16.2059 12.4911 16.2864 12 16.2864C9.34285 16.2864 7.06666 13.9292 6.06666 12.7185C5.90872 12.5216 5.82129 12.2658 5.82129 12.0006C5.82129 11.7354 5.90872 11.4796 6.06666 11.2827C6.38349 10.8992 6.82842 10.4005 7.37299 9.89815" stroke="#1C1D23" stroke-linecap="round" stroke-linejoin="round"/>
<path d="M13.3469 13.3453C14.0907 12.6014 14.0907 11.3954 13.3469 10.6516C12.603 9.9077 11.397 9.9077 10.6531 10.6516" stroke="#1C1D23" stroke-linecap="round" stroke-linejoin="round"/>
<path d="M18.1904 18.1895L5.80948 5.80859" stroke="#1C1D23" stroke-linecap="round" stroke-linejoin="round"/>
</svg>
