<svg width="28" height="28" viewBox="0 0 28 28" fill="none" xmlns="http://www.w3.org/2000/svg">
<rect x="0.35" y="0.35" width="27.3" height="27.3" rx="13.65" fill="white"/>
<rect x="0.35" y="0.35" width="27.3" height="27.3" rx="13.65" stroke="#D7D9E5" stroke-width="0.7"/>
<path d="M16.6785 11.3209V8.10658C16.6785 7.52301 16.1906 7.03516 15.6071 7.03516H8.10707C7.5235 7.03516 7.03564 7.52301 7.03564 8.10658V15.6066C7.03564 16.1902 7.5235 16.678 8.10707 16.678H11.3214" stroke="#FF5524" stroke-linecap="round" stroke-linejoin="round"/>
<path d="M19.893 20.9632C20.4847 20.9632 20.9644 20.4835 20.9644 19.8917V12.3917C20.9644 11.8082 20.4765 11.3203 19.893 11.3203H12.393C11.8094 11.3203 11.3215 11.8082 11.3215 12.3917V19.8917C11.3215 20.4753 11.8094 20.9632 12.393 20.9632H19.893Z" stroke="#FF5524" stroke-linecap="round" stroke-linejoin="round"/>
</svg>
