<svg width="20" height="20" viewBox="0 0 20 20" fill="none" xmlns="http://www.w3.org/2000/svg">
<circle cx="10" cy="10" r="10" fill="black"/>
<path d="M6.19917 12.3675C6.26847 12.2982 6.36375 12.2578 6.46481 12.2578H15.6294C15.7969 12.2578 15.8806 12.4599 15.7622 12.5783L13.9518 14.3887C13.8825 14.458 13.7872 14.4984 13.6862 14.4984H4.5216C4.35413 14.4984 4.2704 14.2963 4.38878 14.1779L6.19917 12.3675Z" fill="url(#paint0_linear_3087_50378)"/>
<path d="M6.19917 5.60972C6.27136 5.54042 6.36664 5.5 6.46481 5.5H15.6294C15.7969 5.5 15.8806 5.70212 15.7622 5.8205L13.9518 7.6309C13.8825 7.70019 13.7872 7.74062 13.6862 7.74062H4.5216C4.35413 7.74062 4.2704 7.5385 4.38878 7.42012L6.19917 5.60972Z" fill="url(#paint1_linear_3087_50378)"/>
<path d="M13.9518 8.9691C13.8825 8.8998 13.7872 8.85938 13.6862 8.85938H4.5216C4.35413 8.85938 4.2704 9.06149 4.38878 9.17988L6.19917 10.9903C6.26847 11.0596 6.36375 11.1 6.46481 11.1H15.6294C15.7969 11.1 15.8806 10.8979 15.7622 10.7795L13.9518 8.9691Z" fill="url(#paint2_linear_3087_50378)"/>
<defs>
<linearGradient id="paint0_linear_3087_50378" x1="-16.3802" y1="3.79822" x2="-16.624" y2="16.0681" gradientUnits="userSpaceOnUse">
<stop stop-color="#00FFA3"/>
<stop offset="1" stop-color="#DC1FFF"/>
</linearGradient>
<linearGradient id="paint1_linear_3087_50378" x1="-19.1535" y1="2.35187" x2="-19.3974" y2="14.6217" gradientUnits="userSpaceOnUse">
<stop stop-color="#00FFA3"/>
<stop offset="1" stop-color="#DC1FFF"/>
</linearGradient>
<linearGradient id="paint2_linear_3087_50378" x1="-17.7757" y1="3.07256" x2="-18.0196" y2="15.3424" gradientUnits="userSpaceOnUse">
<stop stop-color="#00FFA3"/>
<stop offset="1" stop-color="#DC1FFF"/>
</linearGradient>
</defs>
</svg>
