<svg width="31" height="30" viewBox="0 0 31 30" fill="none" xmlns="http://www.w3.org/2000/svg">
<g clip-path="url(#clip0_3235_47978)">
<path fill-rule="evenodd" clip-rule="evenodd" d="M15.5 0C7.22656 0 0.5 6.72656 0.5 15C0.5 23.2734 7.22656 30 15.5 30C23.7734 30 30.5 23.2734 30.5 15C30.5 6.72656 23.7734 0 15.5 0Z" fill="#2EA518"/>
<path fill-rule="evenodd" clip-rule="evenodd" d="M22.7529 9.94482C23.1162 10.3081 23.1162 10.9058 22.7529 11.269L13.9639 20.0581C13.7822 20.2397 13.542 20.3335 13.3018 20.3335C13.0615 20.3335 12.8213 20.2397 12.6396 20.0581L8.24512 15.6636C7.88184 15.3003 7.88184 14.7026 8.24512 14.3394C8.6084 13.9761 9.20605 13.9761 9.56934 14.3394L13.3018 18.0718L21.4287 9.94482C21.792 9.57568 22.3896 9.57568 22.7529 9.94482Z" fill="white"/>
</g>
<defs>
<clipPath id="clip0_3235_47978">
<rect width="30" height="30" fill="white" transform="translate(0.5)"/>
</clipPath>
</defs>
</svg>
