<svg width="30" height="30" viewBox="0 0 30 30" fill="none" xmlns="http://www.w3.org/2000/svg">
<g clip-path="url(#clip0_3485_6850)">
<path d="M15 0C6.72867 0 0 6.72867 0 15C0 23.2713 6.72867 30 15 30C23.2713 30 30 23.2713 30 15C30 6.72867 23.2713 0 15 0Z" fill="#ED2C38"/>
<path d="M20.5235 18.7559C21.0122 19.2448 21.0122 20.0346 20.5235 20.5235C20.2798 20.7673 19.9598 20.8898 19.6396 20.8898C19.3196 20.8898 18.9996 20.7673 18.7559 20.5235L14.9997 16.7671L11.2435 20.5235C10.9998 20.7673 10.6798 20.8898 10.3598 20.8898C10.0396 20.8898 9.71963 20.7673 9.47587 20.5235C8.98721 20.0346 8.98721 19.2448 9.47587 18.7559L13.2323 14.9997L9.47587 11.2435C8.98721 10.7546 8.98721 9.96476 9.47587 9.47587C9.96476 8.98721 10.7546 8.98721 11.2435 9.47587L14.9997 13.2323L18.7559 9.47587C19.2448 8.98721 20.0346 8.98721 20.5235 9.47587C21.0122 9.96476 21.0122 10.7546 20.5235 11.2435L16.7671 14.9997L20.5235 18.7559Z" fill="white"/>
</g>
<defs>
<clipPath id="clip0_3485_6850">
<rect width="30" height="30" fill="white"/>
</clipPath>
</defs>
</svg>
