<svg width="20" height="20" viewBox="0 0 20 20" fill="none" xmlns="http://www.w3.org/2000/svg">
<path fill-rule="evenodd" clip-rule="evenodd" d="M10 20C4.5 20 0 15.5001 0 9.95021C0.05 4.45032 4.5 -0.0495863 10.05 0.00041267C15.55 0.0504116 20 4.50032 20 10.1002C19.95 15.5501 15.5 20 10 20Z" fill="#FC070C"/>
<path fill-rule="evenodd" clip-rule="evenodd" d="M16.2061 7.00643L16.2059 7.00631C15.7428 6.55664 15.2534 6.08149 14.8215 5.69815L14.7778 5.66752C14.705 5.60907 14.6229 5.56323 14.535 5.5319L14.2015 5.46969C11.9015 5.04053 4.44648 3.6495 4.29312 3.66815C4.24777 3.67451 4.20441 3.69095 4.16625 3.71628L4.12469 3.74909C4.07351 3.80107 4.03464 3.86386 4.01094 3.93284L4 3.96128V4.11659V4.14065C4.50614 5.55003 5.82096 8.6975 7.03498 11.6037L7.03508 11.6039C8.06143 14.0609 9.01572 16.3453 9.34842 17.2612L9.34855 17.2616C9.39232 17.3973 9.47544 17.655 9.63061 17.6681H9.66561C9.74873 17.6681 10.1031 17.2 10.1031 17.2C10.1031 17.2 16.4381 9.51751 17.079 8.69939C17.162 8.59861 17.2352 8.49021 17.2978 8.37564C17.3302 8.19329 17.2646 8.00728 17.125 7.88564C16.8521 7.63369 16.5357 7.32651 16.2061 7.00643ZM11.7284 8.78033L14.4322 6.53815L16.0181 7.99939L11.7284 8.78033ZM6.02343 4.81878L10.6784 8.63377L13.555 6.20784L6.02343 4.81878ZM11.0984 9.63345L15.8628 8.86564L10.4159 15.4281L11.0984 9.63345ZM10.289 9.35564L5.39124 5.1994L9.5803 15.4325L10.289 9.35564Z" fill="white"/>
</svg>
