<svg width="20" height="20" viewBox="0 0 20 20" fill="none" xmlns="http://www.w3.org/2000/svg">
<path d="M10 20C15.5417 20 20 15.5417 20 10C20 4.4583 15.5417 0 10 0C4.4583 0 0 4.4583 0 10C0 15.5417 4.4583 20 10 20Z" fill="#2775CA"/>
<path d="M12.75 11.582C12.75 10.1237 11.875 9.62373 10.125 9.41543C8.875 9.24873 8.625 8.91543 8.625 8.33203C8.625 7.74863 9.0417 7.37373 9.875 7.37373C10.625 7.37373 11.0417 7.62373 11.25 8.24873C11.2917 8.37373 11.4167 8.45703 11.5417 8.45703H12.2083C12.375 8.45703 12.5 8.33203 12.5 8.16543V8.12373C12.3333 7.20703 11.5833 6.49873 10.625 6.41543V5.41543C10.625 5.24873 10.5 5.12373 10.2917 5.08203H9.6667C9.5 5.08203 9.375 5.20703 9.3333 5.41543V6.37373C8.0833 6.54043 7.2917 7.37373 7.2917 8.41543C7.2917 9.79043 8.125 10.332 9.875 10.5404C11.0417 10.7487 11.4167 10.9987 11.4167 11.6654C11.4167 12.3321 10.8333 12.7904 10.0417 12.7904C8.9583 12.7904 8.5833 12.332 8.4583 11.707C8.4167 11.5404 8.2917 11.457 8.1667 11.457H7.4583C7.2917 11.457 7.1667 11.582 7.1667 11.7487V11.7904C7.3333 12.832 8 13.582 9.375 13.7904V14.7904C9.375 14.957 9.5 15.082 9.7083 15.1237H10.3333C10.5 15.1237 10.625 14.9987 10.6667 14.7904V13.7904C11.9167 13.582 12.75 12.707 12.75 11.582Z" fill="white"/>
<path fill-rule="evenodd" clip-rule="evenodd" d="M4.1667 7.95957C2.9583 11.168 4.625 14.793 7.875 15.9596C8 16.043 8.125 16.2096 8.125 16.3346V16.918C8.125 17.0013 8.125 17.043 8.0833 17.0846C8.0417 17.2513 7.875 17.3346 7.7083 17.2513C5.375 16.5013 3.5833 14.7096 2.8333 12.3763C1.5833 8.41797 3.75 4.20957 7.7083 2.95957C7.75 2.91797 7.8333 2.91797 7.875 2.91797C8.0417 2.95957 8.125 3.08457 8.125 3.25127V3.83457C8.125 4.04297 8.0417 4.16797 7.875 4.25127C6.1667 4.87627 4.7917 6.20957 4.1667 7.95957ZM11.9167 3.12627C11.9583 2.95957 12.125 2.87627 12.2917 2.95957C14.5833 3.70957 16.4167 5.50127 17.1667 7.87627C18.4167 11.8346 16.25 16.043 12.2917 17.293C12.25 17.3346 12.1667 17.3346 12.125 17.3346C11.9583 17.293 11.875 17.168 11.875 17.0013V16.418C11.875 16.2096 11.9583 16.0846 12.125 16.0013C13.8333 15.3763 15.2083 14.043 15.8333 12.293C17.0417 9.08457 15.375 5.45957 12.125 4.29297C12 4.20957 11.875 4.04297 11.875 3.87627V3.29297C11.875 3.20957 11.875 3.16797 11.9167 3.12627Z" fill="white"/>
</svg>
