<svg width="20" height="20" viewBox="0 0 20 20" fill="none" xmlns="http://www.w3.org/2000/svg">
<path d="M19.6986 12.419C18.363 17.7762 12.937 21.0365 7.57919 19.7006C2.22361 18.365 -1.03667 12.9387 0.299485 7.58197C1.63447 2.22419 7.06044 -1.03634 12.4166 0.299234C17.7741 1.63481 21.0341 7.0617 19.6984 12.4191L19.6985 12.419H19.6986Z" fill="#50AF95"/>
<path fill-rule="evenodd" clip-rule="evenodd" d="M11.2654 11.1344C11.1947 11.1397 10.8294 11.1615 10.0144 11.1615C9.36627 11.1615 8.90607 11.142 8.74462 11.1344C6.23975 11.0242 4.37009 10.5881 4.37009 10.0661C4.37009 9.544 6.23975 9.10855 8.74462 8.99659V10.7001C8.90843 10.7119 9.37747 10.7396 10.0256 10.7396C10.8034 10.7396 11.1929 10.7072 11.263 10.7007V8.99777C13.7626 9.10914 15.6281 9.54518 15.6281 10.0661C15.6281 10.587 13.7632 11.023 11.263 11.1338L11.2654 11.1344ZM11.2654 8.82159V7.29722H14.7537V4.97266H5.25631V7.29722H8.74403V8.821C5.90919 8.95122 3.77731 9.51277 3.77731 10.1857C3.77731 10.8586 5.90919 11.4196 8.74403 11.5504V16.4352H11.2648V11.5486C14.0932 11.4184 16.2215 10.8574 16.2215 10.1851C16.2215 9.51277 14.0949 8.95181 11.2648 8.821L11.2654 8.82159Z" fill="white"/>
</svg>
