<svg width="20" height="20" viewBox="0 0 20 20" fill="none" xmlns="http://www.w3.org/2000/svg">
<path d="M9.99981 17.7379C14.2734 17.7379 17.7379 14.2734 17.7379 9.99981C17.7379 5.72618 14.2734 2.26172 9.99981 2.26172C5.72618 2.26172 2.26172 5.72618 2.26172 9.99981C2.26172 14.2734 5.72618 17.7379 9.99981 17.7379Z" stroke="#FF5524" stroke-linecap="round" stroke-linejoin="round"/>
<path d="M7.91699 7.91536C7.91699 7.50331 8.03929 7.10052 8.26842 6.75792C8.49754 6.41532 8.82321 6.1483 9.20424 5.99062C9.58526 5.83293 10.0045 5.79168 10.409 5.87206C10.8135 5.95245 11.1851 6.15087 11.4767 6.44222C11.7683 6.73358 11.9669 7.10479 12.0474 7.50892C12.1278 7.91305 12.0865 8.33193 11.9287 8.71261C11.7709 9.09329 11.5036 9.41866 11.1607 9.64758C10.8178 9.87649 10.4146 9.99868 10.0022 9.99868V11.3876" stroke="#FF5524" stroke-linecap="round" stroke-linejoin="round"/>
<path d="M9.99977 14.1187C9.8354 14.1187 9.70215 13.9854 9.70215 13.8211C9.70215 13.6567 9.8354 13.5234 9.99977 13.5234" stroke="#FF5524" stroke-linecap="round" stroke-linejoin="round"/>
<path d="M10 14.1187C10.1644 14.1187 10.2976 13.9854 10.2976 13.8211C10.2976 13.6567 10.1644 13.5234 10 13.5234" stroke="#FF5524" stroke-linecap="round" stroke-linejoin="round"/>
</svg>
