<svg width="20" height="20" viewBox="0 0 20 20" fill="none" xmlns="http://www.w3.org/2000/svg">
<path d="M7.89305 4.34505L8.40496 3.02362C8.49129 2.79989 8.64318 2.60745 8.84073 2.4715C9.03828 2.33554 9.27229 2.26243 9.5121 2.26172H10.4883C10.7281 2.26243 10.9621 2.33554 11.1597 2.4715C11.3572 2.60745 11.5091 2.79989 11.5954 3.02362L12.1073 4.34505L13.8454 5.34505L15.2502 5.13077C15.4841 5.09902 15.7222 5.13752 15.9341 5.24139C16.1461 5.34526 16.3224 5.5098 16.4407 5.7141L16.9169 6.54743C17.0389 6.75499 17.0951 6.99467 17.0781 7.23484C17.0611 7.47501 16.9717 7.70437 16.8216 7.89267L15.9526 8.99981V10.9998L16.8454 12.107C16.9955 12.2953 17.0849 12.5246 17.1019 12.7648C17.1189 13.005 17.0627 13.2446 16.9407 13.4522L16.4645 14.2855C16.3462 14.4898 16.1699 14.6544 15.958 14.7582C15.746 14.8621 15.5079 14.9006 15.274 14.8689L13.8692 14.6546L12.1311 15.6546L11.6192 16.976C11.5329 17.1997 11.381 17.3922 11.1835 17.5281C10.9859 17.6641 10.7519 17.7372 10.5121 17.7379H9.5121C9.27229 17.7372 9.03828 17.6641 8.84073 17.5281C8.64318 17.3922 8.49129 17.1997 8.40496 16.976L7.89305 15.6546L6.15496 14.6546L4.7502 14.8689C4.51629 14.9006 4.27822 14.8621 4.06625 14.7582C3.85427 14.6544 3.67796 14.4898 3.55972 14.2855L3.08353 13.4522C2.96151 13.2446 2.90529 13.005 2.92229 12.7648C2.93929 12.5246 3.02872 12.2953 3.17877 12.107L4.04781 10.9998V8.99981L3.15496 7.89267C3.00491 7.70437 2.91548 7.47501 2.89848 7.23484C2.88148 6.99467 2.9377 6.75499 3.05972 6.54743L3.53591 5.7141C3.65415 5.5098 3.83046 5.34526 4.04244 5.24139C4.25441 5.13752 4.49248 5.09902 4.72639 5.13077L6.13115 5.34505L7.89305 4.34505ZM7.61924 9.99981C7.61924 10.4707 7.75888 10.9311 8.02051 11.3226C8.28213 11.7141 8.65398 12.0193 9.08904 12.1995C9.52411 12.3797 10.0028 12.4269 10.4647 12.335C10.9266 12.2431 11.3508 12.0164 11.6838 11.6834C12.0168 11.3504 12.2435 10.9262 12.3354 10.4643C12.4273 10.0025 12.3801 9.52372 12.1999 9.08866C12.0197 8.6536 11.7145 8.28175 11.323 8.02012C10.9314 7.7585 10.4711 7.61886 10.0002 7.61886C9.36873 7.61886 8.76312 7.86971 8.31661 8.31623C7.87009 8.76274 7.61924 9.36835 7.61924 9.99981V9.99981Z" stroke="#FF5524" stroke-linecap="round" stroke-linejoin="round"/>
</svg>
