<svg width="40" height="40" viewBox="0 0 40 40" fill="none" xmlns="http://www.w3.org/2000/svg">
<rect x="0.35" y="0.35" width="39.3" height="39.3" rx="19.65" fill="#1C1D23"/>
<rect x="0.35" y="0.35" width="39.3" height="39.3" rx="19.65" stroke="#7A7D89" stroke-width="0.7"/>
<path d="M17.9102 24.7967L13.2031 26.1147L14.5211 21.4077L23.1403 12.8303C23.2377 12.7307 23.354 12.6516 23.4825 12.5975C23.6109 12.5435 23.7488 12.5156 23.8882 12.5156C24.0275 12.5156 24.1654 12.5435 24.2939 12.5975C24.4223 12.6516 24.5386 12.7307 24.6361 12.8303L26.4875 14.6923C26.5855 14.7895 26.6634 14.9052 26.7165 15.0326C26.7696 15.1601 26.7969 15.2968 26.7969 15.4349C26.7969 15.573 26.7696 15.7097 26.7165 15.8372C26.6634 15.9647 26.5855 16.0804 26.4875 16.1776L17.9102 24.7967Z" stroke="white" stroke-width="1.2" stroke-linecap="round" stroke-linejoin="round"/>
<path d="M26.7969 26.1133L13.2031 26.1133" stroke="white" stroke-linecap="round"/>
</svg>
