<svg width="20" height="20" viewBox="0 0 20 20" fill="none" xmlns="http://www.w3.org/2000/svg">
<path d="M12.086 17.1207C12.8176 17.5927 13.6894 17.7983 14.5548 17.7031C15.4202 17.6079 16.2264 17.2177 16.838 16.598L17.3726 16.0752C17.6069 15.8355 17.7382 15.5136 17.7382 15.1783C17.7382 14.843 17.6069 14.5211 17.3726 14.2814L15.1035 12.0361C14.8658 11.8024 14.5458 11.6715 14.2125 11.6715C13.8792 11.6715 13.5592 11.8024 13.3215 12.0361C13.0818 12.2704 12.7598 12.4017 12.4246 12.4017C12.0893 12.4017 11.7674 12.2704 11.5276 12.0361L7.96365 8.47208C7.84476 8.35492 7.75034 8.21529 7.6859 8.06131C7.62146 7.90733 7.58827 7.74207 7.58827 7.57515C7.58827 7.40823 7.62146 7.24297 7.6859 7.08899C7.75034 6.93501 7.84476 6.79538 7.96365 6.67821C8.19727 6.44049 8.32818 6.12052 8.32818 5.78722C8.32818 5.45392 8.19727 5.13395 7.96365 4.89623L5.70646 2.63904C5.46673 2.40467 5.14479 2.27344 4.80953 2.27344C4.47427 2.27344 4.15232 2.40467 3.91259 2.63904L3.38988 3.17364C2.77016 3.78515 2.37989 4.59139 2.28469 5.4568C2.1895 6.32221 2.39518 7.19401 2.86716 7.92561C5.32636 11.5499 8.4554 14.6708 12.086 17.1207Z" stroke="#FF5524" stroke-linecap="round" stroke-linejoin="round"/>
</svg>
