<svg width="32" height="32" viewBox="0 0 32 32" fill="none" xmlns="http://www.w3.org/2000/svg">
<rect x="0.35" y="0.35" width="31.3" height="31.3" rx="15.65" fill="white"/>
<rect x="0.35" y="0.35" width="31.3" height="31.3" rx="15.65" stroke="#D7D9E5" stroke-width="0.7"/>
<path d="M8.9447 17.2462L11.137 20.0648C11.2109 20.1609 11.3057 20.239 11.4142 20.2933C11.5227 20.3475 11.6421 20.3765 11.7633 20.378C11.8827 20.3794 12.0008 20.3542 12.1091 20.3041C12.2175 20.2541 12.3133 20.1806 12.3897 20.0889L12.5784 19.8709M19.3841 11.625L14.8023 17.1812" stroke="#2EA518" stroke-width="1.2" stroke-linecap="round" stroke-linejoin="round"/>
<path d="M12.6158 17.2462L14.8081 20.0648C14.8821 20.1609 14.9769 20.2391 15.0854 20.2933C15.1938 20.3475 15.3132 20.3765 15.4345 20.378C15.5538 20.3794 15.6719 20.3542 15.7803 20.3041C15.8886 20.2541 15.9845 20.1806 16.0608 20.0889L23.0552 11.625" stroke="#2EA518" stroke-width="1.2" stroke-linecap="round" stroke-linejoin="round"/>
</svg>
