<svg width="16" height="16" viewBox="0 0 16 16" fill="none" xmlns="http://www.w3.org/2000/svg">
<path d="M8.00005 14.1895C11.419 14.1895 14.1905 11.418 14.1905 7.99907C14.1905 4.58016 11.419 1.80859 8.00005 1.80859C4.58114 1.80859 1.80957 4.58016 1.80957 7.99907C1.80957 11.418 4.58114 14.1895 8.00005 14.1895Z" stroke="#7A7D89" stroke-linecap="round" stroke-linejoin="round"/>
<path d="M6.57129 10.8555H9.42843" stroke="#7A7D89" stroke-linecap="round" stroke-linejoin="round"/>
<path d="M8.00023 10.8568V7.52344H7.04785" stroke="#7A7D89" stroke-linecap="round" stroke-linejoin="round"/>
<path d="M7.99981 5.38244C7.86832 5.38244 7.76172 5.27584 7.76172 5.14435C7.76172 5.01285 7.86832 4.90625 7.99981 4.90625" stroke="#7A7D89" stroke-linecap="round" stroke-linejoin="round"/>
<path d="M8 5.38244C8.1315 5.38244 8.2381 5.27584 8.2381 5.14435C8.2381 5.01285 8.1315 4.90625 8 4.90625" stroke="#7A7D89" stroke-linecap="round" stroke-linejoin="round"/>
</svg>
