<svg width="26" height="26" viewBox="0 0 26 26" fill="none" xmlns="http://www.w3.org/2000/svg">
<rect width="26" height="26" rx="5" fill="#ED2C38"/>
<path d="M13.4286 20.6546C13.1528 20.761 12.8473 20.761 12.5715 20.6546V20.6546C10.4175 19.81 8.56807 18.336 7.26421 16.4248C5.96034 14.5136 5.2626 12.2539 5.26196 9.94029V6.45219C5.26196 6.13646 5.38739 5.83366 5.61065 5.6104C5.8339 5.38714 6.13671 5.26172 6.45244 5.26172H19.5477C19.8634 5.26172 20.1662 5.38714 20.3895 5.6104C20.6127 5.83366 20.7382 6.13646 20.7382 6.45219V9.92839C20.7399 12.244 20.0433 14.5063 18.7393 16.4199C17.4352 18.3335 15.5845 19.8093 13.4286 20.6546V20.6546Z" stroke="white" stroke-linecap="round" stroke-linejoin="round"/>
<path d="M8.04346 17.4404C9.11037 15.8397 10.932 14.7852 13 14.7852C15.068 14.7852 16.8896 15.8397 17.9566 17.4404" stroke="white" stroke-linecap="round" stroke-linejoin="round"/>
<path d="M13.0001 13.0017C14.4794 13.0017 15.6787 11.8024 15.6787 10.3231C15.6787 8.84377 14.4794 7.64453 13.0001 7.64453C11.5208 7.64453 10.3215 8.84377 10.3215 10.3231C10.3215 11.8024 11.5208 13.0017 13.0001 13.0017Z" stroke="white" stroke-linecap="round" stroke-linejoin="round"/>
</svg>
