<svg width="26" height="26" viewBox="0 0 26 26" fill="none" xmlns="http://www.w3.org/2000/svg">
<rect width="26" height="26" rx="5" fill="#02076F"/>
<path d="M14.0953 20.3927L13.3929 20.6665C13.1396 20.7614 12.8605 20.7614 12.6072 20.6665L11.9048 20.3927C10.1257 19.6952 8.5976 18.4787 7.51908 16.9012C6.44055 15.3238 5.86149 13.4583 5.85718 11.5474V8.23791C7.20538 8.43005 8.58046 8.25501 9.83753 7.73123C11.0946 7.20745 12.1871 6.35432 13 5.26172C14.4881 7.42839 16.9524 8.45219 20.1429 8.23791V11.5474C20.1386 13.4583 19.5595 15.3238 18.481 16.9012C17.4025 18.4787 15.8743 19.6952 14.0953 20.3927V20.3927Z" stroke="white" stroke-linecap="round" stroke-linejoin="round"/>
</svg>
