<svg width="22" height="22" viewBox="0 0 22 22" fill="none" xmlns="http://www.w3.org/2000/svg">
<g clip-path="url(#clip0_3325_35959)">
<path d="M11 21.9982C17.0742 21.9982 21.9984 17.0741 21.9984 10.9999C21.9984 4.92561 17.0742 0.00146484 11 0.00146484C4.92573 0.00146484 0.00158691 4.92561 0.00158691 10.9999C0.00158691 17.0741 4.92573 21.9982 11 21.9982Z" fill="#F0F0F0"/>
<path d="M1.47476 5.50073C0.978327 6.36047 0.612139 7.25931 0.368286 8.17486L18.7618 18.7944C19.4328 18.1254 20.0282 17.3588 20.5245 16.4991L1.47476 5.50073Z" fill="black"/>
<path d="M16.4994 1.4751C12.0986 -1.06565 6.67241 -0.218847 3.23798 3.20549L21.6315 13.825C22.8799 9.13862 20.9001 4.0159 16.4994 1.4751Z" fill="#FFDA44"/>
<path d="M5.50028 20.5249C9.90097 23.0656 15.3273 22.2188 18.7617 18.7945L0.368109 8.17493C-0.880203 12.8614 1.0995 17.9841 5.50028 20.5249Z" fill="#FFDA44"/>
<path d="M14.1096 9.80451C14.1096 11.5211 12.718 12.9128 11.0013 12.9128C9.28469 12.9128 7.89307 11.5212 7.89307 9.80451C7.89307 9.26928 8.02839 8.76564 8.2667 8.32593C7.5922 9.01572 7.17578 9.95899 7.17578 11C7.17578 13.1127 8.88851 14.8255 11.0013 14.8255C13.1141 14.8255 14.8269 13.1128 14.8269 11C14.8269 9.95899 14.4105 9.01572 13.736 8.32593C13.9743 8.76572 14.1096 9.26928 14.1096 9.80451Z" fill="#D80027"/>
<path d="M10.2834 6.21814H11.718V13.391H10.2834V6.21814Z" fill="#D80027"/>
<path d="M13.3909 7.65259H8.60907C8.60907 7.98272 8.89667 8.25034 9.22676 8.25034H9.20682C9.20682 8.58047 9.47448 8.84809 9.80457 8.84809C9.80457 9.17823 10.0722 9.44584 10.4023 9.44584H11.5978C11.9279 9.44584 12.1955 9.17823 12.1955 8.84809C12.5257 8.84809 12.7933 8.58047 12.7933 8.25034H12.7734C13.1034 8.2503 13.3909 7.98277 13.3909 7.65259Z" fill="#D80027"/>
<path d="M7.65302 13.8693H14.3477V15.3038H7.65302V13.8693Z" fill="#D80027"/>
<path d="M12.4348 14.3473H15.3039V15.7819H12.4348V14.3473Z" fill="#D80027"/>
<path d="M6.69696 14.3474H9.56609V15.782H6.69696V14.3474Z" fill="#D80027"/>
</g>
<defs>
<clipPath id="clip0_3325_35959">
<rect width="22" height="22" fill="white"/>
</clipPath>
</defs>
</svg>
