<svg width="22" height="22" viewBox="0 0 22 22" fill="none" xmlns="http://www.w3.org/2000/svg">
<g clip-path="url(#clip0_3325_35960)">
<path d="M0 11C0 12.9057 0.484816 14.6981 1.33749 16.2609L11 17.2174L20.6625 16.2609C21.5152 14.6981 22 12.9057 22 11C22 9.09434 21.5152 7.30194 20.6625 5.73912L11 4.78259L1.33749 5.73912C0.484816 7.30194 0 9.09434 0 11H0Z" fill="#D80027"/>
<path d="M1.3382 5.73912H20.6632C18.7976 2.31984 15.1702 0 11.0007 0C6.83123 0 3.20386 2.31984 1.3382 5.73912Z" fill="#0052B4"/>
<path d="M11.0007 22C15.1702 22 18.7976 19.6801 20.6632 16.2609H1.3382C3.20386 19.6801 6.83123 22 11.0007 22Z" fill="#0052B4"/>
<path d="M14.8253 13.1522V11.7175H13.8688V9.8044L12.9123 8.84787L11.9558 9.8044V7.89134L10.9993 6.93481L10.0427 7.89134V9.8044L9.08621 8.84787L8.12969 9.8044V11.7175H7.1732V13.1522H6.21667V14.587H15.7819V13.1522H14.8253Z" fill="#F0F0F0"/>
</g>
<defs>
<clipPath id="clip0_3325_35960">
<rect width="22" height="22" fill="white"/>
</clipPath>
</defs>
</svg>
