<svg width="22" height="22" viewBox="0 0 22 22" fill="none" xmlns="http://www.w3.org/2000/svg">
<g clip-path="url(#clip0_3325_35961)">
<path d="M20.9081 6.21741C19.1289 2.53795 15.3607 0 10.9996 0C6.63856 0 2.87038 2.53795 1.09113 6.21741L10.9996 7.17393L20.9081 6.21741Z" fill="#D80027"/>
<path d="M1.09113 15.7826C2.87038 19.462 6.63856 22 10.9996 22C15.3607 22 19.1289 19.462 20.9081 15.7826L10.9996 14.826L1.09113 15.7826Z" fill="#D80027"/>
<path d="M20.9085 6.21741H1.09149C0.392219 7.66352 0 9.28593 0 11C0 12.7141 0.392219 14.3365 1.09149 15.7826H20.9085C21.6078 14.3365 22 12.7141 22 11C22 9.28593 21.6078 7.66352 20.9085 6.21741Z" fill="#0052B4"/>
<path d="M11.0003 14.826C13.1134 14.826 14.8264 13.113 14.8264 10.9999C14.8264 8.88682 13.1134 7.17383 11.0003 7.17383C8.88724 7.17383 7.17426 8.88682 7.17426 10.9999C7.17426 13.113 8.88724 14.826 11.0003 14.826Z" fill="#F0F0F0"/>
</g>
<defs>
<clipPath id="clip0_3325_35961">
<rect width="22" height="22" fill="white"/>
</clipPath>
</defs>
</svg>
