<svg width="22" height="22" viewBox="0 0 22 22" fill="none" xmlns="http://www.w3.org/2000/svg">
<g clip-path="url(#clip0_3325_35966)">
<path d="M21.3158 14.8261C21.758 13.6345 22 12.3455 22 11C22 9.65448 21.758 8.36554 21.3158 7.17393L11 6.21741L0.684191 7.17393C0.242043 8.36554 0 9.65448 0 11C0 12.3455 0.242043 13.6345 0.684191 14.8261L11 15.7826L21.3158 14.8261Z" fill="#6DA544"/>
<path d="M21.3161 7.17393C19.7618 2.98513 15.7299 0 11.0003 0C6.27064 0 2.23867 2.98513 0.684448 7.17393H21.3161Z" fill="#FFDA44"/>
<path d="M11.0003 22.0001C15.7299 22.0001 19.7618 19.015 21.3161 14.8262H0.684448C2.23867 19.015 6.27064 22.0001 11.0003 22.0001Z" fill="#D80027"/>
<path d="M18.5437 9.30654H12.7813L11.0006 3.82617L9.21987 9.30654H3.45746L8.11935 12.6936L6.33864 18.174L11.0006 14.8262L15.6625 18.174L13.8818 12.6935L18.5437 9.30654Z" fill="#F0F0F0"/>
</g>
<defs>
<clipPath id="clip0_3325_35966">
<rect width="22" height="22" fill="white"/>
</clipPath>
</defs>
</svg>
