<svg width="22" height="22" viewBox="0 0 22 22" fill="none" xmlns="http://www.w3.org/2000/svg">
<g clip-path="url(#clip0_3325_35967)">
<path d="M11 22C17.0751 22 22 17.0751 22 11C22 4.92487 17.0751 0 11 0C4.92487 0 0 4.92487 0 11C0 17.0751 4.92487 22 11 22Z" fill="#F0F0F0"/>
<path d="M10.5211 11H21.9994C21.9994 10.0071 21.867 9.04535 21.6204 8.13037H10.5211V11Z" fill="#D80027"/>
<path d="M10.5211 5.26094H20.3849C19.7115 4.16214 18.8506 3.19092 17.8467 2.39136H10.5211V5.26094Z" fill="#D80027"/>
<path d="M11 22.0001C13.5888 22.0001 15.9683 21.1053 17.8474 19.6088H4.15265C6.03172 21.1053 8.4112 22.0001 11 22.0001Z" fill="#D80027"/>
<path d="M1.61453 16.7392H20.3855C20.9261 15.8571 21.3453 14.8929 21.6211 13.8696H0.378967C0.654698 14.8929 1.07394 15.8571 1.61453 16.7392Z" fill="#D80027"/>
<path d="M11 11C11 4.92491 11 4.2087 11 0C4.92491 0 0 4.92491 0 11H11Z" fill="#0052B4"/>
<path d="M7.31438 9.41565C5.8121 9.41565 4.59428 8.19779 4.59428 6.69556C4.59428 5.19333 5.81215 3.97547 7.31438 3.97547C7.78278 3.97547 8.22351 4.09393 8.60829 4.30241C8.00467 3.71215 7.17915 3.34778 6.26817 3.34778C4.41927 3.34778 2.92035 4.84666 2.92035 6.6956C2.92035 8.54455 4.41927 10.0434 6.26817 10.0434C7.17915 10.0434 8.00467 9.67905 8.60829 9.08879C8.22351 9.29719 7.78282 9.41565 7.31438 9.41565Z" fill="#FFDA44"/>
<path d="M8.08089 4.78247L8.56381 5.79232L9.6544 5.54035L9.16602 6.5475L10.0431 7.24303L8.95109 7.4892L8.95414 8.60858L8.08089 7.90828L7.20759 8.60858L7.2106 7.4892L6.11859 7.24303L6.99567 6.5475L6.50724 5.54035L7.59792 5.79232L8.08089 4.78247Z" fill="#FFDA44"/>
</g>
<defs>
<clipPath id="clip0_3325_35967">
<rect width="22" height="22" fill="white"/>
</clipPath>
</defs>
</svg>
