<svg width="22" height="22" viewBox="0 0 22 22" fill="none" xmlns="http://www.w3.org/2000/svg">
<g clip-path="url(#clip0_3325_35965)">
<path d="M11 22C17.0751 22 22 17.0751 22 11C22 4.92487 17.0751 0 11 0C4.92487 0 0 4.92487 0 11C0 17.0751 4.92487 22 11 22Z" fill="#F0F0F0"/>
<path d="M10.9993 0V11L3.22113 18.7782C5.21174 20.7688 7.96174 22 10.9993 22C17.0744 22 21.9993 17.0751 21.9993 11C21.9993 4.92491 10.9993 0 10.9993 0Z" fill="#D80027"/>
<path d="M10.9993 0C7.96174 0 5.21174 1.23123 3.22113 3.2218C5.92 5.92066 6.87807 6.87878 10.9993 11H21.9993C21.9993 4.92491 17.0744 0 10.9993 0Z" fill="#0052B4"/>
<path d="M7.53156 10.9999L6.18819 10.368L6.90357 9.06693L5.44479 9.34601L5.25993 7.87231L4.24381 8.95616L3.22773 7.87231L3.04283 9.34601L1.58409 9.06689L2.29947 10.368L0.956055 10.9999L2.29947 11.6318L1.58409 12.9328L3.04296 12.6538L3.22768 14.1274L4.24381 13.0436L5.25993 14.1274L5.44479 12.6538L6.90349 12.9329L6.18814 11.6318L7.53156 10.9999Z" fill="#FFDA44"/>
<path d="M2.93266 4.3042L3.37971 4.92909L4.11211 4.69711L3.65587 5.31534L4.10292 5.94023L3.37391 5.69742L2.91771 6.31561L2.92342 5.54733L2.19446 5.30447L2.92699 5.07248L2.93266 4.3042Z" fill="#FFDA44"/>
<path d="M2.93266 15.684L3.37971 16.3089L4.11211 16.0768L3.65587 16.6951L4.10292 17.32L3.37391 17.0772L2.91771 17.6954L2.92342 16.9271L2.19446 16.6842L2.92699 16.4522L2.93266 15.684Z" fill="#FFDA44"/>
<path d="M9.30976 9.99414L8.86276 10.619L8.13031 10.387L8.58655 11.0052L8.13951 11.6302L8.86851 11.3873L9.32476 12.0055L9.319 11.2373L10.048 10.9944L9.31547 10.7624L9.30976 9.99414Z" fill="#FFDA44"/>
</g>
<defs>
<clipPath id="clip0_3325_35965">
<rect width="22" height="22" fill="white"/>
</clipPath>
</defs>
</svg>
