<svg width="23" height="22" viewBox="0 0 23 22" fill="none" xmlns="http://www.w3.org/2000/svg">
<g clip-path="url(#clip0_5375_15349)">
<path d="M11.1904 22C17.2656 22 22.1904 17.0751 22.1904 11C22.1904 4.92487 17.2656 0 11.1904 0C5.1153 0 0.19043 4.92487 0.19043 11C0.19043 17.0751 5.1153 22 11.1904 22Z" fill="#F0F0F0"/>
<path d="M21.5062 14.8279C21.9484 13.6363 22.1904 12.3474 22.1904 11.0018C22.1904 9.65632 21.9484 8.36743 21.5062 7.17578H0.874621C0.432473 8.36743 0.19043 9.65632 0.19043 11.0018C0.19043 12.3474 0.432473 13.6363 0.874621 14.8279L11.1904 15.7844L21.5062 14.8279Z" fill="#0052B4"/>
<path d="M11.1908 21.9982C15.9204 21.9982 19.9524 19.013 21.5066 14.8242H0.875C2.42922 19.013 6.46119 21.9982 11.1908 21.9982Z" fill="#D80027"/>
</g>
<defs>
<clipPath id="clip0_5375_15349">
<rect width="22" height="22" fill="white" transform="translate(0.19043)"/>
</clipPath>
</defs>
</svg>
