<svg width="22" height="22" viewBox="0 0 22 22" fill="none" xmlns="http://www.w3.org/2000/svg">
<g clip-path="url(#clip0_3325_35958)">
<path d="M11 22C17.0751 22 22 17.0751 22 11C22 4.92487 17.0751 0 11 0C4.92487 0 0 4.92487 0 11C0 17.0751 4.92487 22 11 22Z" fill="#F0F0F0"/>
<path d="M0 11C0 4.92491 4.92491 0 11 0C17.0751 0 22 4.92491 22 11" fill="#D80027"/>
<path d="M6.69543 5.73902C6.69543 4.13637 7.82177 2.79755 9.32585 2.46905C9.09468 2.41861 8.85487 2.39124 8.60844 2.39124C6.75946 2.39124 5.26062 3.89007 5.26062 5.73906C5.26062 7.58805 6.75946 9.08688 8.60844 9.08688C8.85478 9.08688 9.09464 9.05951 9.32585 9.00902C7.82177 8.68053 6.69543 7.34171 6.69543 5.73902Z" fill="#F0F0F0"/>
<path d="M10.9991 2.63025L11.2365 3.36093H12.0048L11.3832 3.81258L11.6207 4.54326L10.9991 4.0917L10.3775 4.54326L10.6149 3.81258L9.99335 3.36093H10.7616L10.9991 2.63025Z" fill="#F0F0F0"/>
<path d="M9.136 4.06519L9.3734 4.79591H10.1417L9.52014 5.24751L9.75759 5.9782L9.136 5.52664L8.51433 5.9782L8.75182 5.24751L8.13019 4.79591H8.89851L9.136 4.06519Z" fill="#F0F0F0"/>
<path d="M12.8636 4.06519L13.1011 4.79591H13.8693L13.2477 5.24751L13.4852 5.9782L12.8636 5.52664L12.242 5.9782L12.4794 5.24751L11.8578 4.79591H12.6261L12.8636 4.06519Z" fill="#F0F0F0"/>
<path d="M12.1469 6.21741L12.3843 6.94813H13.1526L12.531 7.39973L12.7685 8.13042L12.1469 7.67886L11.5253 8.13042L11.7628 7.39973L11.1412 6.94813H11.9094L12.1469 6.21741Z" fill="#F0F0F0"/>
<path d="M9.85275 6.21741L10.0902 6.94813H10.8585L10.2369 7.39973L10.4744 8.13042L9.85275 7.67886L9.23113 8.13042L9.46857 7.39973L8.84698 6.94813H9.61531L9.85275 6.21741Z" fill="#F0F0F0"/>
</g>
<defs>
<clipPath id="clip0_3325_35958">
<rect width="22" height="22" fill="white"/>
</clipPath>
</defs>
</svg>
