<svg width="22" height="22" viewBox="0 0 22 22" fill="none" xmlns="http://www.w3.org/2000/svg">
<g clip-path="url(#clip0_3325_35964)">
<path d="M11 22C17.0751 22 22 17.0751 22 11C22 4.92487 17.0751 0 11 0C4.92487 0 0 4.92487 0 11C0 17.0751 4.92487 22 11 22Z" fill="#F0F0F0"/>
<path d="M21.3158 7.17395H0.684191C0.242 8.3656 0 9.65449 0 11C0 12.3455 0.242 13.6344 0.684191 14.8261H21.3159C21.758 13.6344 22 12.3455 22 11C22 9.65449 21.758 8.3656 21.3158 7.17395Z" fill="#0052B4"/>
<path d="M10.9996 0C7.66558 0 4.67826 1.48345 2.66101 3.82607H19.3381C17.3209 1.48345 14.3336 0 10.9996 0Z" fill="#D80027"/>
<path d="M19.3381 18.174H2.66101C4.67826 20.5166 7.66558 22 10.9996 22C14.3336 22 17.3209 20.5166 19.3381 18.174Z" fill="#D80027"/>
</g>
<defs>
<clipPath id="clip0_3325_35964">
<rect width="22" height="22" fill="white"/>
</clipPath>
</defs>
</svg>
