<svg width="22" height="22" viewBox="0 0 22 22" fill="none" xmlns="http://www.w3.org/2000/svg">
<g clip-path="url(#clip0_3325_35962)">
<path d="M11 22C17.0751 22 22 17.0751 22 11C22 4.92487 17.0751 0 11 0C4.92487 0 0 4.92487 0 11C0 17.0751 4.92487 22 11 22Z" fill="#FFDA44"/>
<path d="M11.0006 0C8.30745 0 5.84078 0.968387 3.92859 2.57529L15.7832 11L3.92859 19.4247C5.84078 21.0316 8.30745 22 11.0006 22C17.0757 22 22.0006 17.0751 22.0006 11C22.0006 4.92491 17.0757 0 11.0006 0Z" fill="#D80027"/>
<path d="M3.22182 3.2218C-1.07394 7.51756 -1.07394 14.4824 3.22182 18.7782C4.99699 17.003 6.70426 15.2958 11 11L3.22182 3.2218Z" fill="black"/>
<path d="M3.04964 8.48022L4.7237 10.0646L6.74788 8.96182L5.75852 11.0437L7.43263 12.628L5.14695 12.3304L4.15746 14.4121L3.73435 12.1463L1.44867 11.8485L3.47276 10.7459L3.04964 8.48022Z" fill="#F0F0F0"/>
</g>
<defs>
<clipPath id="clip0_3325_35962">
<rect width="22" height="22" fill="white"/>
</clipPath>
</defs>
</svg>
