<svg width="20" height="20" viewBox="0 0 20 20" fill="none" xmlns="http://www.w3.org/2000/svg">
<path d="M10 19.9999C15.5228 19.9999 20 15.5228 20 9.99997C20 4.47714 15.5228 0 10 0C4.47715 0 0 4.47714 0 9.99997C0 15.5228 4.47715 19.9999 10 19.9999Z" fill="#F0F0F0"/>
<path d="M9.56445 10.0032H19.9992C19.9992 9.10066 19.8789 8.22629 19.6547 7.39453H9.56445V10.0032Z" fill="#D80027"/>
<path d="M9.56445 4.78448H18.5315C17.9193 3.78558 17.1366 2.90265 16.2241 2.17578H9.56445V4.78448Z" fill="#D80027"/>
<path d="M10.0002 20.002C12.3537 20.002 14.5169 19.1886 16.2251 17.8281H3.77539C5.48359 19.1886 7.64676 20.002 10.0002 20.002Z" fill="#D80027"/>
<path d="M1.46797 15.2181H18.5325C19.0239 14.4162 19.4051 13.5396 19.6557 12.6094H0.344727C0.595391 13.5396 0.976523 14.4162 1.46797 15.2181Z" fill="#D80027"/>
<path d="M4.63219 1.56164H5.54348L4.69582 2.17746L5.01961 3.1739L4.17199 2.55808L3.32437 3.1739L3.60406 2.31308C2.85773 2.93476 2.20359 3.66312 1.66453 4.47468H1.95652L1.41695 4.86667C1.33289 5.0069 1.25227 5.14936 1.175 5.29393L1.43266 6.08694L0.951953 5.73768C0.832461 5.99084 0.723164 6.24971 0.624922 6.51397L0.908789 7.38771H1.95652L1.10887 8.00353L1.43266 8.99998L0.585039 8.38416L0.0773047 8.75306C0.0264844 9.16158 0 9.57767 0 9.99997H10C10 4.47718 10 3.82608 10 0C8.02453 0 6.18301 0.573045 4.63219 1.56164ZM5.01961 8.99998L4.17199 8.38416L3.32437 8.99998L3.64816 8.00353L2.80051 7.38771H3.84824L4.17199 6.39127L4.49574 7.38771H5.54348L4.69582 8.00353L5.01961 8.99998ZM4.69582 5.09049L5.01961 6.08694L4.17199 5.47112L3.32437 6.08694L3.64816 5.09049L2.80051 4.47468H3.84824L4.17199 3.47823L4.49574 4.47468H5.54348L4.69582 5.09049ZM8.60656 8.99998L7.75895 8.38416L6.91133 8.99998L7.23512 8.00353L6.38746 7.38771H7.4352L7.75895 6.39127L8.0827 7.38771H9.13043L8.28277 8.00353L8.60656 8.99998ZM8.28277 5.09049L8.60656 6.08694L7.75895 5.47112L6.91133 6.08694L7.23512 5.09049L6.38746 4.47468H7.4352L7.75895 3.47823L8.0827 4.47468H9.13043L8.28277 5.09049ZM8.28277 2.17746L8.60656 3.1739L7.75895 2.55808L6.91133 3.1739L7.23512 2.17746L6.38746 1.56164H7.4352L7.75895 0.565194L8.0827 1.56164H9.13043L8.28277 2.17746Z" fill="#0052B4"/>
</svg>
