<svg width="20" height="20" viewBox="0 0 20 20" fill="none" xmlns="http://www.w3.org/2000/svg">
<path d="M16.5477 4.64453H3.45244C2.79496 4.64453 2.26196 5.17753 2.26196 5.83501V14.1683C2.26196 14.8258 2.79496 15.3588 3.45244 15.3588H16.5477C17.2052 15.3588 17.7382 14.8258 17.7382 14.1683V5.83501C17.7382 5.17753 17.2052 4.64453 16.5477 4.64453Z" fill="#FF6237" fill-opacity="0.2" stroke="#FF5524" stroke-linecap="round" stroke-linejoin="round"/>
<path d="M7.02375 11.7863C8.00997 11.7863 8.80947 10.9868 8.80947 10.0006C8.80947 9.01434 8.00997 8.21484 7.02375 8.21484C6.03753 8.21484 5.23804 9.01434 5.23804 10.0006C5.23804 10.9868 6.03753 11.7863 7.02375 11.7863Z" fill="#FF6237" fill-opacity="0.2" stroke="#FF5524" stroke-linecap="round" stroke-linejoin="round"/>
<path d="M11.7858 8.21484H14.762" stroke="#FF5524" stroke-linecap="round" stroke-linejoin="round"/>
<path d="M11.7858 11.7852H14.762" stroke="#FF5524" stroke-linecap="round" stroke-linejoin="round"/>
</svg>
