<svg width="20" height="20" viewBox="0 0 20 20" fill="none" xmlns="http://www.w3.org/2000/svg">
<path d="M16.5474 4.64453H3.45219C2.79471 4.64453 2.26172 5.17753 2.26172 5.83501V14.1683C2.26172 14.8258 2.79471 15.3588 3.45219 15.3588H16.5474C17.2049 15.3588 17.7379 14.8258 17.7379 14.1683V5.83501C17.7379 5.17753 17.2049 4.64453 16.5474 4.64453Z" stroke="#7A7D89" stroke-linecap="round" stroke-linejoin="round"/>
<path d="M7.024 11.7863C8.01022 11.7863 8.80971 10.9868 8.80971 10.0006C8.80971 9.01434 8.01022 8.21484 7.024 8.21484C6.03777 8.21484 5.23828 9.01434 5.23828 10.0006C5.23828 10.9868 6.03777 11.7863 7.024 11.7863Z" stroke="#7A7D89" stroke-linecap="round" stroke-linejoin="round"/>
<path d="M11.7861 8.21484H14.7623" stroke="#7A7D89" stroke-linecap="round" stroke-linejoin="round"/>
<path d="M11.7861 11.7852H14.7623" stroke="#7A7D89" stroke-linecap="round" stroke-linejoin="round"/>
</svg>
