<svg width="20" height="20" viewBox="0 0 20 20" fill="none" xmlns="http://www.w3.org/2000/svg">
<path d="M7.89281 4.34505L8.40471 3.02362C8.49104 2.79989 8.64293 2.60745 8.84049 2.4715C9.03804 2.33554 9.27205 2.26243 9.51186 2.26172H10.488C10.7279 2.26243 10.9619 2.33554 11.1594 2.4715C11.357 2.60745 11.5089 2.79989 11.5952 3.02362L12.1071 4.34505L13.8452 5.34505L15.25 5.13077C15.4839 5.09902 15.7219 5.13752 15.9339 5.24139C16.1459 5.34526 16.3222 5.5098 16.4404 5.7141L16.9166 6.54743C17.0386 6.75499 17.0949 6.99467 17.0779 7.23484C17.0609 7.47501 16.9714 7.70437 16.8214 7.89267L15.9523 8.99981V10.9998L16.8452 12.107C16.9952 12.2953 17.0847 12.5246 17.1017 12.7648C17.1187 13.005 17.0625 13.2446 16.9404 13.4522L16.4642 14.2855C16.346 14.4898 16.1697 14.6544 15.9577 14.7582C15.7457 14.8621 15.5077 14.9006 15.2738 14.8689L13.869 14.6546L12.1309 15.6546L11.619 16.976C11.5327 17.1997 11.3808 17.3922 11.1832 17.5281C10.9857 17.6641 10.7517 17.7372 10.5119 17.7379H9.51186C9.27205 17.7372 9.03804 17.6641 8.84049 17.5281C8.64293 17.3922 8.49104 17.1997 8.40471 16.976L7.89281 15.6546L6.15471 14.6546L4.74995 14.8689C4.51604 14.9006 4.27798 14.8621 4.066 14.7582C3.85403 14.6544 3.67772 14.4898 3.55947 14.2855L3.08328 13.4522C2.96126 13.2446 2.90504 13.005 2.92205 12.7648C2.93905 12.5246 3.02848 12.2953 3.17852 12.107L4.04757 10.9998V8.99981L3.15471 7.89267C3.00467 7.70437 2.91524 7.47501 2.89824 7.23484C2.88123 6.99467 2.93745 6.75499 3.05947 6.54743L3.53567 5.7141C3.65391 5.5098 3.83022 5.34526 4.04219 5.24139C4.25417 5.13752 4.49223 5.09902 4.72614 5.13077L6.1309 5.34505L7.89281 4.34505ZM7.619 9.99981C7.619 10.4707 7.75864 10.9311 8.02026 11.3226C8.28188 11.7141 8.65374 12.0193 9.0888 12.1995C9.52386 12.3797 10.0026 12.4269 10.4645 12.335C10.9263 12.2431 11.3506 12.0164 11.6835 11.6834C12.0165 11.3504 12.2433 10.9262 12.3352 10.4643C12.427 10.0025 12.3799 9.52372 12.1997 9.08866C12.0195 8.6536 11.7143 8.28175 11.3227 8.02012C10.9312 7.7585 10.4709 7.61886 9.99995 7.61886C9.36848 7.61886 8.76288 7.86971 8.31636 8.31623C7.86985 8.76274 7.619 9.36835 7.619 9.99981V9.99981Z" stroke="#7A7D89" stroke-linecap="round" stroke-linejoin="round"/>
</svg>
