<svg width="20" height="20" viewBox="0 0 20 20" fill="none" xmlns="http://www.w3.org/2000/svg">
<path d="M5.23828 10.0006V6.86961C5.24758 6.25417 5.37822 5.64662 5.62273 5.08176C5.86724 4.5169 6.2208 4.00584 6.66316 3.57785C7.10552 3.14987 7.62798 2.81338 8.20061 2.58766C8.77324 2.36194 9.38478 2.25144 10.0002 2.26247C10.6156 2.25144 11.2271 2.36194 11.7998 2.58766C12.3724 2.81338 12.8949 3.14987 13.3372 3.57785C13.7796 4.00584 14.1331 4.5169 14.3776 5.08176C14.6221 5.64662 14.7528 6.25417 14.7621 6.86961V10.0006" stroke="#FF5524" stroke-linecap="round" stroke-linejoin="round"/>
<path d="M3.45219 8.21484H4.64267C4.80054 8.21484 4.95194 8.27756 5.06357 8.38919C5.1752 8.50081 5.23791 8.65221 5.23791 8.81008V12.3815C5.23791 12.5394 5.1752 12.6908 5.06357 12.8024C4.95194 12.914 4.80054 12.9767 4.64267 12.9767H3.45219C3.13646 12.9767 2.83366 12.8513 2.6104 12.6281C2.38714 12.4048 2.26172 12.102 2.26172 11.7863V9.40532C2.26172 9.08959 2.38714 8.78678 2.6104 8.56353C2.83366 8.34027 3.13646 8.21484 3.45219 8.21484V8.21484Z" stroke="#7A7D89" stroke-linecap="round" stroke-linejoin="round"/>
<path d="M16.5478 12.9766H15.3573C15.1995 12.9766 15.0481 12.9138 14.9364 12.8022C14.8248 12.6906 14.7621 12.5392 14.7621 12.3813V8.8099C14.7621 8.65203 14.8248 8.50063 14.9364 8.389C15.0481 8.27737 15.1995 8.21466 15.3573 8.21466H16.5478C16.8635 8.21466 17.1663 8.34008 17.3896 8.56334C17.6129 8.7866 17.7383 9.0894 17.7383 9.40513V11.7861C17.7383 12.1018 17.6129 12.4046 17.3896 12.6279C17.1663 12.8511 16.8635 12.9766 16.5478 12.9766V12.9766Z" stroke="#7A7D89" stroke-linecap="round" stroke-linejoin="round"/>
<path d="M12.3809 16.2509C13.0123 16.2509 13.6179 16.0001 14.0644 15.5536C14.511 15.107 14.7618 14.5014 14.7618 13.87V11.1914" stroke="#7A7D89" stroke-linecap="round" stroke-linejoin="round"/>
<path d="M12.381 16.2498C12.381 16.6445 12.2243 17.023 11.9452 17.3021C11.6661 17.5811 11.2876 17.7379 10.893 17.7379H9.10724C8.71257 17.7379 8.33407 17.5811 8.05499 17.3021C7.77592 17.023 7.61914 16.6445 7.61914 16.2498C7.61914 15.8551 7.77592 15.4766 8.05499 15.1976C8.33407 14.9185 8.71257 14.7617 9.10724 14.7617H10.893C11.2876 14.7617 11.6661 14.9185 11.9452 15.1976C12.2243 15.4766 12.381 15.8551 12.381 16.2498Z" stroke="#7A7D89" stroke-linecap="round" stroke-linejoin="round"/>
</svg>
