<svg width="20" height="20" viewBox="0 0 20 20" fill="none" xmlns="http://www.w3.org/2000/svg">
<path d="M5.23804 10.0006V6.86961C5.24734 6.25417 5.37798 5.64662 5.62249 5.08176C5.86699 4.5169 6.22056 4.00584 6.66292 3.57785C7.10528 3.14987 7.62774 2.81338 8.20037 2.58766C8.77299 2.36194 9.38453 2.25144 9.99994 2.26247C10.6154 2.25144 11.2269 2.36194 11.7995 2.58766C12.3721 2.81338 12.8946 3.14987 13.337 3.57785C13.7793 4.00584 14.1329 4.5169 14.3774 5.08176C14.6219 5.64662 14.7525 6.25417 14.7618 6.86961V10.0006" stroke="#7A7D89" stroke-linecap="round" stroke-linejoin="round"/>
<path d="M3.45244 8.21484H4.64292C4.80078 8.21484 4.95218 8.27756 5.06381 8.38919C5.17544 8.50081 5.23815 8.65221 5.23815 8.81008V12.3815C5.23815 12.5394 5.17544 12.6908 5.06381 12.8024C4.95218 12.914 4.80078 12.9767 4.64292 12.9767H3.45244C3.13671 12.9767 2.8339 12.8513 2.61065 12.6281C2.38739 12.4048 2.26196 12.102 2.26196 11.7863V9.40532C2.26196 9.08959 2.38739 8.78678 2.61065 8.56353C2.8339 8.34027 3.13671 8.21484 3.45244 8.21484V8.21484Z" stroke="#7A7D89" stroke-linecap="round" stroke-linejoin="round"/>
<path d="M16.5476 12.9766H15.3571C15.1992 12.9766 15.0478 12.9138 14.9362 12.8022C14.8246 12.6906 14.7618 12.5392 14.7618 12.3813V8.8099C14.7618 8.65203 14.8246 8.50063 14.9362 8.389C15.0478 8.27737 15.1992 8.21466 15.3571 8.21466H16.5476C16.8633 8.21466 17.1661 8.34008 17.3894 8.56334C17.6126 8.7866 17.738 9.0894 17.738 9.40513V11.7861C17.738 12.1018 17.6126 12.4046 17.3894 12.6279C17.1661 12.8511 16.8633 12.9766 16.5476 12.9766V12.9766Z" stroke="#7A7D89" stroke-linecap="round" stroke-linejoin="round"/>
<path d="M12.3809 16.2509C13.0123 16.2509 13.6179 16.0001 14.0644 15.5536C14.511 15.107 14.7618 14.5014 14.7618 13.87V11.1914" stroke="#7A7D89" stroke-linecap="round" stroke-linejoin="round"/>
<path d="M12.381 16.2498C12.381 16.6445 12.2243 17.023 11.9452 17.3021C11.6661 17.5811 11.2876 17.7379 10.893 17.7379H9.10724C8.71257 17.7379 8.33407 17.5811 8.05499 17.3021C7.77592 17.023 7.61914 16.6445 7.61914 16.2498C7.61914 15.8551 7.77592 15.4766 8.05499 15.1976C8.33407 14.9185 8.71257 14.7617 9.10724 14.7617H10.893C11.2876 14.7617 11.6661 14.9185 11.9452 15.1976C12.2243 15.4766 12.381 15.8551 12.381 16.2498Z" stroke="#7A7D89" stroke-linecap="round" stroke-linejoin="round"/>
</svg>
