<svg width="24" height="24" viewBox="0 0 24 24" fill="none" xmlns="http://www.w3.org/2000/svg">
<path d="M7.18452 7.17769C8.60273 6.25613 10.246 5.57141 12 5.57141C15.9857 5.57141 19.4 9.10717 20.9 10.9233C21.1369 11.2186 21.268 11.6023 21.268 12.0001C21.268 12.3979 21.1369 12.7815 20.9 13.0769C20.0732 14.0779 18.6647 15.6015 16.8995 16.7674M14.1428 18.0996C13.4537 18.308 12.7366 18.4287 12 18.4287C8.01428 18.4287 4.59999 14.893 3.09999 13.0769C2.86307 12.7815 2.73193 12.3979 2.73193 12.0001C2.73193 11.6023 2.86307 11.2186 3.09999 10.9233C3.57523 10.3479 4.24264 9.59986 5.05949 8.84637" stroke="#FF5524" stroke-linecap="round" stroke-linejoin="round"/>
<path d="M14.0203 14.0203C15.1361 12.9045 15.1361 11.0954 14.0203 9.97966C12.9045 8.86387 11.0955 8.86387 9.97969 9.97966" stroke="#FF5524" stroke-linecap="round" stroke-linejoin="round"/>
<path d="M21.2857 21.2857L2.71428 2.71423" stroke="#FF5524" stroke-linecap="round" stroke-linejoin="round"/>
</svg>
