<svg width="18" height="18" viewBox="0 0 18 18" fill="none" xmlns="http://www.w3.org/2000/svg">
<path d="M15.6751 8.19358C15.8528 8.41507 15.9512 8.70282 15.9512 9.00118C15.9512 9.29954 15.8528 9.58729 15.6751 9.80878C14.5501 11.1709 11.9894 13.8227 9.00011 13.8227C6.01083 13.8227 3.45011 11.1709 2.32511 9.80878C2.14743 9.58729 2.04907 9.29954 2.04907 9.00118C2.04907 8.70282 2.14743 8.41507 2.32511 8.19358C3.45011 6.83151 6.01083 4.17969 9.00011 4.17969C11.9894 4.17969 14.5501 6.83151 15.6751 8.19358Z" stroke="#FF5524" stroke-linecap="round" stroke-linejoin="round"/>
<path d="M9.00003 11.1412C10.1835 11.1412 11.1429 10.1818 11.1429 8.99833C11.1429 7.81486 10.1835 6.85547 9.00003 6.85547C7.81657 6.85547 6.85718 7.81486 6.85718 8.99833C6.85718 10.1818 7.81657 11.1412 9.00003 11.1412Z" stroke="#FF5524" stroke-linecap="round" stroke-linejoin="round"/>
</svg>
