<svg width="18" height="18" viewBox="0 0 18 18" fill="none" xmlns="http://www.w3.org/2000/svg">
<path d="M3.10707 3.64062C2.82291 3.64063 2.55039 3.75351 2.34946 3.95444C2.14853 4.15537 2.03564 4.42789 2.03564 4.71205V14.8906C2.03564 15.1748 2.14853 15.4473 2.34946 15.6482C2.55039 15.8492 2.82291 15.9621 3.10707 15.9621H14.8928C15.1769 15.9621 15.4495 15.8492 15.6504 15.6482C15.8513 15.4473 15.9642 15.1748 15.9642 14.8906V4.71205C15.9642 4.42789 15.8513 4.15537 15.6504 3.95444C15.4495 3.75351 15.1769 3.64063 14.8928 3.64062H12.7499" stroke="#1C1D23" stroke-linecap="round" stroke-linejoin="round"/>
<path d="M2.03564 7.39062H15.9642" stroke="#1C1D23" stroke-linecap="round" stroke-linejoin="round"/>
<path d="M5.25 2.03906V5.25335" stroke="#1C1D23" stroke-linecap="round" stroke-linejoin="round"/>
<path d="M12.75 2.03906V5.25335" stroke="#1C1D23" stroke-linecap="round" stroke-linejoin="round"/>
<path d="M5.25 3.64062H10.6071" stroke="#1C1D23" stroke-linecap="round" stroke-linejoin="round"/>
</svg>
