<svg width="203" height="182" viewBox="0 0 203 182" fill="none" xmlns="http://www.w3.org/2000/svg">
<path d="M96.1846 155C131.46 155 160.059 126.402 160.059 91C160.059 55.5984 131.46 27 96.1846 27C60.909 27 32.3105 55.5984 32.3105 91C32.3105 126.402 60.909 155 96.1846 155Z" fill="white" stroke="#D6DCE8" stroke-width="2" stroke-miterlimit="10"/>
<path d="M167.368 64.6666C170.221 64.6666 172.533 62.354 172.533 59.5013C172.533 56.6485 170.221 54.3359 167.368 54.3359C164.515 54.3359 162.203 56.6485 162.203 59.5013C162.203 62.354 164.515 64.6666 167.368 64.6666Z" fill="#F1F3F9"/>
<path d="M174.924 44.3832C176.872 44.3832 178.451 42.8039 178.451 40.8557C178.451 38.9075 176.872 37.3281 174.924 37.3281C172.975 37.3281 171.396 38.9075 171.396 40.8557C171.396 42.8039 172.975 44.3832 174.924 44.3832Z" fill="#F1F3F9"/>
<path d="M28.0276 68.3207C29.9758 68.3207 31.5551 66.7414 31.5551 64.7932C31.5551 62.845 29.9758 61.2656 28.0276 61.2656C26.0793 61.2656 24.5 62.845 24.5 64.7932C24.5 66.7414 26.0793 68.3207 28.0276 68.3207Z" fill="#F1F3F9"/>
<path d="M34.5795 145.048C38.1976 145.048 41.1307 142.115 41.1307 138.496C41.1307 134.878 38.1976 131.945 34.5795 131.945C30.9614 131.945 28.0283 134.878 28.0283 138.496C28.0283 142.115 30.9614 145.048 34.5795 145.048Z" fill="#F1F3F9"/>
<path d="M146.979 131.403H45.646C39.4807 131.403 34.5801 126.502 34.5801 120.337V62.0035C34.5801 55.8381 39.4807 50.9375 45.646 50.9375H146.979C153.144 50.9375 158.045 55.8381 158.045 62.0035V120.337C158.045 126.502 153.144 131.403 146.979 131.403Z" fill="#EBEFF7" stroke="#A5A8B8" stroke-width="2" stroke-miterlimit="10"/>
<path d="M65.8836 113.223H49.7589C48.3361 113.223 47.2295 112.116 47.2295 110.693C47.2295 109.271 48.3361 108.164 49.7589 108.164H65.8836C67.3063 108.164 68.4129 109.271 68.4129 110.693C68.4129 112.116 67.3063 113.223 65.8836 113.223Z" fill="#D6DCE8"/>
<path d="M91.9651 113.223H75.8404C74.4176 113.223 73.311 112.116 73.311 110.693C73.311 109.271 74.4176 108.164 75.8404 108.164H91.9651C93.3879 108.164 94.4945 109.271 94.4945 110.693C94.4945 112.116 93.3879 113.223 91.9651 113.223Z" fill="#D6DCE8"/>
<path d="M118.051 113.223H101.926C100.503 113.223 99.3965 112.116 99.3965 110.693C99.3965 109.271 100.503 108.164 101.926 108.164H118.051C119.473 108.164 120.58 109.271 120.58 110.693C120.58 112.116 119.473 113.223 118.051 113.223Z" fill="#D6DCE8"/>
<path d="M144.134 113.223H128.009C126.586 113.223 125.479 112.116 125.479 110.693C125.479 109.271 126.586 108.164 128.009 108.164H144.134C145.556 108.164 146.663 109.271 146.663 110.693C146.663 112.116 145.556 113.223 144.134 113.223Z" fill="#D6DCE8"/>
<path d="M138.285 82.8687C143.523 82.8687 147.77 78.622 147.77 73.3836C147.77 68.1451 143.523 63.8984 138.285 63.8984C133.046 63.8984 128.8 68.1451 128.8 73.3836C128.8 78.622 133.046 82.8687 138.285 82.8687Z" fill="#AAB2C5"/>
<path d="M125.796 82.8687C131.035 82.8687 135.281 78.622 135.281 73.3836C135.281 68.1451 131.035 63.8984 125.796 63.8984C120.558 63.8984 116.311 68.1451 116.311 73.3836C116.311 78.622 120.558 82.8687 125.796 82.8687Z" fill="#7F879A"/>
<path d="M67.3063 85.8747H49.6008C48.3361 85.8747 47.2295 84.7681 47.2295 83.5034V72.1213C47.2295 70.8566 48.3361 69.75 49.6008 69.75H67.1482C68.4129 69.75 69.5195 70.8566 69.5195 72.1213V83.5034C69.6776 84.7681 68.571 85.8747 67.3063 85.8747Z" fill="#D6DCE8"/>
<path d="M167.762 132.38C167.258 134.521 166.502 136.789 165.62 138.679C163.227 143.34 159.447 146.994 154.786 149.388C149.998 151.781 144.329 152.789 138.66 151.529C125.305 148.758 116.738 135.655 119.51 122.301C122.282 108.947 135.258 100.254 148.612 103.151C153.4 104.159 157.557 106.553 161.085 109.829C167.006 115.75 169.526 124.317 167.762 132.38Z" fill="white" stroke="#D6DCE8" stroke-width="2" stroke-miterlimit="10"/>
<path d="M151.444 119.596C152.752 120.905 152.608 122.875 151.444 124.039L148.142 127.341L151.444 130.642C152.609 131.807 152.751 133.778 151.443 135.086C150.135 136.394 148.165 136.251 147 135.086L143.699 131.784L140.397 135.086C139.089 136.394 137.119 136.25 135.954 135.086C134.646 133.778 134.789 131.807 135.954 130.642L139.255 127.341L135.954 124.039C135.339 123.425 134.993 122.642 134.993 121.818C134.993 120.994 135.339 120.211 135.954 119.596C137.262 118.288 139.232 118.431 140.397 119.596L143.699 122.897L147 119.596C148.308 118.288 150.279 118.432 151.444 119.596Z" fill="#AAB2C5" stroke="white" stroke-width="2"/>
</svg>
