<svg width="202" height="182" viewBox="0 0 202 182" fill="none" xmlns="http://www.w3.org/2000/svg">
<path d="M103.811 160.868C139.918 160.868 169.19 131.595 169.19 95.3596C169.19 59.1239 139.918 29.8516 103.811 29.8516C67.7044 29.8516 38.4321 59.1239 38.4321 95.3596C38.4321 131.595 67.7044 160.868 103.811 160.868Z" fill="#F1F3F9" stroke="#A5A8B8" stroke-width="2" stroke-miterlimit="10"/>
<path d="M176.668 68.4101C179.588 68.4101 181.955 66.043 181.955 63.123C181.955 60.203 179.588 57.8359 176.668 57.8359C173.748 57.8359 171.381 60.203 171.381 63.123C171.381 66.043 173.748 68.4101 176.668 68.4101Z" fill="#FF6237"/>
<path d="M184.405 47.651C186.399 47.651 188.016 46.0345 188.016 44.0404C188.016 42.0462 186.399 40.4297 184.405 40.4297C182.411 40.4297 180.794 42.0462 180.794 44.0404C180.794 46.0345 182.411 47.651 184.405 47.651Z" fill="#FF6237"/>
<path d="M34.0467 72.151C36.0408 72.151 37.6574 70.5345 37.6574 68.5404C37.6574 66.5462 36.0408 64.9297 34.0467 64.9297C32.0526 64.9297 30.436 66.5462 30.436 68.5404C30.436 70.5345 32.0526 72.151 34.0467 72.151Z" fill="#005E15"/>
<path d="M40.7519 150.685C44.4553 150.685 47.4575 147.682 47.4575 143.979C47.4575 140.276 44.4553 137.273 40.7519 137.273C37.0486 137.273 34.0464 140.276 34.0464 143.979C34.0464 147.682 37.0486 150.685 40.7519 150.685Z" fill="#005E15"/>
<path d="M167.221 91.3475L85.6564 155.419C80.6938 159.318 73.6506 158.472 69.7523 153.509L32.8685 106.556C28.9702 101.593 29.8162 94.5498 34.7787 90.6515L116.343 26.5796C121.305 22.6814 128.349 23.5273 132.247 28.4899L169.131 75.4434C173.029 80.4059 172.183 87.4492 167.221 91.3475Z" fill="white" stroke="#FF5524" stroke-width="2" stroke-miterlimit="10"/>
<path d="M173.891 119.466L75.6594 152.758C69.6827 154.784 63.3219 151.643 61.2964 145.667L42.1313 89.118C40.1057 83.1413 43.2463 76.7805 49.223 74.755L147.455 41.4628C153.432 39.4372 159.793 42.5778 161.818 48.5545L180.983 105.103C183.009 111.08 179.868 117.441 173.891 119.466Z" fill="white" stroke="#1C1D23" stroke-width="2" stroke-miterlimit="10"/>
<path d="M89.3015 128.486L73.6701 133.784C72.2909 134.251 70.8546 133.542 70.3872 132.163C69.9197 130.784 70.6289 129.347 72.0081 128.88L87.6394 123.582C89.0187 123.115 90.455 123.824 90.9224 125.203C91.3899 126.582 90.6807 128.019 89.3015 128.486Z" fill="#D6DCE8"/>
<path d="M114.588 119.916L98.9563 125.214C97.577 125.681 96.1407 124.972 95.6733 123.593C95.2058 122.213 95.915 120.777 97.2943 120.31L112.926 115.012C114.305 114.545 115.741 115.254 116.209 116.633C116.676 118.012 115.967 119.448 114.588 119.916Z" fill="#D6DCE8"/>
<path d="M139.875 111.346L124.243 116.643C122.864 117.111 121.428 116.402 120.96 115.022C120.493 113.643 121.202 112.207 122.581 111.739L138.213 106.442C139.592 105.974 141.028 106.683 141.496 108.063C141.963 109.442 141.254 110.878 139.875 111.346Z" fill="#D6DCE8"/>
<path d="M165.16 102.775L149.529 108.073C148.149 108.54 146.713 107.831 146.246 106.452C145.778 105.073 146.487 103.636 147.867 103.169L163.498 97.8713C164.877 97.4039 166.313 98.1131 166.781 99.4923C167.248 100.872 166.539 102.308 165.16 102.775Z" fill="#D6DCE8"/>
<path d="M149.518 75.2735C154.596 73.5524 157.317 68.0405 155.596 62.9623C153.875 57.8841 148.363 55.1627 143.285 56.8837C138.207 58.6048 135.486 64.1167 137.207 69.1949C138.928 74.2731 144.44 76.9946 149.518 75.2735Z" fill="#AAB2C5"/>
<path d="M137.41 79.3829C142.489 77.6618 145.21 72.1499 143.489 67.0717C141.768 61.9935 136.256 59.272 131.178 60.9931C126.1 62.7142 123.378 68.2261 125.099 73.3043C126.82 78.3825 132.332 81.104 137.41 79.3829Z" fill="#FF5524"/>
<path d="M81.6953 101.512L64.5315 107.329C63.3055 107.744 61.8692 107.035 61.4537 105.809L57.7141 94.7753C57.2986 93.5493 58.0078 92.113 59.2338 91.6975L76.2443 85.9324C77.4703 85.5169 78.9066 86.2261 79.3221 87.452L83.0617 98.4859C83.6304 99.66 82.9212 101.096 81.6953 101.512Z" fill="#D6DCE8"/>
<path d="M177.073 137.714C176.557 139.907 175.783 142.228 174.881 144.162C172.431 148.933 168.562 152.673 163.791 155.123C158.891 157.573 153.088 158.605 147.285 157.315C133.616 154.478 124.847 141.067 127.684 127.398C130.521 113.729 143.803 104.831 157.472 107.797C162.372 108.829 166.628 111.279 170.238 114.632C176.299 120.693 178.878 129.461 177.073 137.714Z" fill="white" stroke="#1C1D23" stroke-width="2" stroke-miterlimit="10"/>
<path d="M148.584 142.374C148.037 142.374 147.523 142.173 147.105 141.738L139.998 134.338C139.194 133.5 139.194 132.094 139.998 131.257C140.802 130.42 142.152 130.42 142.956 131.257L148.584 137.117L161.833 123.354C162.637 122.517 163.987 122.517 164.791 123.354C165.595 124.192 165.595 125.598 164.791 126.435L150.063 141.738C149.677 142.173 149.131 142.374 148.584 142.374Z" fill="#FF5524"/>
</svg>
