<svg width="18" height="18" viewBox="0 0 18 18" fill="none" xmlns="http://www.w3.org/2000/svg">
<path d="M15.6749 8.19358C15.8526 8.41507 15.9509 8.70282 15.9509 9.00118C15.9509 9.29954 15.8526 9.58729 15.6749 9.80878C14.5499 11.1709 11.9892 13.8227 8.99987 13.8227C6.01058 13.8227 3.44987 11.1709 2.32487 9.80878C2.14718 9.58729 2.04883 9.29954 2.04883 9.00118C2.04883 8.70282 2.14718 8.41507 2.32487 8.19358C3.44987 6.83151 6.01058 4.17969 8.99987 4.17969C11.9892 4.17969 14.5499 6.83151 15.6749 8.19358Z" stroke="#FF5524" stroke-linecap="round" stroke-linejoin="round"/>
<path d="M9.00028 11.1451C10.1837 11.1451 11.1431 10.1857 11.1431 9.00223C11.1431 7.81876 10.1837 6.85938 9.00028 6.85938C7.81681 6.85938 6.85742 7.81876 6.85742 9.00223C6.85742 10.1857 7.81681 11.1451 9.00028 11.1451Z" stroke="#FF5524" stroke-linecap="round" stroke-linejoin="round"/>
</svg>
