<svg width="45" height="30" viewBox="0 0 45 30" fill="none" xmlns="http://www.w3.org/2000/svg">
<g clip-path="url(#clip0_3292_4891)">
<rect x="0.5" width="44" height="30" rx="4" fill="#1C1D23"/>
<path d="M35.6035 11.1406L24.0724 22.6717C21.6074 25.1367 21.6074 29.1393 24.0724 31.6043C26.5374 34.0693 30.54 34.0693 33.005 31.6043L44.5361 20.0732L35.6035 11.1406Z" fill="url(#paint0_linear_3292_4891)"/>
<path d="M34.4937 -5.63281L22.9626 5.89827C20.4976 8.36327 20.4976 12.3658 22.9626 14.8308C25.4276 17.2958 29.4301 17.2958 31.8951 14.8308L43.4262 3.29974L34.4937 -5.63281Z" fill="url(#paint1_linear_3292_4891)"/>
<path d="M36.9258 36.0703L48.4569 24.5392C50.9219 22.0742 50.9219 18.0717 48.4569 15.6067C45.9919 13.1417 41.9893 13.1417 39.5243 15.6067L27.9932 27.1378L36.9258 36.0703Z" fill="url(#paint2_linear_3292_4891)"/>
<path d="M36.3433 18.8281L47.8743 7.29704C50.3393 4.83204 50.3393 0.829497 47.8743 -1.63551C45.4093 -4.10051 41.4068 -4.10052 38.9418 -1.63551L27.4107 9.89557L36.3433 18.8281Z" fill="url(#paint3_linear_3292_4891)"/>
<circle cx="8.5" cy="8" r="4" fill="#FF5524"/>
</g>
<defs>
<linearGradient id="paint0_linear_3292_4891" x1="40.0698" y1="15.6069" x2="24.0724" y2="31.6043" gradientUnits="userSpaceOnUse">
<stop stop-color="white" stop-opacity="0"/>
<stop offset="1" stop-color="white" stop-opacity="0.5"/>
</linearGradient>
<linearGradient id="paint1_linear_3292_4891" x1="38.9599" y1="-1.16654" x2="22.9626" y2="14.8308" gradientUnits="userSpaceOnUse">
<stop stop-color="white" stop-opacity="0"/>
<stop offset="1" stop-color="white" stop-opacity="0.5"/>
</linearGradient>
<linearGradient id="paint2_linear_3292_4891" x1="32.4595" y1="31.604" x2="48.4569" y2="15.6067" gradientUnits="userSpaceOnUse">
<stop stop-color="white" stop-opacity="0"/>
<stop offset="1" stop-color="white" stop-opacity="0.5"/>
</linearGradient>
<linearGradient id="paint3_linear_3292_4891" x1="31.877" y1="14.3618" x2="47.8743" y2="-1.63551" gradientUnits="userSpaceOnUse">
<stop stop-color="white" stop-opacity="0"/>
<stop offset="1" stop-color="white" stop-opacity="0.5"/>
</linearGradient>
<clipPath id="clip0_3292_4891">
<rect x="0.5" width="44" height="30" rx="4" fill="white"/>
</clipPath>
</defs>
</svg>
