<svg width="202" height="182" viewBox="0 0 202 182" fill="none" xmlns="http://www.w3.org/2000/svg">
<path d="M107.744 157C143.846 157 173.115 127.731 173.115 91.5C173.115 55.2687 143.846 26 107.744 26C71.6415 26 42.3728 55.2687 42.3728 91.5C42.3728 127.731 71.6415 157 107.744 157Z" fill="#F1F3F9" stroke="#A5A8B8" stroke-width="2" stroke-miterlimit="10"/>
<path d="M180.593 64.5494C183.513 64.5494 185.879 62.1826 185.879 59.263C185.879 56.3434 183.513 53.9766 180.593 53.9766C177.673 53.9766 175.307 56.3434 175.307 59.263C175.307 62.1826 177.673 64.5494 180.593 64.5494Z" fill="#FF6237"/>
<path d="M188.328 43.7908C190.322 43.7908 191.938 42.1744 191.938 40.1805C191.938 38.1867 190.322 36.5703 188.328 36.5703C186.334 36.5703 184.718 38.1867 184.718 40.1805C184.718 42.1744 186.334 43.7908 188.328 43.7908Z" fill="#FF6237"/>
<path d="M13.6102 95.2205C15.6041 95.2205 17.2205 93.6041 17.2205 91.6102C17.2205 89.6164 15.6041 88 13.6102 88C11.6164 88 10 89.6164 10 91.6102C10 93.6041 11.6164 95.2205 13.6102 95.2205Z" fill="#005E15"/>
<path d="M48.7047 154.409C52.4076 154.409 55.4094 151.408 55.4094 147.705C55.4094 144.002 52.4076 141 48.7047 141C45.0018 141 42 144.002 42 147.705C42 151.408 45.0018 154.409 48.7047 154.409Z" fill="#005E15"/>
<path d="M146.292 50.429V108.709C146.292 112.203 143.357 115.138 139.863 115.138H43.429C39.935 115.138 37 112.343 37 108.709V50.429C37 46.935 39.935 44 43.429 44H139.863C143.357 44 146.292 46.935 146.292 50.429Z" fill="white" stroke="#FF5524" stroke-width="2" stroke-miterlimit="10"/>
<path d="M169.61 144.482H80.0234C74.5728 144.482 70.2402 140.149 70.2402 134.698V83.127C70.2402 77.6763 74.5728 73.3438 80.0234 73.3438H169.61C175.06 73.3438 179.393 77.6763 179.393 83.127V134.698C179.393 140.149 175.06 144.482 169.61 144.482Z" fill="white" stroke="#1C1D23" stroke-width="2" stroke-miterlimit="10"/>
<path d="M97.9136 128.41H83.658C82.4002 128.41 81.4219 127.431 81.4219 126.174C81.4219 124.916 82.4002 123.938 83.658 123.938H97.9136C99.1714 123.938 100.15 124.916 100.15 126.174C100.15 127.431 99.1714 128.41 97.9136 128.41Z" fill="#D6DCE8"/>
<path d="M120.973 128.41H106.718C105.46 128.41 104.481 127.431 104.481 126.174C104.481 124.916 105.46 123.938 106.718 123.938H120.973C122.231 123.938 123.209 124.916 123.209 126.174C123.209 127.431 122.231 128.41 120.973 128.41Z" fill="#D6DCE8"/>
<path d="M144.034 128.41H129.778C128.52 128.41 127.542 127.431 127.542 126.174C127.542 124.916 128.52 123.938 129.778 123.938H144.034C145.292 123.938 146.27 124.916 146.27 126.174C146.27 127.431 145.292 128.41 144.034 128.41Z" fill="#D6DCE8"/>
<path d="M167.094 128.41H152.839C151.581 128.41 150.603 127.431 150.603 126.174C150.603 124.916 151.581 123.938 152.839 123.938H167.094C168.352 123.938 169.33 124.916 169.33 126.174C169.33 127.431 168.352 128.41 167.094 128.41Z" fill="#D6DCE8"/>
<path d="M161.92 101.584C166.551 101.584 170.306 97.8293 170.306 93.1981C170.306 88.5669 166.551 84.8125 161.92 84.8125C157.289 84.8125 153.534 88.5669 153.534 93.1981C153.534 97.8293 157.289 101.584 161.92 101.584Z" fill="#AAB2C5"/>
<path d="M150.88 101.584C155.511 101.584 159.265 97.8293 159.265 93.1981C159.265 88.5669 155.511 84.8125 150.88 84.8125C146.249 84.8125 142.494 88.5669 142.494 93.1981C142.494 97.8293 146.249 101.584 150.88 101.584Z" fill="#FF6237"/>
<path d="M146.291 55.875H37.1387V69.5715H146.291V55.875Z" fill="#FF5524"/>
<path d="M99.1045 102.98H84.6635C83.6321 102.98 82.7295 102.077 82.7295 101.046V91.7622C82.7295 90.7307 83.6321 89.8281 84.6635 89.8281H98.9756C100.007 89.8281 100.91 90.7307 100.91 91.7622V101.046C101.039 102.077 100.136 102.98 99.1045 102.98Z" fill="#D6DCE8"/>
</svg>
