<svg width="44" height="44" viewBox="0 0 44 44" fill="none" xmlns="http://www.w3.org/2000/svg">
<rect width="44" height="44" rx="22" fill="#F0F2F5"/>
<path d="M23.9301 19.5799C23.8569 19.3729 23.744 19.1846 23.6005 19.0243C23.2953 18.6833 22.8518 18.4688 22.3582 18.4688H21.0682C20.2465 18.4688 19.5804 19.1348 19.5804 19.9565C19.5804 20.6556 20.0673 21.2604 20.7502 21.4098L22.7144 21.8395C23.4795 22.0069 24.0249 22.6849 24.0249 23.4682C24.0249 24.3886 23.2787 25.1355 22.3582 25.1355H21.2471C20.5214 25.1355 19.9041 24.6717 19.6753 24.0243" stroke="#1C1D23" stroke-linecap="round" stroke-linejoin="round"/>
<path d="M21.8027 18.4714V16.8047" stroke="#1C1D23" stroke-linecap="round" stroke-linejoin="round"/>
<path d="M21.8027 26.7995V25.1328" stroke="#1C1D23" stroke-linecap="round" stroke-linejoin="round"/>
<path d="M14.8549 31.2824V27.7109H18.4263" stroke="#1C1D23" stroke-linecap="round" stroke-linejoin="round"/>
<path d="M31.1257 20.2891C32.0144 25.0147 29.1225 29.6996 24.401 30.9647C20.7874 31.933 17.1002 30.6305 14.8546 27.932" stroke="#1C1D23" stroke-linecap="round" stroke-linejoin="round"/>
<path d="M12.8743 23.7053C11.9856 18.9797 14.8775 14.2948 19.599 13.0296C23.2124 12.0614 26.8993 13.3637 29.1449 16.0619" stroke="#1C1D23" stroke-linecap="round" stroke-linejoin="round"/>
<path d="M29.145 12.7188V16.2902H25.5735" stroke="#1C1D23" stroke-linecap="round" stroke-linejoin="round"/>
</svg>