<svg width="178" height="162" viewBox="0 0 178 162" fill="none" xmlns="http://www.w3.org/2000/svg">
<path d="M91.8115 150.872C127.918 150.872 157.191 121.599 157.191 85.3635C157.191 49.1278 127.918 19.8555 91.8115 19.8555C55.7047 19.8555 26.4324 49.1278 26.4324 85.3635C26.4324 121.599 55.7047 150.872 91.8115 150.872Z" fill="#F1F3F9" stroke="#A5A8B8" stroke-width="2" stroke-miterlimit="10"/>
<path d="M164.669 58.4101C167.589 58.4101 169.956 56.043 169.956 53.123C169.956 50.203 167.589 47.8359 164.669 47.8359C161.749 47.8359 159.382 50.203 159.382 53.123C159.382 56.043 161.749 58.4101 164.669 58.4101Z" fill="#FF6237"/>
<path d="M172.405 37.6471C174.399 37.6471 176.016 36.0306 176.016 34.0365C176.016 32.0423 174.399 30.4258 172.405 30.4258C170.411 30.4258 168.795 32.0423 168.795 34.0365C168.795 36.0306 170.411 37.6471 172.405 37.6471Z" fill="#FF6237"/>
<path d="M22.047 62.151C24.0411 62.151 25.6576 60.5345 25.6576 58.5404C25.6576 56.5462 24.0411 54.9297 22.047 54.9297C20.0528 54.9297 18.4363 56.5462 18.4363 58.5404C18.4363 60.5345 20.0528 62.151 22.047 62.151Z" fill="#005E15"/>
<path d="M28.7522 140.681C32.4556 140.681 35.4577 137.678 35.4577 133.975C35.4577 130.272 32.4556 127.27 28.7522 127.27C25.0488 127.27 22.0466 130.272 22.0466 133.975C22.0466 137.678 25.0488 140.681 28.7522 140.681Z" fill="#005E15"/>
<path d="M155.221 81.3475L73.6567 145.419C68.6941 149.318 61.6509 148.472 57.7526 143.509L20.8688 96.5556C16.9705 91.593 17.8164 84.5498 22.779 80.6515L104.343 16.5796C109.306 12.6814 116.349 13.5273 120.247 18.4899L157.131 65.4434C161.029 70.4059 160.183 77.4492 155.221 81.3475Z" fill="white" stroke="#FF5524" stroke-width="2" stroke-miterlimit="10"/>
<path d="M161.892 109.466L63.6596 142.758C57.6829 144.784 51.3222 141.643 49.2966 135.667L30.1315 79.118C28.1059 73.1413 31.2465 66.7805 37.2232 64.755L135.455 31.4628C141.432 29.4372 147.793 32.5778 149.818 38.5545L168.983 95.1031C171.009 101.08 167.868 107.441 161.892 109.466Z" fill="white" stroke="#1C1D23" stroke-width="2" stroke-miterlimit="10"/>
<path d="M77.3017 118.49L61.6704 123.788C60.2911 124.255 58.8548 123.546 58.3874 122.167C57.92 120.788 58.6291 119.351 60.0084 118.884L75.6397 113.586C77.0189 113.119 78.4552 113.828 78.9227 115.207C79.3901 116.586 78.6809 118.023 77.3017 118.49Z" fill="#D6DCE8"/>
<path d="M102.588 109.92L86.9565 115.217C85.5773 115.685 84.141 114.976 83.6735 113.597C83.2061 112.217 83.9153 110.781 85.2945 110.314L100.926 105.016C102.305 104.548 103.741 105.258 104.209 106.637C104.676 108.016 103.967 109.452 102.588 109.92Z" fill="#D6DCE8"/>
<path d="M127.875 101.349L112.244 106.647C110.864 107.115 109.428 106.405 108.961 105.026C108.493 103.647 109.202 102.211 110.582 101.743L126.213 96.4455C127.592 95.9781 129.028 96.6873 129.496 98.0665C129.963 99.4457 129.254 100.882 127.875 101.349Z" fill="#D6DCE8"/>
<path d="M153.16 92.7792L137.529 98.0768C136.15 98.5443 134.713 97.8351 134.246 96.4559C133.778 95.0766 134.488 93.6403 135.867 93.1729L151.498 87.8752C152.877 87.4078 154.314 88.117 154.781 89.4962C155.249 90.8754 154.539 92.3117 153.16 92.7792Z" fill="#D6DCE8"/>
<path d="M137.518 65.2774C142.596 63.5563 145.318 58.0444 143.597 52.9662C141.876 47.888 136.364 45.1666 131.285 46.8876C126.207 48.6087 123.486 54.1206 125.207 59.1988C126.928 64.277 132.44 66.9985 137.518 65.2774Z" fill="#AAB2C5"/>
<path d="M125.411 69.379C130.489 67.6579 133.21 62.146 131.489 57.0678C129.768 51.9896 124.256 49.2681 119.178 50.9892C114.1 52.7103 111.378 58.2222 113.099 63.3004C114.821 68.3786 120.332 71.1001 125.411 69.379Z" fill="#FF5524"/>
<path d="M69.6955 91.5079L52.5317 97.3249C51.3057 97.7404 49.8694 97.0312 49.4539 95.8053L45.7144 84.7714C45.2989 83.5454 46.008 82.1091 47.234 81.6936L64.2446 75.9285C65.4706 75.513 66.9069 76.2221 67.3224 77.4481L71.0619 88.482C71.6306 89.6561 70.9215 91.0924 69.6955 91.5079Z" fill="#D6DCE8"/>
<path d="M165.073 127.714C164.557 129.907 163.784 132.228 162.881 134.162C160.431 138.933 156.562 142.673 151.791 145.123C146.891 147.573 141.088 148.605 135.285 147.315C121.616 144.478 112.847 131.067 115.684 117.398C118.521 103.729 131.803 94.8314 145.472 97.7974C150.372 98.829 154.628 101.279 158.239 104.632C164.299 110.693 166.878 119.461 165.073 127.714Z" fill="white" stroke="#1C1D23" stroke-width="2" stroke-miterlimit="10"/>
<path d="M136.584 132.374C136.037 132.374 135.523 132.173 135.105 131.738L127.998 124.338C127.194 123.5 127.194 122.094 127.998 121.257C128.802 120.42 130.153 120.42 130.957 121.257L136.584 127.117L149.833 113.354C150.637 112.517 151.987 112.517 152.791 113.354C153.595 114.192 153.595 115.598 152.791 116.435L138.063 131.738C137.677 132.173 137.131 132.374 136.584 132.374Z" fill="#FF5524"/>
</svg>
