<svg width="44" height="44" viewBox="0 0 44 44" fill="none" xmlns="http://www.w3.org/2000/svg">
<rect width="44" height="44" rx="22" fill="#F0F2F5"/>
<path d="M31.2457 20.5352H26.7772C26.3827 20.5352 26.0629 20.855 26.0629 21.2494V24.1066C26.0629 24.5011 26.3827 24.8209 26.7772 24.8209H31.2457C31.6401 24.8209 31.9599 24.5011 31.9599 24.1066V21.2494C31.9599 20.855 31.6401 20.5352 31.2457 20.5352Z" stroke="#1C1D23" stroke-linecap="round" stroke-linejoin="round"/>
<path d="M29.7495 20.5437V18.082C29.7495 16.9775 28.8541 16.082 27.7495 16.082H20.3642M29.7495 24.9087V27.2737C29.7495 28.3783 28.8541 29.2737 27.7495 29.2737H14.6191C13.5146 29.2737 12.6191 28.3783 12.6191 27.2737V23.2474" stroke="#1C1D23" stroke-linecap="round" stroke-linejoin="round"/>
<path d="M16.0503 14.9846L16.0503 22.457" stroke="#1C1D23" stroke-linecap="round" stroke-linejoin="round"/>
<path d="M19.042 19.4652L16.0502 22.457L13.0583 19.4652" stroke="#1C1D23" stroke-linecap="round" stroke-linejoin="round"/>
</svg>
