<svg width="44" height="44" viewBox="0 0 44 44" fill="none" xmlns="http://www.w3.org/2000/svg">
<rect width="44" height="44" rx="22" fill="#F0F2F5"/>
<path d="M31.274 20.5352H26.7448C26.3503 20.5352 26.0305 20.855 26.0305 21.2494V24.1066C26.0305 24.5011 26.3503 24.8209 26.7448 24.8209H31.274C31.6685 24.8209 31.9883 24.5011 31.9883 24.1066V21.2494C31.9883 20.855 31.6685 20.5352 31.274 20.5352Z" stroke="#1C1D23" stroke-linecap="round" stroke-linejoin="round"/>
<path d="M29.7495 20.5437V18.082C29.7495 16.9775 28.8541 16.082 27.7495 16.082H20.3642M29.7495 24.9087V27.2737C29.7495 28.3783 28.8541 29.2737 27.7495 29.2737H14.6191C13.5146 29.2737 12.6191 28.3783 12.6191 27.2737V20.0309" stroke="#1C1D23" stroke-linecap="round" stroke-linejoin="round"/>
<path d="M15.9126 22.199L15.9126 14.7266" stroke="#1C1D23" stroke-linecap="round" stroke-linejoin="round"/>
<path d="M18.9043 17.7184L15.9125 14.7266L12.9207 17.7184" stroke="#1C1D23" stroke-linecap="round" stroke-linejoin="round"/>
</svg>
