<svg width="18" height="18" viewBox="0 0 18 18" fill="none" xmlns="http://www.w3.org/2000/svg">
<path d="M13.2859 7.39453H4.71449C4.12276 7.39453 3.64307 7.87423 3.64307 8.46596V14.8945C3.64307 15.4863 4.12276 15.966 4.71449 15.966H13.2859C13.8777 15.966 14.3574 15.4863 14.3574 14.8945V8.46596C14.3574 7.87423 13.8777 7.39453 13.2859 7.39453Z" stroke="#FF5524" stroke-linecap="round" stroke-linejoin="round"/>
<path d="M12.75 7.3923V5.78516C12.75 4.79059 12.3549 3.83677 11.6517 3.13351C10.9484 2.43024 9.99456 2.03516 9 2.03516C8.00544 2.03516 7.05161 2.43024 6.34835 3.13351C5.64509 3.83677 5.25 4.79059 5.25 5.78516V7.3923" stroke="#FF5524" stroke-linecap="round" stroke-linejoin="round"/>
<path d="M9.00007 12.216C9.29594 12.216 9.53578 11.9761 9.53578 11.6802C9.53578 11.3844 9.29594 11.1445 9.00007 11.1445C8.7042 11.1445 8.46436 11.3844 8.46436 11.6802C8.46436 11.9761 8.7042 12.216 9.00007 12.216Z" stroke="#FF5524" stroke-linecap="round" stroke-linejoin="round"/>
</svg>
