<svg width="18" height="18" viewBox="0 0 18 18" fill="none" xmlns="http://www.w3.org/2000/svg">
<path d="M8.99986 10.072C10.4792 10.072 11.6784 8.87275 11.6784 7.39341C11.6784 5.91408 10.4792 4.71484 8.99986 4.71484C7.52053 4.71484 6.32129 5.91408 6.32129 7.39341C6.32129 8.87275 7.52053 10.072 8.99986 10.072Z" stroke="#FF5524" stroke-linecap="round" stroke-linejoin="round"/>
<path d="M4.4248 14.2497C4.90292 13.4649 5.57488 12.8162 6.3761 12.3662C7.17731 11.9161 8.08083 11.6797 8.99981 11.6797C9.91878 11.6797 10.8223 11.9161 11.6235 12.3662C12.4247 12.8162 13.0967 13.4649 13.5748 14.2497" stroke="#FF5524" stroke-linecap="round" stroke-linejoin="round"/>
<path d="M8.99993 15.9637C12.8462 15.9637 15.9642 12.8457 15.9642 8.99944C15.9642 5.15317 12.8462 2.03516 8.99993 2.03516C5.15366 2.03516 2.03564 5.15317 2.03564 8.99944C2.03564 12.8457 5.15366 15.9637 8.99993 15.9637Z" stroke="#FF5524" stroke-linecap="round" stroke-linejoin="round"/>
</svg>
