<svg width="18" height="18" viewBox="0 0 18 18" fill="none" xmlns="http://www.w3.org/2000/svg">
<path d="M11.6785 12.7494V14.8923C11.6785 15.1765 11.5656 15.449 11.3647 15.6499C11.1638 15.8508 10.8912 15.9637 10.6071 15.9637H3.10707C2.82291 15.9637 2.55039 15.8508 2.34946 15.6499C2.14853 15.449 2.03564 15.1765 2.03564 14.8923V3.10658C2.03564 2.82242 2.14853 2.5499 2.34946 2.34897C2.55039 2.14804 2.82291 2.03516 3.10707 2.03516H10.6071C10.8912 2.03516 11.1638 2.14804 11.3647 2.34897C11.5656 2.5499 11.6785 2.82242 11.6785 3.10658V5.24944" stroke="#7A7D89" stroke-linecap="round" stroke-linejoin="round"/>
<path d="M8.46436 9H15.9644" stroke="#7A7D89" stroke-linecap="round" stroke-linejoin="round"/>
<path d="M13.8213 6.85547L15.9641 8.99833L13.8213 11.1412" stroke="#7A7D89" stroke-linecap="round" stroke-linejoin="round"/>
</svg>
