<svg width="24" height="24" viewBox="0 0 24 24" fill="none" xmlns="http://www.w3.org/2000/svg">
<g id="Withdraw">
<path id="Vector" d="M21.2458 10.5352H16.7773C16.3828 10.5352 16.063 10.855 16.063 11.2494V14.1066C16.063 14.5011 16.3828 14.8209 16.7773 14.8209H21.2458C21.6403 14.8209 21.9601 14.5011 21.9601 14.1066V11.2494C21.9601 10.855 21.6403 10.5352 21.2458 10.5352Z" stroke="#1C1D23" stroke-linecap="round" stroke-linejoin="round"/>
<path id="Rectangle 3467754" d="M19.7496 10.5437V8.08203C19.7496 6.97746 18.8542 6.08203 17.7496 6.08203H10.3643M19.7496 14.9087V17.2737C19.7496 18.3783 18.8542 19.2737 17.7496 19.2737H4.61926C3.51469 19.2737 2.61926 18.3783 2.61926 17.2737V13.2474" stroke="#1C1D23" stroke-linecap="round" stroke-linejoin="round"/>
<path id="Vector_2" d="M6.05029 4.98462L6.05029 12.457" stroke="#1C1D23" stroke-linecap="round" stroke-linejoin="round"/>
<path id="Vector_3" d="M9.04199 9.46521L6.05017 12.457L3.05835 9.46521" stroke="#1C1D23" stroke-linecap="round" stroke-linejoin="round"/>
</g>
</svg>
