<svg width="22" height="22" viewBox="0 0 22 22" fill="none" xmlns="http://www.w3.org/2000/svg">
<path d="M16.2381 9.04297H5.76192C5.03869 9.04297 4.45239 9.62926 4.45239 10.3525V18.2096C4.45239 18.9329 5.03869 19.5192 5.76192 19.5192H16.2381C16.9613 19.5192 17.5476 18.9329 17.5476 18.2096V10.3525C17.5476 9.62926 16.9613 9.04297 16.2381 9.04297Z" stroke="#5268E1" stroke-linecap="round" stroke-linejoin="round"/>
<path d="M15.5834 9.04371V7.07943C15.5834 5.86385 15.1005 4.69806 14.241 3.83852C13.3814 2.97898 12.2157 2.49609 11.0001 2.49609C9.78451 2.49609 8.61872 2.97898 7.75918 3.83852C6.89963 4.69806 6.41675 5.86385 6.41675 7.07943V9.04371" stroke="#5268E1" stroke-linecap="round" stroke-linejoin="round"/>
<path d="M11 14.9345C11.3616 14.9345 11.6547 14.6414 11.6547 14.2798C11.6547 13.9181 11.3616 13.625 11 13.625C10.6384 13.625 10.3452 13.9181 10.3452 14.2798C10.3452 14.6414 10.6384 14.9345 11 14.9345Z" stroke="#5268E1" stroke-linecap="round" stroke-linejoin="round"/>
</svg>
