<svg width="264" height="41" viewBox="0 0 264 41" fill="none" xmlns="http://www.w3.org/2000/svg">
<path d="M37.7132 30.7216C36.4408 33.4501 37.6213 36.6934 40.3498 37.9658C43.0784 39.2381 46.3217 38.0576 47.594 35.3291L59.4527 9.89821C60.725 7.16968 59.5445 3.92633 56.816 2.654C54.0875 1.38166 50.8441 2.56215 49.5718 5.29068L37.7132 30.7216Z" fill="url(#paint0_linear_3098_31802)"/>
<path d="M14.1368 30.6122C12.8644 33.3407 14.0449 36.5841 16.7734 37.8564C19.502 39.1287 22.7453 37.9482 24.0176 35.2197L35.7879 9.97829C37.0602 7.24976 35.8798 4.00642 33.1512 2.73408C30.4227 1.46175 27.1794 2.64223 25.907 5.37076L14.1368 30.6122Z" fill="url(#paint1_linear_3098_31802)"/>
<path d="M58.1834 16.7891H3.62344C1.63413 16.7891 0.0214844 18.4017 0.0214844 20.391C0.0214844 22.3803 1.63413 23.993 3.62344 23.993H58.1834C60.1727 23.993 61.7854 22.3803 61.7854 20.391C61.7854 18.4017 60.1727 16.7891 58.1834 16.7891Z" fill="url(#paint2_linear_3098_31802)"/>
<path d="M12.2674 5.37588C10.9951 2.64735 7.75173 1.46687 5.0232 2.7392C2.29467 4.01154 1.11419 7.25488 2.38653 9.98341L14.2417 35.407C15.5141 38.1355 18.7574 39.316 21.486 38.0437C24.2145 36.7713 25.395 33.528 24.1226 30.7995L12.2674 5.37588Z" fill="url(#paint3_linear_3098_31802)"/>
<path d="M35.7813 5.31338C34.509 2.58485 31.2657 1.40437 28.5371 2.6767C25.8086 3.94904 24.6281 7.19238 25.9004 9.92091L37.7862 35.4101C39.0586 38.1386 42.3019 39.3191 45.0305 38.0468C47.759 36.7744 48.9395 33.5311 47.6671 30.8026L35.7813 5.31338Z" fill="url(#paint4_linear_3098_31802)"/>
<path opacity="0.5" d="M17.5642 16.7891L20.925 23.993H32.4384L29.0776 16.7891H17.5642Z" fill="url(#paint5_linear_3098_31802)"/>
<path opacity="0.5" d="M3.62344 16.7861C2.66814 16.7861 1.75197 17.1656 1.07647 17.8411C0.400975 18.5166 0.0214844 19.4327 0.0214844 20.388C0.0236082 21.3427 0.403781 22.2576 1.07882 22.9326C1.75386 23.6077 2.66879 23.9879 3.62344 23.99H8.86557L5.50482 16.7539L3.62344 16.7861Z" fill="url(#paint6_linear_3098_31802)"/>
<path opacity="0.5" d="M58.1994 16.7891H41.1223L44.4831 24.0251H58.1994C58.6725 24.0251 59.1408 23.932 59.5779 23.751C60.0149 23.5699 60.4119 23.3046 60.7464 22.9702C61.0809 22.6357 61.3462 22.2386 61.5272 21.8016C61.7082 21.3646 61.8014 20.8962 61.8014 20.4232C61.8067 19.9472 61.7174 19.4749 61.5387 19.0336C61.36 18.5924 61.0954 18.1911 60.7603 17.853C60.4251 17.5149 60.0262 17.2468 59.5866 17.0641C59.147 16.8815 58.6755 16.788 58.1994 16.7891Z" fill="url(#paint7_linear_3098_31802)"/>
<path d="M85.6248 34.5669C85.5122 34.3739 85.3997 34.1729 85.2951 33.9719C85.1906 33.7709 85.1022 33.5538 85.0218 33.3528C83.5478 29.4614 82.0791 25.6075 80.6158 21.7912C79.1525 17.9748 77.6839 14.1236 76.2098 10.2376C76.2188 10.1844 76.2188 10.13 76.2098 10.0768C76.2015 10.0316 76.2015 9.98529 76.2098 9.94011C76.2098 9.62655 76.4269 9.46574 76.845 9.46574H82.3685C82.5688 9.45832 82.7658 9.51853 82.9277 9.63667C83.0896 9.75481 83.207 9.924 83.261 10.117L88.4629 25.7389L93.287 10.117C93.3482 9.9172 93.4754 9.74406 93.6477 9.62579C93.82 9.50752 94.0272 9.45111 94.2357 9.46574H99.8075C100.004 9.44417 100.201 9.49569 100.362 9.61047C100.417 9.65823 100.46 9.71786 100.487 9.78476C100.515 9.85166 100.527 9.92405 100.523 9.99639C100.534 10.0576 100.534 10.1201 100.523 10.1813V10.2376L97.4758 18.9772L99.7673 25.7228L105.347 10.117C105.407 9.91784 105.532 9.74491 105.703 9.62657C105.874 9.50823 106.08 9.45152 106.288 9.46574H111.691C111.887 9.44847 112.083 9.49961 112.245 9.61047C112.3 9.65823 112.343 9.71786 112.371 9.78476C112.399 9.85166 112.411 9.92405 112.406 9.99639C112.417 10.0576 112.417 10.1201 112.406 10.1813V10.2376C111.602 12.2476 110.798 14.2576 109.994 16.2516L107.582 22.2575C106.762 24.2568 105.958 26.2588 105.17 28.2634C104.382 30.2681 103.578 32.2835 102.758 34.3096C102.686 34.4703 102.579 34.6131 102.445 34.7277C102.369 34.8032 102.278 34.8627 102.179 34.9027C102.079 34.9428 101.973 34.9625 101.866 34.9608H97.6608C97.46 34.9744 97.26 34.9237 97.0899 34.8161C96.9562 34.7201 96.8552 34.5854 96.8005 34.4302L94.091 27.2665C93.7051 28.3036 93.287 29.3247 92.9493 30.3217C92.6116 31.3187 92.1935 32.3478 91.8156 33.385C91.7594 33.5458 91.695 33.7146 91.6146 33.8915C91.544 34.0665 91.455 34.2336 91.3493 34.39C91.2533 34.5371 91.1338 34.6675 90.9955 34.7759C90.8682 34.8785 90.7087 34.9326 90.5453 34.9287H86.3403C86.1985 34.9478 86.0541 34.9235 85.9264 34.8589C85.7986 34.7943 85.6934 34.6925 85.6248 34.5669Z" fill="#1C1D23"/>
<path d="M119.465 10.2503C119.451 10.0395 119.52 9.83157 119.658 9.67146C119.733 9.60002 119.821 9.54461 119.918 9.50866C120.015 9.4727 120.118 9.45697 120.221 9.46242H137.234C137.34 9.45575 137.447 9.47165 137.546 9.50906C137.646 9.54647 137.737 9.60455 137.813 9.6795C137.957 9.84626 138.032 10.0621 138.022 10.2825V14.5196C138.017 14.7228 137.943 14.9184 137.813 15.0744C137.741 15.1637 137.648 15.2344 137.544 15.2806C137.439 15.3268 137.324 15.347 137.21 15.3397H126.098V19.5929H134.677C134.868 19.5885 135.056 19.6417 135.216 19.7457C135.292 19.8067 135.351 19.8856 135.389 19.9755C135.427 20.0653 135.442 20.1632 135.433 20.2602V23.9667C135.427 24.1404 135.359 24.3062 135.24 24.433C135.171 24.5077 135.086 24.5659 134.991 24.6034C134.896 24.641 134.795 24.6569 134.693 24.6501H126.098V29.04H137.628C137.738 29.02 137.851 29.027 137.958 29.0603C138.064 29.0936 138.161 29.1523 138.24 29.2314C138.319 29.3104 138.378 29.4074 138.411 29.5141C138.445 29.6208 138.452 29.734 138.432 29.844V34.1535C138.431 34.211 138.418 34.2677 138.395 34.3202C138.371 34.3728 138.337 34.42 138.295 34.459C138.247 34.7806 138.014 34.9414 137.588 34.9414H120.221C120.021 34.9494 119.825 34.8868 119.666 34.7645C119.594 34.6911 119.538 34.6026 119.503 34.5054C119.469 34.4082 119.456 34.3045 119.465 34.2017V10.2503Z" fill="#1C1D23"/>
<path d="M154.832 10.1286C154.848 10.0445 154.887 9.96651 154.944 9.90345C155.012 9.81858 155.09 9.7429 155.178 9.67832C155.267 9.61233 155.364 9.55827 155.467 9.51752C155.559 9.48108 155.657 9.462 155.756 9.46124H160.146C160.329 9.45598 160.506 9.51906 160.645 9.63812C160.757 9.73196 160.859 9.83703 160.95 9.95169L161.384 10.9326L170.389 34.1523C170.436 34.2399 170.456 34.3395 170.446 34.4383C170.436 34.5372 170.397 34.6308 170.333 34.7071C170.247 34.7891 170.144 34.8511 170.032 34.8886C169.919 34.9262 169.8 34.9383 169.682 34.9242H164.761C164.548 34.9367 164.335 34.8864 164.15 34.7794C163.991 34.6552 163.875 34.4834 163.821 34.289C163.587 33.7101 163.362 33.1232 163.145 32.5523L162.494 30.8077H153.393C153.176 31.3946 152.95 31.9735 152.733 32.5523C152.516 33.1312 152.291 33.7101 152.074 34.289C152.023 34.4792 151.908 34.6461 151.748 34.7617C151.589 34.8773 151.394 34.9346 151.198 34.9242H146.14C145.944 34.9313 145.752 34.8718 145.594 34.7553C145.524 34.6911 145.479 34.6048 145.466 34.511C145.452 34.4172 145.472 34.3217 145.521 34.2408L154.832 10.1286ZM157.951 17.4692C157.734 18.048 157.517 18.6752 157.292 19.3505C157.067 20.0259 156.85 20.7093 156.633 21.3927C156.416 22.0761 156.199 22.7595 155.974 23.4269C155.748 24.0942 155.531 24.7213 155.314 25.3002H160.58L157.951 17.4692Z" fill="#1C1D23"/>
<path d="M177.513 10.1861C177.516 9.98961 177.59 9.80085 177.722 9.65545C177.795 9.58031 177.883 9.52139 177.98 9.48259C178.077 9.44379 178.181 9.42598 178.285 9.43033H183.334C183.531 9.43282 183.72 9.50719 183.865 9.63937C183.946 9.70644 184.012 9.78972 184.06 9.88386C184.107 9.97801 184.133 10.081 184.138 10.1861V28.8552H193.569C193.674 28.8512 193.778 28.8697 193.875 28.9093C193.972 28.949 194.059 29.009 194.13 29.0852C194.202 29.1614 194.256 29.252 194.29 29.351C194.324 29.45 194.336 29.5551 194.325 29.6592V34.1697C194.325 34.3651 194.253 34.5537 194.124 34.7003C194.057 34.7819 193.972 34.8474 193.876 34.892C193.78 34.9365 193.675 34.9589 193.569 34.9576H178.269C178.167 34.9724 178.062 34.9631 177.963 34.9303C177.865 34.8976 177.775 34.8423 177.702 34.769C177.629 34.6956 177.573 34.6061 177.541 34.5077C177.508 34.4092 177.499 34.3045 177.513 34.2018V10.1861Z" fill="#1C1D23"/>
<path d="M201.409 10.1873C201.407 9.99294 201.476 9.80443 201.602 9.65669C201.674 9.58081 201.761 9.52193 201.859 9.48436C201.956 9.4468 202.061 9.43151 202.165 9.43961H207.206C207.405 9.44708 207.596 9.51745 207.753 9.64061C207.845 9.69797 207.922 9.77858 207.974 9.87446C208.026 9.97035 208.052 10.0782 208.05 10.1873V34.1468C208.05 34.6533 207.769 34.9025 207.206 34.9025H202.165C202.062 34.9174 201.957 34.908 201.859 34.8753C201.76 34.8425 201.671 34.7873 201.598 34.7139C201.524 34.6406 201.469 34.5511 201.436 34.4526C201.403 34.3542 201.394 34.2495 201.409 34.1468V10.1873Z" fill="#1C1D23"/>
<path d="M215.117 10.2509C215.107 10.0417 215.179 9.83685 215.318 9.68001C215.377 9.61477 215.449 9.562 215.529 9.52473C215.609 9.48747 215.696 9.46646 215.784 9.46293H232.202C232.31 9.4551 232.418 9.47042 232.519 9.50787C232.62 9.54531 232.712 9.60401 232.789 9.68001C232.931 9.84757 233.003 10.0636 232.99 10.283V14.5201C232.985 14.7234 232.911 14.9189 232.781 15.0749C232.709 15.1642 232.617 15.2349 232.512 15.2811C232.407 15.3273 232.292 15.3475 232.178 15.3402H221.726V20.6386H229.42C229.621 20.6343 229.817 20.6996 229.975 20.8236C230.051 20.8965 230.111 20.9856 230.148 21.0844C230.186 21.1831 230.201 21.2891 230.192 21.3944V25.4948C230.189 25.6957 230.121 25.8903 229.999 26.0496C229.938 26.1343 229.856 26.2028 229.763 26.249C229.669 26.2952 229.565 26.3179 229.46 26.3149H221.726V34.1701C221.726 34.6605 221.461 34.9098 220.922 34.9098H215.736C215.647 34.9059 215.559 34.8838 215.479 34.8447C215.399 34.8056 215.327 34.7504 215.269 34.6825C215.211 34.6146 215.168 34.5356 215.141 34.4502C215.115 34.3648 215.107 34.2749 215.117 34.1862V10.2509Z" fill="#1C1D23"/>
<path d="M251.749 18.8518L255.89 10.0077C255.962 9.87105 256.019 9.76653 256.059 9.70221C256.1 9.65267 256.146 9.60693 256.196 9.56553C256.243 9.54105 256.295 9.52474 256.348 9.51729L256.501 9.46101H263.102C263.176 9.45941 263.247 9.48519 263.303 9.53337C263.35 9.58332 263.376 9.64961 263.375 9.71829C263.352 9.88576 263.266 10.0381 263.134 10.1444L255.03 24.5281V34.1199C255.03 34.6586 254.772 34.9239 254.226 34.9239H249.088C248.989 34.9289 248.89 34.912 248.799 34.8745C248.707 34.837 248.625 34.7797 248.557 34.7069C248.426 34.5403 248.36 34.3316 248.373 34.1199V24.4718L240.284 10.1846C240.158 10.0761 240.078 9.92385 240.059 9.75849C240.058 9.68981 240.084 9.62352 240.131 9.57357C240.155 9.54907 240.184 9.52995 240.216 9.51748C240.248 9.505 240.282 9.49945 240.316 9.50121H246.925L247.11 9.54141C247.158 9.55027 247.204 9.56654 247.247 9.58965C247.298 9.62896 247.344 9.67493 247.384 9.72633C247.432 9.79065 247.496 9.89517 247.577 10.0319L251.749 18.8518Z" fill="#1C1D23"/>
<defs>
<linearGradient id="paint0_linear_3098_31802" x1="48.8871" y1="36.0164" x2="49.2834" y2="5.58443" gradientUnits="userSpaceOnUse">
<stop stop-color="#994F29"/>
<stop offset="1" stop-color="#FF5942"/>
</linearGradient>
<linearGradient id="paint1_linear_3098_31802" x1="25.2527" y1="35.8435" x2="25.6488" y2="5.42714" gradientUnits="userSpaceOnUse">
<stop stop-color="#994F29"/>
<stop offset="1" stop-color="#FF5942"/>
</linearGradient>
<linearGradient id="paint2_linear_3098_31802" x1="1.5491" y1="20.391" x2="60.2819" y2="20.391" gradientUnits="userSpaceOnUse">
<stop stop-color="#FF843D"/>
<stop offset="1" stop-color="#FF9D42"/>
</linearGradient>
<linearGradient id="paint3_linear_3098_31802" x1="1.834" y1="20.3838" x2="24.9308" y2="20.591" gradientUnits="userSpaceOnUse">
<stop stop-color="#FF843D"/>
<stop offset="1" stop-color="#FF5942"/>
</linearGradient>
<linearGradient id="paint4_linear_3098_31802" x1="25.3861" y1="20.2154" x2="48.4829" y2="20.4226" gradientUnits="userSpaceOnUse">
<stop stop-color="#FF843D"/>
<stop offset="1" stop-color="#FF5942"/>
</linearGradient>
<linearGradient id="paint5_linear_3098_31802" x1="1.54837" y1="20.391" x2="60.2811" y2="20.391" gradientUnits="userSpaceOnUse">
<stop offset="0.32" stop-color="#AE512E"/>
<stop offset="0.54" stop-color="#AC512E" stop-opacity="0"/>
</linearGradient>
<linearGradient id="paint6_linear_3098_31802" x1="1.5491" y1="20.388" x2="8.0294" y2="20.388" gradientUnits="userSpaceOnUse">
<stop offset="0.03" stop-color="#AC512E" stop-opacity="0"/>
<stop offset="1" stop-color="#AE512E"/>
</linearGradient>
<linearGradient id="paint7_linear_3098_31802" x1="1.56513" y1="20.391" x2="60.2979" y2="20.391" gradientUnits="userSpaceOnUse">
<stop offset="0.67" stop-color="#AE512E"/>
<stop offset="1" stop-color="#AC512E" stop-opacity="0"/>
</linearGradient>
</defs>
</svg>
