<svg width="22" height="22" viewBox="0 0 22 22" fill="none" xmlns="http://www.w3.org/2000/svg">
<path d="M10.9999 12.3093C12.808 12.3093 14.2737 10.8436 14.2737 9.03553C14.2737 7.22745 12.808 5.76172 10.9999 5.76172C9.19181 5.76172 7.72607 7.22745 7.72607 9.03553C7.72607 10.8436 9.19181 12.3093 10.9999 12.3093Z" stroke="#5268E1" stroke-linecap="round" stroke-linejoin="round"/>
<path d="M5.40845 17.4184C5.99281 16.4592 6.8141 15.6665 7.79336 15.1164C8.77262 14.5663 9.87693 14.2773 11.0001 14.2773C12.1233 14.2773 13.2276 14.5663 14.2069 15.1164C15.1861 15.6665 16.0074 16.4592 16.5918 17.4184" stroke="#5268E1" stroke-linecap="round" stroke-linejoin="round"/>
<path d="M10.9999 19.5121C15.7009 19.5121 19.5118 15.7012 19.5118 11.0002C19.5118 6.29919 15.7009 2.48828 10.9999 2.48828C6.29895 2.48828 2.48804 6.29919 2.48804 11.0002C2.48804 15.7012 6.29895 19.5121 10.9999 19.5121Z" stroke="#5268E1" stroke-linecap="round" stroke-linejoin="round"/>
</svg>
