<svg width="526" height="321" viewBox="0 0 526 321" fill="none" xmlns="http://www.w3.org/2000/svg">
<path d="M525 6C504.846 36.7844 499.306 42.4698 480.242 42.4698C470.027 42.4698 470.6 91.3725 454.406 91.3725C438.212 91.3725 439.461 130.802 428.588 130.802C405.166 130.802 405.166 111.665 386.647 111.665C377.273 111.665 373.827 169.285 359.897 169.285C345.967 169.285 341.283 224.819 328.909 224.819C317.365 224.819 319.286 175.916 295.237 175.916C271.187 175.916 271.77 139.954 263.545 139.954C248.293 139.954 230.318 194.866 196.547 194.866C181.243 194.866 180.033 143.71 160.383 143.71C140.733 143.71 139.727 75.8889 129.004 75.8889C118.221 75.8889 122.397 139.954 112.461 139.954C102.525 139.954 94.8833 202.44 76.8708 202.44C58.8583 202.44 52.8542 180.889 40.8458 180.889C28.8375 180.889 9.71516 204.466 0.999985 253" stroke="#2EA518" stroke-width="2" stroke-linecap="round"/>
<path d="M480.242 42.7639C499.306 42.7639 504.846 37.0327 525 6V321H1V254.992C9.71521 206.067 28.8375 182.3 40.8458 182.3C52.8542 182.3 58.8583 204.024 76.8708 204.024C94.8833 204.024 102.525 141.034 112.461 141.034C122.397 141.034 118.221 76.4526 129.004 76.4526C139.727 76.4526 140.733 144.821 160.383 144.821C180.033 144.821 181.243 196.39 196.547 196.39C230.318 196.39 248.293 141.034 263.545 141.034C271.77 141.034 271.188 177.286 295.237 177.286C319.286 177.286 317.365 226.584 328.909 226.584C341.283 226.584 345.967 170.602 359.897 170.602C373.827 170.602 377.273 112.518 386.647 112.518C405.166 112.518 405.166 131.808 428.588 131.808C439.461 131.808 438.212 92.061 454.406 92.061C470.6 92.061 470.027 42.7639 480.242 42.7639Z" fill="url(#paint0_linear_3210_31479)"/>
<path d="M327.729 5.80078L327.729 315.198" stroke="#2EA518" stroke-linecap="round" stroke-dasharray="6 6"/>
<defs>
<linearGradient id="paint0_linear_3210_31479" x1="263" y1="6" x2="263" y2="321" gradientUnits="userSpaceOnUse">
<stop stop-color="#2EA518" stop-opacity="0.08"/>
<stop offset="1" stop-color="#2EA518" stop-opacity="0"/>
</linearGradient>
</defs>
</svg>
