<svg width="18" height="18" viewBox="0 0 18 18" fill="none" xmlns="http://www.w3.org/2000/svg">
<path d="M16.5716 7.78516H12.9021C12.5781 7.78516 12.3155 8.04777 12.3155 8.37172V10.718C12.3155 11.0419 12.5781 11.3045 12.9021 11.3045H16.5716C16.8955 11.3045 17.1581 11.0419 17.1581 10.718V8.37172C17.1581 8.04777 16.8955 7.78516 16.5716 7.78516Z" stroke="#FF5524" stroke-linecap="round" stroke-linejoin="round"/>
<path d="M15.3437 7.7928V6.12891C15.3437 5.02434 14.4482 4.12891 13.3437 4.12891H7.63653M15.3437 11.3773V12.9618C15.3437 14.0663 14.4482 14.9618 13.3437 14.9618H3.27637C2.1718 14.9618 1.27637 14.0663 1.27637 12.9618V10.013" stroke="#FF5524" stroke-linecap="round" stroke-linejoin="round"/>
<path d="M4.09375 9.36675L4.09375 3.23047" stroke="#FF5524" stroke-linecap="round" stroke-linejoin="round"/>
<path d="M6.55043 5.68732L4.09357 3.23047L1.63672 5.68732" stroke="#FF5524" stroke-linecap="round" stroke-linejoin="round"/>
</svg>
