<svg width="180" height="108" viewBox="0 0 180 108" fill="none" xmlns="http://www.w3.org/2000/svg">
<path d="M163.1 34.2C165.364 34.2 167.2 32.3644 167.2 30.1C167.2 27.8356 165.364 26 163.1 26C160.836 26 159 27.8356 159 30.1C159 32.3644 160.836 34.2 163.1 34.2Z" fill="#F1F3F9"/>
<path d="M123.8 14.6C125.346 14.6 126.6 13.3464 126.6 11.8C126.6 10.2536 125.346 9 123.8 9C122.254 9 121 10.2536 121 11.8C121 13.3464 122.254 14.6 123.8 14.6Z" fill="#F1F3F9"/>
<path d="M15.8 69.6C17.3464 69.6 18.6 68.3464 18.6 66.8C18.6 65.2536 17.3464 64 15.8 64C14.2536 64 13 65.2536 13 66.8C13 68.3464 14.2536 69.6 15.8 69.6Z" fill="#D7D9E5"/>
<path d="M47.2 90.4C50.0719 90.4 52.4 88.0719 52.4 85.2C52.4 82.3281 50.0719 80 47.2 80C44.3281 80 42 82.3281 42 85.2C42 88.0719 44.3281 90.4 47.2 90.4Z" fill="#F1F3F9"/>
<path d="M140.133 67.1419H25.4956C22.9833 67.1419 21 65.1585 21 62.6463V36.8628C21 34.3505 22.9833 32.3672 25.4956 32.3672H140.001C142.513 32.3672 144.496 34.3505 144.496 36.8628V62.6463C144.629 65.1585 142.513 67.1419 140.133 67.1419Z" fill="white" stroke="#D6DCE8" stroke-width="2" stroke-miterlimit="10"/>
<path d="M48.7651 49.6902C48.7651 52.5991 47.4429 55.2435 45.4595 57.0947C43.7406 58.6813 41.3606 59.6069 38.8484 59.6069C36.3361 59.6069 33.9561 58.6813 32.2372 57.0947C30.1216 55.2435 28.9316 52.5991 28.9316 49.6902C28.9316 44.269 33.4272 39.7734 38.8484 39.7734C44.2695 39.7734 48.7651 44.269 48.7651 49.6902Z" fill="#D6DCE8"/>
<path d="M81.2923 46.9133H55.9054C55.2443 46.9133 54.8477 46.3844 54.8477 45.8556V42.55C54.8477 41.8889 55.3765 41.4922 55.9054 41.4922H81.2923C81.9534 41.4922 82.3501 42.0211 82.3501 42.55V45.8556C82.3501 46.3844 81.9534 46.9133 81.2923 46.9133Z" fill="#D6DCE8"/>
<path d="M111.439 58.1516H55.9054C55.2443 58.1516 54.8477 57.6227 54.8477 57.0938V53.7883C54.8477 53.1271 55.3765 52.7305 55.9054 52.7305H111.439C112.1 52.7305 112.497 53.2594 112.497 53.7883V57.0938C112.497 57.6227 111.968 58.1516 111.439 58.1516Z" fill="#D6DCE8"/>
<path d="M122.564 91.6411L106.531 75.6208L110.207 71.9453L126.227 87.9782L122.564 91.6411Z" fill="#D6DCE8" stroke="#A5A8B8" stroke-width="2" stroke-miterlimit="10"/>
<path d="M128.134 97.2785L115.84 84.9845C114.814 83.9579 114.814 82.2849 115.84 81.2582C116.867 80.2316 118.54 80.2316 119.567 81.2582L131.861 93.5523C132.887 94.5789 132.887 96.2519 131.861 97.2785C130.834 98.3051 129.161 98.3051 128.134 97.2785Z" fill="#D6DCE8" stroke="#A5A8B8" stroke-width="2" stroke-miterlimit="10"/>
<path d="M127.261 98.0656L111.444 82.2482C111.076 81.8806 111.076 81.2849 111.444 80.9047L115.487 76.8616C115.854 76.494 116.45 76.494 116.83 76.8616L132.648 92.6791C133.015 93.0466 133.015 93.6423 132.648 94.0225L128.605 98.0656C128.224 98.4332 127.629 98.4332 127.261 98.0656Z" fill="#D6DCE8" stroke="#A5A8B8" stroke-width="2" stroke-miterlimit="10"/>
<path d="M88.3802 24C71.5995 24 58 37.5995 58 54.3802C58 71.1482 71.5995 84.7603 88.3675 84.7603C105.148 84.7603 118.748 71.1609 118.748 54.3802C118.748 37.5995 105.148 24 88.3802 24ZM88.3802 79.133C74.9074 79.133 63.9949 68.043 63.9949 54.3675C63.9949 40.692 74.9074 29.6147 88.3802 29.6147C101.853 29.6147 112.765 40.7047 112.765 54.3802C112.765 68.0557 101.84 79.133 88.3802 79.133Z" fill="#D6DCE8" stroke="#A5A8B8" stroke-width="2" stroke-miterlimit="10"/>
</svg>
