<svg width="24" height="24" viewBox="0 0 24 24" fill="none" xmlns="http://www.w3.org/2000/svg">
<rect width="24" height="24" rx="12" fill="#5268E1"/>
<path d="M17.9333 11.2827C18.0913 11.4796 18.1787 11.7354 18.1787 12.0006C18.1787 12.2658 18.0913 12.5216 17.9333 12.7185C16.9333 13.9292 14.6571 16.2864 12 16.2864C9.34285 16.2864 7.06666 13.9292 6.06666 12.7185C5.90872 12.5216 5.82129 12.2658 5.82129 12.0006C5.82129 11.7354 5.90872 11.4796 6.06666 11.2827C7.06666 10.072 9.34285 7.71484 12 7.71484C14.6571 7.71484 16.9333 10.072 17.9333 11.2827Z" stroke="white" stroke-linecap="round" stroke-linejoin="round"/>
<path d="M12 13.9033C13.0519 13.9033 13.9047 13.0505 13.9047 11.9985C13.9047 10.9465 13.0519 10.0938 12 10.0938C10.948 10.0938 10.0952 10.9465 10.0952 11.9985C10.0952 13.0505 10.948 13.9033 12 13.9033Z" stroke="white" stroke-linecap="round" stroke-linejoin="round"/>
</svg>
