<svg width="20" height="20" viewBox="0 0 20 20" fill="none" xmlns="http://www.w3.org/2000/svg">
<path d="M5.53553 8.80934C7.3436 8.80934 8.80934 7.3436 8.80934 5.53553C8.80934 3.72745 7.3436 2.26172 5.53553 2.26172C3.72745 2.26172 2.26172 3.72745 2.26172 5.53553C2.26172 7.3436 3.72745 8.80934 5.53553 8.80934Z" stroke="#5268E1" stroke-linecap="round" stroke-linejoin="round"/>
<path d="M14.4642 8.80934C16.2723 8.80934 17.738 7.3436 17.738 5.53553C17.738 3.72745 16.2723 2.26172 14.4642 2.26172C12.6562 2.26172 11.1904 3.72745 11.1904 5.53553C11.1904 7.3436 12.6562 8.80934 14.4642 8.80934Z" stroke="#5268E1" stroke-linecap="round" stroke-linejoin="round"/>
<path d="M5.53553 17.739C7.3436 17.739 8.80934 16.2733 8.80934 14.4652C8.80934 12.6571 7.3436 11.1914 5.53553 11.1914C3.72745 11.1914 2.26172 12.6571 2.26172 14.4652C2.26172 16.2733 3.72745 17.739 5.53553 17.739Z" stroke="#5268E1" stroke-linecap="round" stroke-linejoin="round"/>
<path d="M14.4642 17.739C16.2723 17.739 17.738 16.2733 17.738 14.4652C17.738 12.6571 16.2723 11.1914 14.4642 11.1914C12.6562 11.1914 11.1904 12.6571 11.1904 14.4652C11.1904 16.2733 12.6562 17.739 14.4642 17.739Z" stroke="#5268E1" stroke-linecap="round" stroke-linejoin="round"/>
</svg>
