<svg width="20" height="20" viewBox="0 0 20 20" fill="none" xmlns="http://www.w3.org/2000/svg">
<path d="M9.99963 11.1907C11.6433 11.1907 12.9758 9.85818 12.9758 8.21447C12.9758 6.57077 11.6433 5.23828 9.99963 5.23828C8.35592 5.23828 7.02344 6.57077 7.02344 8.21447C7.02344 9.85818 8.35592 11.1907 9.99963 11.1907Z" stroke="#5268E1" stroke-linecap="round" stroke-linejoin="round"/>
<path d="M4.91699 15.8321C5.44823 14.9601 6.19486 14.2394 7.0851 13.7393C7.97533 13.2392 8.97925 12.9766 10.0003 12.9766C11.0214 12.9766 12.0253 13.2392 12.9156 13.7393C13.8058 14.2394 14.5524 14.9601 15.0837 15.8321" stroke="#5268E1" stroke-linecap="round" stroke-linejoin="round"/>
<path d="M9.99981 17.7379C14.2734 17.7379 17.7379 14.2734 17.7379 9.99981C17.7379 5.72618 14.2734 2.26172 9.99981 2.26172C5.72618 2.26172 2.26172 5.72618 2.26172 9.99981C2.26172 14.2734 5.72618 17.7379 9.99981 17.7379Z" stroke="#5268E1" stroke-linecap="round" stroke-linejoin="round"/>
</svg>
