<svg width="20" height="20" viewBox="0 0 20 20" fill="none" xmlns="http://www.w3.org/2000/svg">
<path d="M7.91019 14.7967L3.20312 16.1147L4.5211 11.4077L13.1403 2.83035C13.2377 2.73072 13.354 2.65156 13.4825 2.59751C13.6109 2.54346 13.7488 2.51562 13.8882 2.51562C14.0275 2.51562 14.1654 2.54346 14.2939 2.59751C14.4223 2.65156 14.5386 2.73072 14.6361 2.83035L16.4875 4.69225C16.5855 4.78949 16.6634 4.90518 16.7165 5.03265C16.7696 5.16011 16.7969 5.29683 16.7969 5.43492C16.7969 5.57301 16.7696 5.70973 16.7165 5.83719C16.6634 5.96466 16.5855 6.08035 16.4875 6.17759L7.91019 14.7967Z" stroke="#5268E1" stroke-linecap="round" stroke-linejoin="round"/>
<path d="M16.7969 16.1133L3.20307 16.1133" stroke="#5268E1" stroke-linecap="round"/>
</svg>
