<svg width="136" height="24" viewBox="0 0 136 24" fill="none" xmlns="http://www.w3.org/2000/svg">
<path d="M44.2021 19.4174C44.1423 19.3167 44.0854 19.2146 44.0329 19.1066C43.9804 18.9987 43.9322 18.8936 43.8899 18.7886C43.1298 16.781 42.3696 14.7923 41.6124 12.8212C40.8551 10.8516 40.0994 8.85855 39.3349 6.85388C39.3349 6.82324 39.3305 6.79697 39.3203 6.77509C39.313 6.7532 39.3057 6.72694 39.3057 6.7036C39.3057 6.53873 39.4136 6.45703 39.631 6.45703H42.4819C42.7066 6.45703 42.8598 6.56937 42.943 6.79405L45.6509 14.8624L48.156 6.79405C48.2377 6.56937 48.3997 6.45703 48.6433 6.45703H51.5205C51.6547 6.45703 51.7525 6.48329 51.8094 6.53144C51.8663 6.57959 51.8911 6.64816 51.8911 6.72987C51.8911 6.77801 51.8911 6.80864 51.8838 6.82761V6.85388L50.3066 11.371L51.4942 14.8507L54.3627 6.79405C54.4444 6.56937 54.6063 6.45703 54.8499 6.45703H57.6411C57.7753 6.45703 57.8731 6.48329 57.93 6.53144C57.9869 6.57959 58.0116 6.64816 58.0116 6.72987C58.0116 6.77801 58.0116 6.80864 58.0043 6.82761V6.85388C57.6031 7.89123 57.1916 8.9286 56.7714 9.96303C56.3512 10.9975 55.9325 12.0304 55.5094 13.0605C55.0863 14.0949 54.6661 15.1279 54.2503 16.1653C53.8345 17.2026 53.4304 18.2371 53.0335 19.27C53.0116 19.3342 52.9591 19.4086 52.873 19.4874C52.7913 19.5662 52.6891 19.6071 52.5739 19.6071H50.4058C50.2745 19.6071 50.1768 19.5808 50.1097 19.5327C50.0425 19.4845 49.9929 19.4159 49.9638 19.3342L48.5631 15.6517C48.3603 16.1872 48.1662 16.7153 47.9707 17.2318C47.7767 17.7483 47.5812 18.2764 47.3871 18.8119C47.3565 18.8936 47.3229 18.9812 47.2865 19.0745C47.2485 19.165 47.2047 19.2511 47.1478 19.3328C47.0909 19.4145 47.0355 19.4787 46.9684 19.5312C46.9013 19.5837 46.8225 19.61 46.7321 19.61H44.5639C44.3772 19.61 44.2488 19.5458 44.1933 19.4232L44.205 19.4159L44.2021 19.4174Z" fill="black"/>
<path d="M61.6751 6.86165C61.6751 6.73764 61.7086 6.64134 61.7757 6.56547C61.8428 6.49106 61.9406 6.45312 62.0646 6.45312H70.8478C70.9791 6.45312 71.0769 6.49107 71.1469 6.56985C71.2184 6.64426 71.2519 6.74931 71.2519 6.88062V9.07204C71.2519 9.17271 71.2184 9.2661 71.1469 9.36094C71.0754 9.45139 70.9704 9.49953 70.8362 9.49953H65.0979V11.6939H69.5245C69.6369 11.6939 69.7302 11.7201 69.8017 11.7727C69.8732 11.8252 69.9141 11.9157 69.9141 12.0382V13.9524C69.9141 14.0341 69.8805 14.1129 69.8163 14.1917C69.7521 14.2705 69.6559 14.3084 69.5318 14.3084H65.0964V16.5743H71.0477C71.3132 16.5743 71.4446 16.7085 71.4446 16.9784V19.2034C71.4446 19.2632 71.4227 19.3157 71.3731 19.361C71.3512 19.5258 71.2272 19.6075 71.0098 19.6075H62.0573C61.9406 19.6075 61.8443 19.5769 61.7757 19.5142C61.7042 19.45 61.6707 19.3566 61.6707 19.2253V6.86165H61.6751Z" fill="black"/>
<path d="M79.9376 6.795C79.9449 6.76145 79.9638 6.72059 79.9945 6.67828C80.028 6.63742 80.0659 6.5995 80.1141 6.56157C80.1622 6.52363 80.2118 6.49736 80.2643 6.47985C80.3169 6.45797 80.3694 6.44922 80.4147 6.44922H82.6805C82.7811 6.44922 82.8672 6.47986 82.9387 6.5426C83.0102 6.60533 83.0627 6.65932 83.0992 6.70747L83.3196 7.21374L87.9679 19.2039C88.0161 19.3235 88.0059 19.4169 87.9417 19.4928C87.8775 19.5672 87.7651 19.6051 87.6046 19.6051H85.0616C84.9274 19.6051 84.8223 19.5788 84.7464 19.5307C84.6706 19.4825 84.6151 19.3965 84.5743 19.2797C84.4546 18.9806 84.3423 18.6801 84.23 18.381C84.1176 18.0819 84.0053 17.7813 83.8929 17.4822H79.192C79.0797 17.7813 78.9673 18.0819 78.8506 18.381C78.7339 18.6801 78.6215 18.9806 78.5092 19.2797C78.4304 19.4971 78.2801 19.6051 78.0555 19.6051H75.4453C75.3329 19.6051 75.2396 19.5745 75.1681 19.5146C75.0937 19.4548 75.082 19.3687 75.1272 19.2491L79.9361 6.79938V6.795H79.9376ZM81.5483 10.5855C81.436 10.8846 81.3236 11.2114 81.2069 11.5587C81.0901 11.9059 80.9778 12.259 80.8655 12.6106C80.7531 12.9622 80.6408 13.3153 80.5241 13.6596C80.4074 14.004 80.295 14.3308 80.1827 14.6299H82.9022L81.5468 10.584L81.5483 10.5855Z" fill="black"/>
<path d="M91.6533 6.83487C91.6533 6.72983 91.6869 6.63645 91.7584 6.56204C91.8298 6.48763 91.9276 6.44531 92.0502 6.44531H94.672C94.7726 6.44531 94.8631 6.47888 94.9448 6.55037C95.0265 6.62187 95.0717 6.71524 95.0761 6.83487V16.4687H99.9448C100.05 16.4687 100.143 16.5023 100.218 16.5738C100.292 16.6452 100.334 16.743 100.334 16.8656V19.1956C100.334 19.2963 100.301 19.3867 100.234 19.4684C100.167 19.5501 100.069 19.5954 99.9448 19.5997H92.0385C91.7802 19.5997 91.6489 19.4684 91.6489 19.2102V6.83487H91.6533Z" fill="black"/>
<path d="M103.991 6.84269C103.991 6.73764 104.024 6.64426 104.088 6.56985C104.153 6.49544 104.249 6.45312 104.38 6.45312H106.983C107.074 6.45312 107.167 6.48668 107.268 6.55817C107.368 6.62966 107.418 6.72305 107.418 6.84269V19.2136C107.418 19.4718 107.272 19.6032 106.983 19.6032H104.38C104.122 19.6032 103.991 19.4718 103.991 19.2136V6.84269Z" fill="black"/>
<path d="M111.07 6.86165C111.07 6.73764 111.104 6.64134 111.171 6.56985C111.238 6.49836 111.321 6.46188 111.414 6.45312H119.887C120.021 6.45312 120.123 6.49107 120.195 6.56985C120.262 6.64426 120.295 6.74931 120.295 6.88062V9.07204C120.295 9.17271 120.262 9.2661 120.19 9.36094C120.119 9.45577 120.014 9.49953 119.88 9.49953H114.497V12.2454H118.472C118.584 12.2454 118.677 12.276 118.756 12.3388C118.831 12.403 118.873 12.4993 118.873 12.6349V14.7505C118.873 14.8512 118.839 14.9445 118.772 15.0394C118.705 15.1298 118.612 15.178 118.495 15.178H114.502V19.234C114.502 19.4894 114.367 19.6163 114.093 19.6163H111.393C111.179 19.5857 111.074 19.4631 111.074 19.2457V6.8631H111.07V6.86165Z" fill="black"/>
<path d="M129.982 11.3068L132.121 6.72987C132.154 6.65837 132.185 6.60584 132.211 6.57666C132.233 6.5431 132.259 6.51976 132.283 6.50517C132.306 6.49058 132.331 6.4833 132.357 6.47892C132.383 6.47454 132.414 6.46724 132.45 6.45703H135.859C135.899 6.45703 135.933 6.47161 135.959 6.49787C135.985 6.52413 136 6.55477 136 6.59125C136 6.65544 135.959 6.72986 135.876 6.81156L131.677 14.2423V19.1942C131.677 19.4714 131.543 19.61 131.273 19.61H128.625C128.508 19.61 128.415 19.5721 128.352 19.4976C128.289 19.4232 128.254 19.3211 128.254 19.1898V14.2233L124.067 6.81156C123.992 6.73715 123.95 6.66128 123.95 6.59125C123.95 6.55769 123.962 6.52413 123.984 6.49787C124.006 6.47161 124.041 6.45703 124.081 6.45703H127.49C127.531 6.4687 127.564 6.476 127.587 6.47892C127.609 6.47892 127.636 6.49058 127.659 6.50517C127.682 6.51976 127.707 6.5431 127.73 6.57666C127.752 6.61022 127.787 6.65837 127.828 6.72987L129.986 11.3068H129.982Z" fill="black"/>
<path d="M25.579 4.3005L19.4561 17.4311C18.7996 18.8391 19.4087 20.5127 20.8168 21.1693L20.8194 21.1705C22.2274 21.8271 23.9011 21.2179 24.5576 19.8099L30.6805 6.67936C31.3371 5.27136 30.7279 3.59772 29.3199 2.94116L29.3172 2.93993C27.9092 2.28336 26.2356 2.8925 25.579 4.3005Z" fill="url(#paint0_linear_3235_4646)"/>
<path d="M13.364 4.33324L7.28548 17.3686C6.62892 18.7766 7.2381 20.4502 8.6461 21.1068L8.64873 21.108C10.0567 21.7646 11.7304 21.1554 12.3869 19.7474L18.4654 6.71209C19.122 5.30409 18.5128 3.63039 17.1048 2.97383L17.1022 2.9726C15.6942 2.31604 14.0205 2.92523 13.364 4.33324Z" fill="url(#paint1_linear_3235_4646)"/>
<path d="M1.86173 10.2305H30.0206C31.0492 10.2305 31.8822 11.0636 31.8822 12.0907C31.8822 13.1178 31.0492 13.9509 30.0206 13.9509H1.86173C0.833131 13.9509 0 13.1178 0 12.0907C0 11.0636 0.833131 10.2305 1.86173 10.2305Z" fill="url(#paint2_linear_3235_4646)"/>
<path d="M2.58597 2.98184L2.58332 2.98308C1.17532 3.63964 0.566186 5.31329 1.22275 6.72129L7.34377 19.8479C8.00033 21.2559 9.67396 21.865 11.082 21.2085L11.0846 21.2072C12.4926 20.5507 13.1017 18.877 12.4452 17.469L6.32417 4.34246C5.6676 2.93446 3.99397 2.32528 2.58597 2.98184Z" fill="url(#paint3_linear_3235_4646)"/>
<path d="M14.7208 2.95056L14.7182 2.9518C13.3101 3.60836 12.7009 5.28202 13.3575 6.69003L19.4946 19.851C20.1511 21.259 21.8248 21.8681 23.2328 21.2116L23.2355 21.2103C24.6435 20.5538 25.2526 18.8801 24.596 17.4721L18.459 4.31117C17.8024 2.90316 16.1288 2.294 14.7208 2.95056Z" fill="url(#paint4_linear_3235_4646)"/>
<path opacity="0.5" d="M9.05737 10.2305L10.7951 13.9539H16.7361L15.0014 10.2305H9.05737Z" fill="url(#paint5_linear_3235_4646)"/>
<path opacity="0.5" d="M1.86173 10.2305C0.831672 10.2305 0 11.065 0 12.0922C0 13.1178 0.831672 13.9539 1.86173 13.9539H4.58419L2.84948 10.2349H1.86024V10.2305H1.86173Z" fill="url(#paint6_linear_3235_4646)"/>
<path opacity="0.5" d="M30.0321 10.2309H21.2183L22.953 13.95H30.0321C31.0578 13.95 31.8938 13.1183 31.8938 12.0883C31.8938 11.0626 31.0621 10.2266 30.0321 10.2266V10.2309Z" fill="url(#paint7_linear_3235_4646)"/>
<defs>
<linearGradient id="paint0_linear_3235_4646" x1="37.5588" y1="20.2789" x2="37.7242" y2="4.48872" gradientUnits="userSpaceOnUse">
<stop stop-color="#984F29"/>
<stop offset="1" stop-color="#FF5942"/>
</linearGradient>
<linearGradient id="paint1_linear_3235_4646" x1="27.5618" y1="20.1654" x2="27.7555" y2="4.54099" gradientUnits="userSpaceOnUse">
<stop stop-color="#984F29"/>
<stop offset="1" stop-color="#FF5942"/>
</linearGradient>
<linearGradient id="paint2_linear_3235_4646" x1="0.787864" y1="617.055" x2="31.1075" y2="617.055" gradientUnits="userSpaceOnUse">
<stop stop-color="#FF833D"/>
<stop offset="1" stop-color="#FF9C42"/>
</linearGradient>
<linearGradient id="paint3_linear_3235_4646" x1="-11.4307" y1="12.2859" x2="0.516355" y2="12.1608" gradientUnits="userSpaceOnUse">
<stop stop-color="#FF833D"/>
<stop offset="1" stop-color="#FF5942"/>
</linearGradient>
<linearGradient id="paint4_linear_3235_4646" x1="1.57787" y1="12.2497" x2="13.5281" y2="12.1329" gradientUnits="userSpaceOnUse">
<stop stop-color="#FF833D"/>
<stop offset="1" stop-color="#FF5942"/>
</linearGradient>
<linearGradient id="paint5_linear_3235_4646" x1="0.787734" y1="617.056" x2="31.1073" y2="617.056" gradientUnits="userSpaceOnUse">
<stop offset="0.32" stop-color="#AD512E"/>
<stop offset="0.54" stop-color="#AB512E" stop-opacity="0"/>
</linearGradient>
<linearGradient id="paint6_linear_3235_4646" x1="0.787862" y1="617.056" x2="4.1319" y2="617.056" gradientUnits="userSpaceOnUse">
<stop offset="0.03" stop-color="#AB512E" stop-opacity="0"/>
<stop offset="1" stop-color="#AD512E"/>
</linearGradient>
<linearGradient id="paint7_linear_3235_4646" x1="0.798009" y1="617.056" x2="31.1147" y2="617.056" gradientUnits="userSpaceOnUse">
<stop offset="0.67" stop-color="#AD512E"/>
<stop offset="1" stop-color="#AB512E" stop-opacity="0"/>
</linearGradient>
</defs>
</svg>
