<svg width="16" height="16" viewBox="0 0 16 16" fill="none" xmlns="http://www.w3.org/2000/svg">
<path d="M8.00005 14.1905C11.419 14.1905 14.1905 11.419 14.1905 8.00005C14.1905 4.58114 11.419 1.80957 8.00005 1.80957C4.58114 1.80957 1.80957 4.58114 1.80957 8.00005C1.80957 11.419 4.58114 14.1905 8.00005 14.1905Z" stroke="#7A7D89" stroke-linecap="round" stroke-linejoin="round"/>
<path d="M8 1.80957V14.1905" stroke="#7A7D89" stroke-linecap="round" stroke-linejoin="round"/>
<path d="M3.33325 12.0667C4.0311 11.6419 4.6079 11.0446 5.0082 10.3324C5.4085 9.62022 5.61883 8.817 5.61897 8.00002C5.61883 7.18303 5.4085 6.37982 5.0082 5.66762C4.6079 4.95542 4.0311 4.35818 3.33325 3.93335" stroke="#7A7D89" stroke-linecap="round" stroke-linejoin="round"/>
<path d="M12.6667 3.93335C11.9691 4.35834 11.3926 4.95564 10.9925 5.66783C10.5925 6.38002 10.3823 7.18315 10.3823 8.00002C10.3823 8.81688 10.5925 9.62001 10.9925 10.3322C11.3926 11.0444 11.9691 11.6417 12.6667 12.0667" stroke="#7A7D89" stroke-linecap="round" stroke-linejoin="round"/>
</svg>
