<svg width="16" height="16" viewBox="0 0 16 16" fill="none" xmlns="http://www.w3.org/2000/svg">
<path d="M3.40834 7.05817L5.25172 2.17168L8.73029 3.1635L7.71947 8.28738C7.46482 9.57824 6.16137 10.3758 4.89606 10.0151C3.63075 9.6543 2.94393 8.28923 3.40834 7.05817Z" stroke="#7A7D89" stroke-linecap="round" stroke-linejoin="round"/>
<path d="M4.89722 10.0145L3.87456 13.6012" stroke="#7A7D89" stroke-linecap="round" stroke-linejoin="round"/>
<path d="M2.46045 13.1971L5.28634 14.0029" stroke="#7A7D89" stroke-linecap="round" stroke-linejoin="round"/>
<path d="M4.33179 4.60718L8.22316 5.72697" stroke="#7A7D89"/>
<path d="M9.49194 9.86917C9.97345 10.1071 10.5424 10.1751 11.1038 10.015C12.3691 9.65425 13.056 8.28918 12.5916 7.05813L10.7482 2.17163L10.2001 2.32791" stroke="#7A7D89" stroke-linecap="round" stroke-linejoin="round"/>
<path d="M11.1028 10.0145L12.1254 13.6012" stroke="#7A7D89" stroke-linecap="round" stroke-linejoin="round"/>
<path d="M13.5396 13.1971L10.7137 14.0029" stroke="#7A7D89" stroke-linecap="round" stroke-linejoin="round"/>
<path d="M11.6682 4.61829L10.0793 5.07632" stroke="#7A7D89" stroke-linecap="round" stroke-linejoin="round"/>
</svg>
