<svg width="16" height="16" viewBox="0 0 16 16" fill="none" xmlns="http://www.w3.org/2000/svg">
<path d="M13.6286 6.5714H2.37141C1.83808 6.5714 1.6095 5.99045 2.02855 5.71426L7.65712 2.02855C7.76104 1.96742 7.87942 1.93518 7.99998 1.93518C8.12055 1.93518 8.23892 1.96742 8.34284 2.02855L13.9714 5.71426C14.3905 5.99045 14.1619 6.5714 13.6286 6.5714Z" stroke="#7A7D89" stroke-linecap="round" stroke-linejoin="round"/>
<path d="M13.7143 11.8096H2.28576C2.02277 11.8096 1.80957 12.0228 1.80957 12.2858V13.7143C1.80957 13.9773 2.02277 14.1905 2.28576 14.1905H13.7143C13.9773 14.1905 14.1905 13.9773 14.1905 13.7143V12.2858C14.1905 12.0228 13.9773 11.8096 13.7143 11.8096Z" stroke="#7A7D89" stroke-linecap="round" stroke-linejoin="round"/>
<path d="M3.23804 6.57141V11.8095" stroke="#7A7D89" stroke-linecap="round" stroke-linejoin="round"/>
<path d="M6.4126 6.57141V11.8095" stroke="#7A7D89" stroke-linecap="round" stroke-linejoin="round"/>
<path d="M9.5874 6.57141V11.8095" stroke="#7A7D89" stroke-linecap="round" stroke-linejoin="round"/>
<path d="M12.762 6.57141V11.8095" stroke="#7A7D89" stroke-linecap="round" stroke-linejoin="round"/>
</svg>
