<svg width="16" height="16" viewBox="0 0 16 16" fill="none" xmlns="http://www.w3.org/2000/svg">
<path d="M2.51416 7.56298L13.4665 2.58203" stroke="#7A7D89" stroke-linecap="round" stroke-linejoin="round"/>
<path d="M11.4189 1.80859L13.4666 2.58002L12.7047 4.62764" stroke="#7A7D89" stroke-linecap="round" stroke-linejoin="round"/>
<path d="M13.9521 14.1914H11.5712V7.52474C11.5712 7.39845 11.6214 7.27732 11.7107 7.18802C11.8 7.09872 11.9211 7.04855 12.0474 7.04855H13.476C13.6023 7.04855 13.7234 7.09872 13.8127 7.18802C13.902 7.27732 13.9521 7.39845 13.9521 7.52474V14.1914Z" stroke="#7A7D89" stroke-linecap="round" stroke-linejoin="round"/>
<path d="M9.19043 14.1914H6.80948V8.95331C6.80948 8.82702 6.85965 8.7059 6.94895 8.61659C7.03825 8.52729 7.15937 8.47712 7.28567 8.47712H8.71424C8.84053 8.47712 8.96165 8.52729 9.05096 8.61659C9.14026 8.7059 9.19043 8.82702 9.19043 8.95331V14.1914Z" stroke="#7A7D89" stroke-linecap="round" stroke-linejoin="round"/>
<path d="M4.42871 14.1914H2.04776L2.04776 10.3819C2.04776 10.2556 2.09793 10.1345 2.18723 10.0452C2.27653 9.95586 2.39766 9.90569 2.52395 9.90569H3.95252C4.07881 9.90569 4.19993 9.95586 4.28924 10.0452C4.37854 10.1345 4.42871 10.2556 4.42871 10.3819L4.42871 14.1914Z" stroke="#7A7D89" stroke-linecap="round" stroke-linejoin="round"/>
</svg>
