<svg width="16" height="16" viewBox="0 0 16 16" fill="none" xmlns="http://www.w3.org/2000/svg">
<path d="M4.46263 14.1905V11.712C2.87663 10.7945 1.80957 9.07971 1.80957 7.11569C1.80957 4.1852 4.1852 1.80957 7.11569 1.80957C9.07971 1.80957 10.7945 2.87663 11.712 4.46263" stroke="#7A7D89" stroke-linecap="round" stroke-linejoin="round"/>
<path d="M9.7688 14.1905V11.9796H11.5375C12.0259 11.9796 12.4219 11.5837 12.4219 11.0953V8.8844" stroke="#7A7D89" stroke-linecap="round" stroke-linejoin="round"/>
<path d="M6.67269 6.67346L1.8269 6.67346" stroke="#7A7D89" stroke-linecap="round" stroke-linejoin="round"/>
<path d="M6.67358 6.67341C6.67358 5.45237 7.66343 4.46252 8.88447 4.46252H13.1906C13.7429 4.46252 14.1906 4.91024 14.1906 5.46252V7.88429C14.1906 8.43658 13.7429 8.88429 13.1906 8.88429H8.88447C7.66343 8.88429 6.67358 7.89445 6.67358 6.67341Z" stroke="#7A7D89" stroke-linecap="round" stroke-linejoin="round"/>
<path d="M10.2109 4.46252V8.88429" stroke="#7A7D89" stroke-linecap="round" stroke-linejoin="round"/>
</svg>
