<svg width="16" height="16" viewBox="0 0 16 16" fill="none" xmlns="http://www.w3.org/2000/svg">
<path d="M13.2381 4.66663H2.76195C2.23597 4.66663 1.80957 5.09302 1.80957 5.61901V13.2381C1.80957 13.764 2.23597 14.1904 2.76195 14.1904H13.2381C13.7641 14.1904 14.1905 13.764 14.1905 13.2381V5.61901C14.1905 5.09302 13.7641 4.66663 13.2381 4.66663Z" stroke="#7A7D89" stroke-linecap="round" stroke-linejoin="round"/>
<path d="M10.8571 4.66671V2.76195C10.8571 2.50936 10.7568 2.26712 10.5782 2.08852C10.3996 1.90991 10.1573 1.80957 9.90473 1.80957H6.0952C5.84262 1.80957 5.60037 1.90991 5.42177 2.08852C5.24316 2.26712 5.14282 2.50936 5.14282 2.76195V4.66671" stroke="#7A7D89" stroke-linecap="round" stroke-linejoin="round"/>
</svg>
