<svg width="17" height="16" viewBox="0 0 17 16" fill="none" xmlns="http://www.w3.org/2000/svg">
<path d="M8.50005 14.1895C11.919 14.1895 14.6905 11.418 14.6905 7.99907C14.6905 4.58016 11.919 1.80859 8.50005 1.80859C5.08114 1.80859 2.30957 4.58016 2.30957 7.99907C2.30957 11.418 5.08114 14.1895 8.50005 14.1895Z" stroke="#7A7D89" stroke-linecap="round" stroke-linejoin="round"/>
<path d="M5.64288 8.23791C5.51138 8.23791 5.40479 8.13131 5.40479 7.99981C5.40479 7.86832 5.51138 7.76172 5.64288 7.76172" stroke="#7A7D89" stroke-linecap="round" stroke-linejoin="round"/>
<path d="M5.64307 8.23791C5.77456 8.23791 5.88116 8.13131 5.88116 7.99981C5.88116 7.86832 5.77456 7.76172 5.64307 7.76172" stroke="#7A7D89" stroke-linecap="round" stroke-linejoin="round"/>
<path d="M8.49981 8.23791C8.36832 8.23791 8.26172 8.13131 8.26172 7.99981C8.26172 7.86832 8.36832 7.76172 8.49981 7.76172" stroke="#7A7D89" stroke-linecap="round" stroke-linejoin="round"/>
<path d="M8.5 8.23791C8.6315 8.23791 8.7381 8.13131 8.7381 7.99981C8.7381 7.86832 8.6315 7.76172 8.5 7.76172" stroke="#7A7D89" stroke-linecap="round" stroke-linejoin="round"/>
<path d="M11.3572 8.23791C11.2257 8.23791 11.1191 8.13131 11.1191 7.99981C11.1191 7.86832 11.2257 7.76172 11.3572 7.76172" stroke="#7A7D89" stroke-linecap="round" stroke-linejoin="round"/>
<path d="M11.3574 8.23791C11.4889 8.23791 11.5955 8.13131 11.5955 7.99981C11.5955 7.86832 11.4889 7.76172 11.3574 7.76172" stroke="#7A7D89" stroke-linecap="round" stroke-linejoin="round"/>
</svg>
