<svg width="16" height="16" viewBox="0 0 16 16" fill="none" xmlns="http://www.w3.org/2000/svg">
<path d="M13.0841 8.95239V10.7798C13.0841 11.3321 12.6364 11.7798 12.0841 11.7798H3.91577C3.36349 11.7798 2.91577 11.3321 2.91577 10.7798V8.95239" stroke="#7A7D89" stroke-linecap="round" stroke-linejoin="round"/>
<path d="M7.0476 11.8096L6.09521 14.1905" stroke="#7A7D89" stroke-linecap="round" stroke-linejoin="round"/>
<path d="M8.95239 11.8096L9.90477 14.1905" stroke="#7A7D89" stroke-linecap="round" stroke-linejoin="round"/>
<path d="M5.14282 14.1904H10.8571" stroke="#7A7D89" stroke-linecap="round" stroke-linejoin="round"/>
<path d="M2.25586 4.685L3.58141 1.92859H12.4184L13.744 4.685H2.25586Z" stroke="#7A7D89" stroke-linecap="round" stroke-linejoin="round"/>
<path d="M6.02935 4.68494V5.47248C6.02935 5.89022 5.84357 6.29085 5.51289 6.58624C5.1822 6.88163 4.7337 7.04757 4.26604 7.04757H4.01917C3.55151 7.04757 3.10301 6.88163 2.77232 6.58624C2.44164 6.29085 2.25586 5.89022 2.25586 5.47248V4.68494" stroke="#7A7D89" stroke-linecap="round" stroke-linejoin="round"/>
<path d="M9.997 4.68494V5.47248C9.997 5.89022 9.81122 6.29085 9.48053 6.58624C9.14985 6.88163 8.70134 7.04757 8.23368 7.04757H7.79285C7.32519 7.04757 6.87669 6.88163 6.546 6.58624C6.21532 6.29085 6.02954 5.89022 6.02954 5.47248V4.68494" stroke="#7A7D89" stroke-linecap="round" stroke-linejoin="round"/>
<path d="M13.7439 4.68494V5.47248C13.7439 5.89022 13.5581 6.29085 13.2274 6.58624C12.8967 6.88163 12.4482 7.04757 11.9806 7.04757H11.7601C11.2925 7.04757 10.844 6.88163 10.5133 6.58624C10.1826 6.29085 9.99683 5.89022 9.99683 5.47248V4.68494" stroke="#7A7D89" stroke-linecap="round" stroke-linejoin="round"/>
</svg>
