<svg width="16" height="16" viewBox="0 0 16 16" fill="none" xmlns="http://www.w3.org/2000/svg">
<path d="M10.8572 3H2.76195C2.23597 3 1.80957 3.4264 1.80957 3.95238V9.66667C1.80957 10.1927 2.23597 10.619 2.76195 10.619H10.8572C11.3832 10.619 11.8096 10.1927 11.8096 9.66667V3.95238C11.8096 3.4264 11.3832 3 10.8572 3Z" stroke="#7A7D89" stroke-linecap="round" stroke-linejoin="round"/>
<path d="M4.66675 13.0001H13.2382C13.4908 13.0001 13.733 12.8997 13.9116 12.7211C14.0902 12.5425 14.1906 12.3003 14.1906 12.0477V7.28577" stroke="#7A7D89" stroke-linecap="round" stroke-linejoin="round"/>
<path d="M3.7381 6.91113C3.6066 6.91113 3.5 6.80453 3.5 6.67303C3.5 6.54154 3.6066 6.43494 3.7381 6.43494" stroke="#7A7D89" stroke-linecap="round" stroke-linejoin="round"/>
<path d="M3.73822 6.91113C3.86972 6.91113 3.97632 6.80453 3.97632 6.67303C3.97632 6.54154 3.86972 6.43494 3.73822 6.43494" stroke="#7A7D89" stroke-linecap="round" stroke-linejoin="round"/>
<path d="M9.88116 6.91113C9.74967 6.91113 9.64307 6.80453 9.64307 6.67303C9.64307 6.54154 9.74967 6.43494 9.88116 6.43494" stroke="#7A7D89" stroke-linecap="round" stroke-linejoin="round"/>
<path d="M9.88129 6.91113C10.0128 6.91113 10.1194 6.80453 10.1194 6.67303C10.1194 6.54154 10.0128 6.43494 9.88129 6.43494" stroke="#7A7D89" stroke-linecap="round" stroke-linejoin="round"/>
<path d="M6.80962 7.99997C7.4671 7.99997 8.00009 7.46698 8.00009 6.80949C8.00009 6.15201 7.4671 5.61902 6.80962 5.61902C6.15213 5.61902 5.61914 6.15201 5.61914 6.80949C5.61914 7.46698 6.15213 7.99997 6.80962 7.99997Z" stroke="#7A7D89" stroke-linecap="round" stroke-linejoin="round"/>
</svg>
