<svg width="17" height="16" viewBox="0 0 17 16" fill="none" xmlns="http://www.w3.org/2000/svg">
<path d="M9.45243 1.80859H3.26195C2.73597 1.80859 2.30957 2.23499 2.30957 2.76097V13.2372C2.30957 13.7632 2.73597 14.1895 3.26195 14.1895H11.8334C12.3594 14.1895 12.7858 13.7632 12.7858 13.2372V8.95145" stroke="#7A7D89" stroke-linecap="round" stroke-linejoin="round"/>
<path d="M2.30957 11.332H12.7858" stroke="#7A7D89" stroke-linecap="round" stroke-linejoin="round"/>
<path d="M5.1665 4.19141H7.07127" stroke="#7A7D89" stroke-linecap="round" stroke-linejoin="round"/>
<path d="M5.1665 6.57031H6.11889" stroke="#7A7D89" stroke-linecap="round" stroke-linejoin="round"/>
<path d="M10.3991 8.48078L7.54199 8.99507L8.01818 6.09983L12.0468 2.09031C12.1353 2.00104 12.2406 1.93019 12.3567 1.88184C12.4727 1.83349 12.5972 1.80859 12.7229 1.80859C12.8487 1.80859 12.9732 1.83349 13.0892 1.88184C13.2053 1.93019 13.3106 2.00104 13.3991 2.09031L14.4087 3.09983C14.4979 3.18837 14.5688 3.2937 14.6171 3.40976C14.6655 3.52581 14.6904 3.65029 14.6904 3.77602C14.6904 3.90175 14.6655 4.02623 14.6171 4.14228C14.5688 4.25834 14.4979 4.36367 14.4087 4.45221L10.3991 8.48078Z" stroke="#7A7D89" stroke-linecap="round" stroke-linejoin="round"/>
</svg>
