<svg width="16" height="16" viewBox="0 0 16 16" fill="none" xmlns="http://www.w3.org/2000/svg">
<path d="M4.42862 7.04767C5.87508 7.04767 7.04767 5.87508 7.04767 4.42862C7.04767 2.98216 5.87508 1.80957 4.42862 1.80957C2.98216 1.80957 1.80957 2.98216 1.80957 4.42862C1.80957 5.87508 2.98216 7.04767 4.42862 7.04767Z" stroke="#7A7D89" stroke-linecap="round" stroke-linejoin="round"/>
<path d="M11.5714 7.04767C13.0179 7.04767 14.1905 5.87508 14.1905 4.42862C14.1905 2.98216 13.0179 1.80957 11.5714 1.80957C10.125 1.80957 8.95239 2.98216 8.95239 4.42862C8.95239 5.87508 10.125 7.04767 11.5714 7.04767Z" stroke="#7A7D89" stroke-linecap="round" stroke-linejoin="round"/>
<path d="M4.42862 14.1905C5.87508 14.1905 7.04767 13.0179 7.04767 11.5714C7.04767 10.125 5.87508 8.95239 4.42862 8.95239C2.98216 8.95239 1.80957 10.125 1.80957 11.5714C1.80957 13.0179 2.98216 14.1905 4.42862 14.1905Z" stroke="#7A7D89" stroke-linecap="round" stroke-linejoin="round"/>
<path d="M11.5714 14.1905C13.0179 14.1905 14.1905 13.0179 14.1905 11.5714C14.1905 10.125 13.0179 8.95239 11.5714 8.95239C10.125 8.95239 8.95239 10.125 8.95239 11.5714C8.95239 13.0179 10.125 14.1905 11.5714 14.1905Z" stroke="#7A7D89" stroke-linecap="round" stroke-linejoin="round"/>
</svg>
