<svg width="16" height="16" viewBox="0 0 16 16" fill="none" xmlns="http://www.w3.org/2000/svg">
<path d="M8.00005 14.1895C11.419 14.1895 14.1905 11.418 14.1905 7.99907C14.1905 4.58016 11.419 1.80859 8.00005 1.80859C4.58114 1.80859 1.80957 4.58016 1.80957 7.99907C1.80957 11.418 4.58114 14.1895 8.00005 14.1895Z" stroke="#7A7D89" stroke-linecap="round" stroke-linejoin="round"/>
<path d="M2.28564 10.3798H3.95231C4.39434 10.3798 4.81826 10.2042 5.13082 9.89161C5.44338 9.57905 5.61898 9.15512 5.61898 8.7131V7.28452C5.61898 6.8425 5.79457 6.41857 6.10713 6.10601C6.41969 5.79345 6.84362 5.61786 7.28564 5.61786C7.72767 5.61786 8.1516 5.44226 8.46416 5.1297C8.77672 4.81714 8.95231 4.39322 8.95231 3.95119V1.875" stroke="#7A7D89" stroke-linecap="round" stroke-linejoin="round"/>
<path d="M14.1902 7.90439C13.7134 7.65697 13.1846 7.5264 12.6474 7.52344H10.6188C10.1768 7.52344 9.75286 7.69903 9.4403 8.01159C9.12774 8.32415 8.95215 8.74808 8.95215 9.1901C8.95215 9.63213 9.12774 10.0561 9.4403 10.3686C9.75286 10.6812 10.1768 10.8568 10.6188 10.8568C10.9345 10.8568 11.2374 10.9822 11.4606 11.2055C11.6839 11.4287 11.8093 11.7315 11.8093 12.0472V12.8758" stroke="#7A7D89" stroke-linecap="round" stroke-linejoin="round"/>
</svg>
