<svg width="16" height="16" viewBox="0 0 16 16" fill="none" xmlns="http://www.w3.org/2000/svg">
<path d="M6.31444 3.47526L6.72397 2.41812C6.79303 2.23913 6.91454 2.08518 7.07258 1.97641C7.23063 1.86765 7.41783 1.80916 7.60968 1.80859H8.39063C8.58248 1.80916 8.76969 1.86765 8.92773 1.97641C9.08577 2.08518 9.20728 2.23913 9.27635 2.41812L9.68587 3.47526L11.0763 4.27526L12.2002 4.10383C12.3873 4.07843 12.5777 4.10924 12.7473 4.19233C12.9169 4.27542 13.0579 4.40706 13.1525 4.5705L13.5335 5.23717C13.6311 5.40321 13.6761 5.59496 13.6625 5.78709C13.6489 5.97922 13.5773 6.16272 13.4573 6.31336L12.7621 7.19907V8.79907L13.4763 9.68479C13.5964 9.83542 13.6679 10.0189 13.6815 10.2111C13.6951 10.4032 13.6502 10.5949 13.5525 10.761L13.1716 11.4276C13.077 11.5911 12.9359 11.7227 12.7664 11.8058C12.5968 11.8889 12.4063 11.9197 12.2192 11.8943L11.0954 11.7229L9.70492 12.5229L9.29539 13.58C9.22633 13.759 9.10482 13.913 8.94678 14.0217C8.78873 14.1305 8.60153 14.189 8.40968 14.1895H7.60968C7.41783 14.189 7.23063 14.1305 7.07258 14.0217C6.91454 13.913 6.79303 13.759 6.72397 13.58L6.31444 12.5229L4.92397 11.7229L3.80016 11.8943C3.61303 11.9197 3.42258 11.8889 3.253 11.8058C3.08342 11.7227 2.94237 11.5911 2.84778 11.4276L2.46682 10.761C2.36921 10.5949 2.32423 10.4032 2.33783 10.2111C2.35143 10.0189 2.42298 9.83542 2.54301 9.68479L3.23825 8.79907V7.19907L2.52397 6.31336C2.40393 6.16272 2.33239 5.97922 2.31878 5.78709C2.30518 5.59496 2.35016 5.40321 2.44778 5.23717L2.82873 4.5705C2.92332 4.40706 3.06437 4.27542 3.23395 4.19233C3.40353 4.10924 3.59398 4.07843 3.78111 4.10383L4.90492 4.27526L6.31444 3.47526ZM6.09539 7.99907C6.09539 8.3758 6.20711 8.74406 6.4164 9.0573C6.6257 9.37054 6.92319 9.61467 7.27124 9.75884C7.61928 9.90301 8.00227 9.94073 8.37176 9.86723C8.74124 9.79374 9.08064 9.61233 9.34703 9.34594C9.61341 9.07955 9.79482 8.74016 9.86832 8.37067C9.94181 8.00118 9.90409 7.6182 9.75993 7.27015C9.61576 6.9221 9.37162 6.62462 9.05839 6.41532C8.74515 6.20602 8.37688 6.09431 8.00016 6.09431C7.49498 6.09431 7.0105 6.29499 6.65329 6.6522C6.29607 7.00941 6.09539 7.4939 6.09539 7.99907V7.99907Z" stroke="#7A7D89" stroke-linecap="round" stroke-linejoin="round"/>
</svg>
