<svg width="24" height="24" viewBox="0 0 24 24" fill="none" xmlns="http://www.w3.org/2000/svg">
<path d="M1.53662 19.2656L4.46497 21.7059C4.89567 22.0648 5.43859 22.2614 5.99924 22.2614L13.7194 22.2614C14.2709 22.2614 14.718 21.8143 14.718 21.2628C14.718 20.1598 13.8238 19.2656 12.7208 19.2656H7.35356" stroke="#02076F" stroke-linecap="round" stroke-linejoin="round"/>
<path d="M5.13155 18.07L6.03028 18.9687C6.52663 19.4651 7.33139 19.4651 7.82774 18.9687C8.3241 18.4724 8.3241 17.6676 7.82774 17.1713L6.43265 15.7762C5.9832 15.3267 5.37361 15.0742 4.73799 15.0742H1.53662" stroke="#02076F" stroke-linecap="round" stroke-linejoin="round"/>
<path d="M19.3733 3.74219H7.3812C6.77911 3.74219 6.29102 4.23028 6.29102 4.83238V13.0088C6.29102 13.6109 6.77911 14.099 7.3812 14.099H19.3733C19.9754 14.099 20.4635 13.6109 20.4635 13.0088V4.83238C20.4635 4.23028 19.9754 3.74219 19.3733 3.74219Z" stroke="#02076F" stroke-linecap="round" stroke-linejoin="round"/>
<path d="M6.29102 7.55859H20.4635" stroke="#02076F" stroke-linecap="round" stroke-linejoin="round"/>
<path d="M16.1025 11.3711H17.7378" stroke="#02076F" stroke-linecap="round" stroke-linejoin="round"/>
</svg>
