<svg width="94" height="16" viewBox="0 0 94 16" fill="none" xmlns="http://www.w3.org/2000/svg">
<path d="M29.9012 13.1345C29.8607 13.0664 29.8222 12.9973 29.7867 12.9243C29.7512 12.8512 29.7186 12.7802 29.69 12.7091C29.1758 11.351 28.6615 10.0058 28.1493 8.67238C27.637 7.33996 27.1258 5.99175 26.6086 4.63564C26.6086 4.61492 26.6057 4.59715 26.5987 4.58234C26.5938 4.56754 26.5889 4.54977 26.5889 4.53398C26.5889 4.42245 26.6619 4.36719 26.809 4.36719H28.7375C28.8895 4.36719 28.9932 4.44318 29.0494 4.59517L30.8812 10.0532L32.5759 4.59517C32.6311 4.44318 32.7407 4.36719 32.9055 4.36719H34.8519C34.9427 4.36719 35.0088 4.38495 35.0473 4.41752C35.0858 4.45009 35.1025 4.49648 35.1025 4.55175C35.1025 4.58432 35.1025 4.60504 35.0976 4.61787V4.63564L34.0307 7.69132L34.8341 10.0453L36.7745 4.59517C36.8298 4.44318 36.9393 4.36719 37.1041 4.36719H38.9922C39.083 4.36719 39.1492 4.38495 39.1877 4.41752C39.2261 4.45009 39.2429 4.49648 39.2429 4.55175C39.2429 4.58432 39.2429 4.60504 39.238 4.61787V4.63564C38.9665 5.33738 38.6882 6.03913 38.404 6.73889C38.1197 7.43866 37.8365 8.13744 37.5502 8.83424C37.264 9.53401 36.9798 10.2328 36.6985 10.9345C36.4172 11.6363 36.1438 12.336 35.8754 13.0348C35.8606 13.0782 35.825 13.1286 35.7668 13.1819C35.7115 13.2352 35.6424 13.2628 35.5644 13.2628H34.0978C34.009 13.2628 33.9429 13.245 33.8975 13.2125C33.8521 13.1799 33.8185 13.1335 33.7988 13.0782L32.8512 10.5871C32.7141 10.9493 32.5828 11.3066 32.4505 11.656C32.3193 12.0054 32.187 12.3627 32.0557 12.7249C32.035 12.7802 32.0123 12.8394 31.9876 12.9026C31.962 12.9637 31.9324 13.022 31.8939 13.0773C31.8554 13.1325 31.8179 13.1759 31.7725 13.2115C31.7271 13.247 31.6738 13.2648 31.6126 13.2648H30.1459C30.0196 13.2648 29.9327 13.2213 29.8952 13.1384L29.9031 13.1335L29.9012 13.1345Z" fill="white"/>
<path d="M41.7208 4.63964C41.7208 4.55575 41.7435 4.4906 41.7889 4.43928C41.8343 4.38894 41.9004 4.36328 41.9843 4.36328H47.9258C48.0147 4.36328 48.0808 4.38895 48.1282 4.44224C48.1766 4.49258 48.1992 4.56364 48.1992 4.65247V6.1349C48.1992 6.203 48.1766 6.26618 48.1282 6.33033C48.0798 6.39152 48.0088 6.42409 47.918 6.42409H44.0362V7.9085H47.0307C47.1067 7.9085 47.1698 7.92626 47.2182 7.96179C47.2666 7.99732 47.2942 8.05852 47.2942 8.14143V9.43634C47.2942 9.49161 47.2715 9.54491 47.2281 9.59821C47.1846 9.6515 47.1195 9.67716 47.0356 9.67716H44.0352V11.2099H48.0611C48.2407 11.2099 48.3295 11.3007 48.3295 11.4833V12.9885C48.3295 13.0289 48.3147 13.0645 48.2812 13.0951C48.2664 13.2066 48.1825 13.2619 48.0354 13.2619H41.9793C41.9004 13.2619 41.8352 13.2411 41.7889 13.1987C41.7405 13.1553 41.7178 13.0921 41.7178 13.0033V4.63964H41.7208Z" fill="white"/>
<path d="M54.0748 4.59719C54.0797 4.57449 54.0926 4.54685 54.1133 4.51823C54.136 4.4906 54.1617 4.46494 54.1942 4.43928C54.2268 4.41362 54.2603 4.39585 54.2959 4.384C54.3314 4.3692 54.367 4.36328 54.3975 4.36328H55.9303C55.9984 4.36328 56.0566 4.38401 56.105 4.42645C56.1534 4.46889 56.1889 4.50541 56.2136 4.53798L56.3626 4.88046L59.5071 12.9914C59.5397 13.0724 59.5328 13.1355 59.4893 13.1868C59.4459 13.2372 59.3699 13.2628 59.2613 13.2628H57.5411C57.4503 13.2628 57.3792 13.2451 57.3279 13.2125C57.2766 13.1799 57.239 13.1217 57.2114 13.0428C57.1305 12.8404 57.0545 12.6371 56.9785 12.4348C56.9025 12.2324 56.8265 12.0291 56.7505 11.8268H53.5705C53.4945 12.0291 53.4184 12.2324 53.3395 12.4348C53.2605 12.6371 53.1845 12.8404 53.1086 13.0428C53.0553 13.1898 52.9536 13.2628 52.8016 13.2628H51.0359C50.9599 13.2628 50.8967 13.2421 50.8484 13.2017C50.7981 13.1612 50.7901 13.103 50.8207 13.022L54.0738 4.60016V4.59719H54.0748ZM55.1644 7.16136C55.0884 7.36369 55.0124 7.58477 54.9334 7.81967C54.8545 8.05457 54.7785 8.29342 54.7025 8.53128C54.6265 8.76914 54.5505 9.008 54.4716 9.24092C54.3926 9.47385 54.3166 9.69492 54.2406 9.89725H56.0803L55.1634 7.16037L55.1644 7.16136Z" fill="white"/>
<path d="M62.001 4.6229C62.001 4.55184 62.0237 4.48867 62.0721 4.43834C62.1204 4.388 62.1866 4.35938 62.2695 4.35938H64.043C64.1111 4.35938 64.1723 4.38208 64.2276 4.43045C64.2829 4.47881 64.3135 4.54197 64.3164 4.6229V11.1399H67.61C67.681 11.1399 67.7442 11.1626 67.7946 11.211C67.8449 11.2593 67.8735 11.3255 67.8735 11.4084V12.9846C67.8735 13.0527 67.8508 13.1139 67.8054 13.1691C67.76 13.2244 67.6939 13.255 67.61 13.258H62.2616C62.0869 13.258 61.998 13.1691 61.998 12.9944V4.6229H62.001Z" fill="white"/>
<path d="M70.3467 4.62681C70.3467 4.55575 70.3694 4.49258 70.4128 4.44224C70.4562 4.39191 70.5214 4.36328 70.6102 4.36328H72.371C72.4322 4.36328 72.4953 4.38598 72.5634 4.43434C72.6315 4.4827 72.6651 4.54588 72.6651 4.62681V12.9954C72.6651 13.1701 72.5664 13.2589 72.371 13.2589H70.6102C70.4355 13.2589 70.3467 13.1701 70.3467 12.9954V4.62681Z" fill="white"/>
<path d="M75.1348 4.63964C75.1348 4.55575 75.1575 4.49061 75.2029 4.44224C75.2483 4.39388 75.3045 4.3692 75.3677 4.36328H81.0991C81.1899 4.36328 81.259 4.38895 81.3073 4.44224C81.3527 4.49258 81.3754 4.56364 81.3754 4.65247V6.1349C81.3754 6.203 81.3527 6.26618 81.3044 6.33033C81.256 6.39448 81.1849 6.42409 81.0941 6.42409H77.4532V8.28157H80.1417C80.2177 8.28157 80.2809 8.3023 80.3342 8.34474C80.3845 8.38817 80.4131 8.45331 80.4131 8.5451V9.97621C80.4131 10.0443 80.3904 10.1075 80.345 10.1716C80.2996 10.2328 80.2365 10.2654 80.1575 10.2654H77.4561V13.0092C77.4561 13.1819 77.3654 13.2678 77.1798 13.2678H75.3529C75.2088 13.2471 75.1378 13.1642 75.1378 13.0171V4.64062H75.1348V4.63964Z" fill="white"/>
<path d="M87.9288 7.64789L89.3757 4.55175C89.3984 4.50339 89.4191 4.46785 89.4369 4.44811C89.4517 4.42541 89.4694 4.40962 89.4852 4.39975C89.501 4.38988 89.5178 4.38496 89.5356 4.38199C89.5533 4.37903 89.5741 4.3741 89.5987 4.36719H91.9043C91.9319 4.36719 91.9546 4.37705 91.9724 4.39481C91.9902 4.41258 92.0001 4.43331 92.0001 4.45798C92.0001 4.50141 91.9724 4.55175 91.9162 4.60702L89.0757 9.63369V12.9835C89.0757 13.171 88.9849 13.2648 88.8023 13.2648H87.0109C86.9319 13.2648 86.8688 13.2391 86.8263 13.1888C86.7839 13.1384 86.7602 13.0694 86.7602 12.9805V9.62086L83.9276 4.60702C83.8772 4.55668 83.8486 4.50536 83.8486 4.45798C83.8486 4.43528 83.8565 4.41258 83.8713 4.39481C83.8861 4.37705 83.9098 4.36719 83.9375 4.36719H86.243C86.2706 4.37508 86.2933 4.38002 86.3091 4.38199C86.3239 4.38199 86.3417 4.38988 86.3575 4.39975C86.3733 4.40962 86.3901 4.42541 86.4059 4.44811C86.4207 4.47081 86.4443 4.50339 86.472 4.55175L87.9317 7.64789H87.9288Z" fill="white"/>
<path d="M17.3036 2.90859L13.1616 11.791C12.7175 12.7435 13.1296 13.8757 14.082 14.3198L14.0838 14.3207C15.0363 14.7648 16.1685 14.3527 16.6126 13.4003L20.7546 4.51782C21.1987 3.56534 20.7866 2.43318 19.8341 1.98903L19.8324 1.9882C18.8799 1.54405 17.7477 1.95611 17.3036 2.90859Z" fill="url(#paint0_linear_3077_839)"/>
<path d="M9.04012 2.93004L4.92821 11.7481C4.48407 12.7005 4.89616 13.8327 5.84863 14.2769L5.85041 14.2777C6.80288 14.7218 7.93506 14.3098 8.3792 13.3573L12.4911 4.53927C12.9353 3.5868 12.5232 2.45459 11.5707 2.01044L11.5689 2.00961C10.6165 1.56547 9.48427 1.97757 9.04012 2.93004Z" fill="url(#paint1_linear_3077_839)"/>
<path d="M1.25941 6.91797H20.308C21.0039 6.91797 21.5674 7.48153 21.5674 8.17636C21.5674 8.87119 21.0039 9.43476 20.308 9.43476H1.25941C0.563588 9.43476 0 8.87119 0 8.17636C0 7.48153 0.563588 6.91797 1.25941 6.91797Z" fill="url(#paint2_linear_3077_839)"/>
<path d="M1.74981 2.01529L1.74802 2.01613C0.79555 2.46027 0.38349 3.59245 0.827635 4.54492L4.96832 13.4247C5.41247 14.3771 6.54463 14.7892 7.4971 14.3451L7.49889 14.3442C8.45137 13.9001 8.86343 12.7679 8.41928 11.8154L4.27859 2.93571C3.83445 1.98324 2.70229 1.57115 1.74981 2.01529Z" fill="url(#paint3_linear_3077_839)"/>
<path d="M9.95786 1.99574L9.95607 1.99657C9.0036 2.44072 8.59149 3.5729 9.03564 4.52538L13.1872 13.4284C13.6313 14.3809 14.7635 14.7929 15.716 14.3488L15.7178 14.3479C16.6703 13.9038 17.0823 12.7716 16.6382 11.8191L12.4866 2.91615C12.0425 1.96368 10.9103 1.55159 9.95786 1.99574Z" fill="url(#paint4_linear_3077_839)"/>
<path opacity="0.5" d="M6.12695 6.91797L7.30246 9.43673H11.3214L10.1479 6.91797H6.12695Z" fill="url(#paint5_linear_3077_839)"/>
<path opacity="0.5" d="M1.25941 6.91797C0.562602 6.91797 0 7.48252 0 8.17735C0 8.8712 0.562602 9.43673 1.25941 9.43673H3.10107L1.92759 6.92093H1.25839V6.91797H1.25941Z" fill="url(#paint6_linear_3077_839)"/>
<path opacity="0.5" d="M20.3158 6.92093H14.3535L15.527 9.43673H20.3158C21.0096 9.43673 21.5752 8.87416 21.5752 8.17735C21.5752 7.48351 21.0126 6.91797 20.3158 6.91797V6.92093Z" fill="url(#paint7_linear_3077_839)"/>
<defs>
<linearGradient id="paint0_linear_3077_839" x1="25.4076" y1="13.7175" x2="25.5194" y2="3.03591" gradientUnits="userSpaceOnUse">
<stop stop-color="#984F29"/>
<stop offset="1" stop-color="#FF5942"/>
</linearGradient>
<linearGradient id="paint1_linear_3077_839" x1="18.6446" y1="13.6401" x2="18.7755" y2="3.07058" gradientUnits="userSpaceOnUse">
<stop stop-color="#984F29"/>
<stop offset="1" stop-color="#FF5942"/>
</linearGradient>
<linearGradient id="paint2_linear_3077_839" x1="0.532967" y1="417.417" x2="21.0433" y2="417.417" gradientUnits="userSpaceOnUse">
<stop stop-color="#FF833D"/>
<stop offset="1" stop-color="#FF9C42"/>
</linearGradient>
<linearGradient id="paint3_linear_3077_839" x1="-7.73205" y1="8.30924" x2="0.34978" y2="8.22457" gradientUnits="userSpaceOnUse">
<stop stop-color="#FF833D"/>
<stop offset="1" stop-color="#FF5942"/>
</linearGradient>
<linearGradient id="paint4_linear_3077_839" x1="1.06706" y1="8.28635" x2="9.15101" y2="8.20734" gradientUnits="userSpaceOnUse">
<stop stop-color="#FF833D"/>
<stop offset="1" stop-color="#FF5942"/>
</linearGradient>
<linearGradient id="paint5_linear_3077_839" x1="0.532785" y1="417.417" x2="21.0431" y2="417.417" gradientUnits="userSpaceOnUse">
<stop offset="0.32" stop-color="#AD512E"/>
<stop offset="0.54" stop-color="#AB512E" stop-opacity="0"/>
</linearGradient>
<linearGradient id="paint6_linear_3077_839" x1="0.532966" y1="417.417" x2="2.79511" y2="417.417" gradientUnits="userSpaceOnUse">
<stop offset="0.03" stop-color="#AB512E" stop-opacity="0"/>
<stop offset="1" stop-color="#AD512E"/>
</linearGradient>
<linearGradient id="paint7_linear_3077_839" x1="0.539815" y1="417.42" x2="21.0482" y2="417.42" gradientUnits="userSpaceOnUse">
<stop offset="0.67" stop-color="#AD512E"/>
<stop offset="1" stop-color="#AB512E" stop-opacity="0"/>
</linearGradient>
</defs>
</svg>
