<svg width="340" height="28" viewBox="0 0 340 28" fill="none" xmlns="http://www.w3.org/2000/svg">
<path d="M0.624 22L4.968 16.264L0.624 10.504H2.904L6.192 14.848L9.36 10.504H11.64L7.272 16.264L11.616 22H9.336L6.048 17.632L2.904 22H0.624ZM15.9053 22L20.2493 16.264L15.9053 10.504H18.1853L21.4733 14.848L24.6413 10.504H26.9213L22.5533 16.264L26.8973 22H24.6173L21.3293 17.632L18.1853 22H15.9053ZM31.1865 22L35.5305 16.264L31.1865 10.504H33.4665L36.7545 14.848L39.9225 10.504H42.2025L37.8345 16.264L42.1785 22H39.8985L36.6105 17.632L33.4665 22H31.1865ZM46.4678 22L50.8118 16.264L46.4678 10.504H48.7478L52.0358 14.848L55.2038 10.504H57.4838L53.1158 16.264L57.4598 22H55.1798L51.8918 17.632L48.7478 22H46.4678Z" fill="#D7D9E5"/>
<path d="M94.291 22L98.635 16.264L94.291 10.504H96.571L99.859 14.848L103.027 10.504H105.307L100.939 16.264L105.283 22H103.003L99.715 17.632L96.571 22H94.291ZM109.572 22L113.916 16.264L109.572 10.504H111.852L115.14 14.848L118.308 10.504H120.588L116.22 16.264L120.564 22H118.284L114.996 17.632L111.852 22H109.572ZM124.853 22L129.197 16.264L124.853 10.504H127.133L130.421 14.848L133.589 10.504H135.869L131.501 16.264L135.845 22H133.565L130.277 17.632L127.133 22H124.853ZM140.135 22L144.479 16.264L140.135 10.504H142.415L145.703 14.848L148.871 10.504H151.151L146.783 16.264L151.127 22H148.847L145.559 17.632L142.415 22H140.135Z" fill="#D7D9E5"/>
<path d="M187.957 22L192.301 16.264L187.957 10.504H190.237L193.525 14.848L196.693 10.504H198.973L194.605 16.264L198.949 22H196.669L193.381 17.632L190.237 22H187.957ZM203.238 22L207.582 16.264L203.238 10.504H205.518L208.806 14.848L211.974 10.504H214.254L209.886 16.264L214.23 22H211.95L208.662 17.632L205.518 22H203.238ZM218.52 22L222.864 16.264L218.52 10.504H220.8L224.088 14.848L227.256 10.504H229.536L225.168 16.264L229.512 22H227.232L223.944 17.632L220.8 22H218.52ZM233.801 22L238.145 16.264L233.801 10.504H236.081L239.369 14.848L242.537 10.504H244.817L240.449 16.264L244.793 22H242.513L239.225 17.632L236.081 22H233.801Z" fill="#D7D9E5"/>
<path d="M281.624 22L285.968 16.264L281.624 10.504H283.904L287.192 14.848L290.36 10.504H292.64L288.272 16.264L292.616 22H290.336L287.048 17.632L283.904 22H281.624ZM296.905 22L301.249 16.264L296.905 10.504H299.185L302.473 14.848L305.641 10.504H307.921L303.553 16.264L307.897 22H305.617L302.329 17.632L299.185 22H296.905ZM312.187 22L316.531 16.264L312.187 10.504H314.467L317.755 14.848L320.923 10.504H323.203L318.835 16.264L323.179 22H320.899L317.611 17.632L314.467 22H312.187ZM327.468 22L331.812 16.264L327.468 10.504H329.748L333.036 14.848L336.204 10.504H338.484L334.116 16.264L338.46 22H336.18L332.892 17.632L329.748 22H327.468Z" fill="#D7D9E5"/>
</svg>
