<svg width="14" height="14" viewBox="0 0 14 14" fill="none" xmlns="http://www.w3.org/2000/svg">
<path d="M3.87492 6.16536C5.14057 6.16536 6.16658 5.13935 6.16658 3.8737C6.16658 2.60805 5.14057 1.58203 3.87492 1.58203C2.60927 1.58203 1.58325 2.60805 1.58325 3.8737C1.58325 5.13935 2.60927 6.16536 3.87492 6.16536Z" stroke="#7A7D89" stroke-width="0.8" stroke-linecap="round" stroke-linejoin="round"/>
<path d="M10.1249 6.16536C11.3906 6.16536 12.4166 5.13935 12.4166 3.8737C12.4166 2.60805 11.3906 1.58203 10.1249 1.58203C8.85927 1.58203 7.83325 2.60805 7.83325 3.8737C7.83325 5.13935 8.85927 6.16536 10.1249 6.16536Z" stroke="#7A7D89" stroke-width="0.8" stroke-linecap="round" stroke-linejoin="round"/>
<path d="M3.87492 12.4154C5.14057 12.4154 6.16658 11.3894 6.16658 10.1237C6.16658 8.85805 5.14057 7.83203 3.87492 7.83203C2.60927 7.83203 1.58325 8.85805 1.58325 10.1237C1.58325 11.3894 2.60927 12.4154 3.87492 12.4154Z" stroke="#7A7D89" stroke-width="0.8" stroke-linecap="round" stroke-linejoin="round"/>
<path d="M10.1249 12.4154C11.3906 12.4154 12.4166 11.3894 12.4166 10.1237C12.4166 8.85805 11.3906 7.83203 10.1249 7.83203C8.85927 7.83203 7.83325 8.85805 7.83325 10.1237C7.83325 11.3894 8.85927 12.4154 10.1249 12.4154Z" stroke="#7A7D89" stroke-width="0.8" stroke-linecap="round" stroke-linejoin="round"/>
</svg>
