<svg width="40" height="40" viewBox="0 0 40 40" fill="none" xmlns="http://www.w3.org/2000/svg">
<rect width="40" height="40" rx="20" fill="#5268E1"/>
<path d="M28.4129 18.6484H24.3357C23.9757 18.6484 23.684 18.9402 23.684 19.3002V21.9071C23.684 22.2671 23.9757 22.5589 24.3357 22.5589H28.4129C28.7728 22.5589 29.0646 22.2671 29.0646 21.9071V19.3002C29.0646 18.9402 28.7728 18.6484 28.4129 18.6484Z" stroke="white" stroke-linecap="round" stroke-linejoin="round"/>
<path d="M27.0485 18.6569V16.5859C27.0485 15.4814 26.1531 14.5859 25.0485 14.5859H18.4851M27.0485 22.6397V24.6225C27.0485 25.727 26.1531 26.6225 25.0485 26.6225H13.4182C12.3136 26.6225 11.4182 25.727 11.4182 24.6225V21.1238" stroke="white" stroke-linecap="round" stroke-linejoin="round"/>
<path d="M14.5486 13.5882L14.5486 20.4062" stroke="white" stroke-linecap="round" stroke-linejoin="round"/>
<path d="M17.2783 17.6764L14.5484 20.4063L11.8186 17.6764" stroke="white" stroke-linecap="round" stroke-linejoin="round"/>
</svg>
